<?xml version="1.0" encoding="UTF-8"?>
<!DOCTYPE svg PUBLIC "-//W3C//DTD SVG 1.1//EN" "http://www.w3.org/Graphics/SVG/1.1/DTD/svg11.dtd">
<svg version="1.1" xmlns="http://www.w3.org/2000/svg" xmlns:xlink="http://www.w3.org/1999/xlink" x="0" y="0" width="1200" height="300" viewBox="0, 0, 1200, 300">
  <g id="Layer_1">
    <g>
      <path d="M838.896,32.713 L844.814,32.713 L844.814,44.511 L856.053,32.713 L863.452,32.713 L851.973,44.351 L864.491,61.468 L857.252,61.468 L847.894,48.311 L844.814,51.35 L844.814,61.468 L838.896,61.468 L838.896,32.713" fill="#000000"/>
      <path d="M866.835,32.753 L872.514,32.753 L872.514,37.872 L866.835,37.872 z M864.355,65.388 L865.475,65.388 C866.435,65.388 866.835,64.947 866.835,63.948 L866.835,40.232 L872.514,40.232 L872.514,64.868 C872.514,68.908 870.274,70.146 865.435,70.146 L864.355,70.146 L864.355,65.388" fill="#000000"/>
      <path d="M890.356,48.631 C890.277,45.751 888.797,44.231 886.157,44.231 C883.718,44.231 882.238,45.751 881.998,48.631 L890.356,48.631 z M895.956,55.03 C894.796,59.469 891.156,62.188 886.117,62.188 C880.078,62.188 876.119,57.869 876.119,50.71 C876.119,43.752 879.918,39.472 886.037,39.472 C892.516,39.472 896.236,43.551 896.236,50.87 C896.236,51.35 896.236,51.83 896.196,52.35 L881.998,52.35 C882.158,55.67 883.638,57.389 886.397,57.389 C888.317,57.389 889.557,56.669 890.277,55.03 L895.956,55.03" fill="#000000"/>
      <path d="M899.791,40.232 L905.19,40.232 L905.19,42.592 C906.75,40.632 908.709,39.632 911.069,39.632 C913.748,39.632 915.588,40.592 916.988,42.752 C918.467,40.712 920.507,39.632 923.027,39.632 C927.266,39.632 929.985,42.272 929.985,46.631 L929.985,61.468 L924.387,61.468 L924.387,47.791 C924.387,45.711 923.187,44.551 921.227,44.551 C919.067,44.551 917.627,46.071 917.627,48.591 L917.627,61.468 L912.068,61.468 L912.068,47.831 C912.068,45.711 910.909,44.551 908.989,44.551 C906.83,44.551 905.39,46.071 905.39,48.631 L905.39,61.468 L899.791,61.468 L899.791,40.232" fill="#000000"/>
      <path d="M934.623,40.232 L940.302,40.232 L940.302,61.468 L934.623,61.468 z M934.623,32.713 L940.302,32.713 L940.302,37.872 L934.623,37.872 z" fill="#000000"/>
      <path d="M949.461,54.55 C949.542,56.709 950.981,57.749 953.9,57.749 C956.18,57.749 957.38,56.949 957.38,55.63 C957.38,53.79 955.54,53.91 951.781,52.95 C946.782,51.67 944.422,50.151 944.422,46.551 C944.422,42.272 947.702,39.472 953.141,39.472 C958.86,39.472 962.219,42.152 962.419,46.711 L956.9,46.711 C956.82,44.911 955.5,43.871 953.181,43.871 C951.021,43.871 949.981,44.511 949.981,45.831 C949.981,47.311 951.741,47.471 955.78,48.431 C960.699,49.591 963.099,50.95 963.099,54.79 C963.099,59.589 959.66,62.188 953.141,62.188 C947.222,62.188 943.782,59.349 943.782,54.79 C943.782,54.71 943.782,54.63 943.782,54.55 L949.461,54.55" fill="#000000"/>
      <path d="M966.626,32.713 L972.145,32.713 L972.145,47.791 L978.904,40.232 L985.743,40.232 L978.344,48.111 L986.183,61.468 L979.383,61.468 L974.305,52.43 L972.145,54.75 L972.145,61.468 L966.626,61.468 L966.626,32.713" fill="#000000"/>
      <path d="M1000.145,40.232 L1005.824,40.232 L1005.824,61.468 L1000.145,61.468 z M1000.145,32.713 L1005.824,32.713 L1005.824,37.872 L1000.145,37.872 z" fill="#000000"/>
      <path d="M1010.42,40.232 L1015.98,40.232 L1015.98,42.752 C1017.58,40.712 1019.739,39.672 1022.418,39.672 C1027.098,39.672 1029.417,42.112 1029.417,46.991 L1029.417,61.468 L1023.738,61.468 L1023.738,48.631 C1023.738,45.751 1022.898,44.391 1020.459,44.391 C1017.819,44.391 1016.099,46.071 1016.099,48.871 L1016.099,61.468 L1010.42,61.468 L1010.42,40.232" fill="#000000"/>
      <path d="M1038.479,54.55 C1038.559,56.709 1039.999,57.749 1042.918,57.749 C1045.198,57.749 1046.398,56.949 1046.398,55.63 C1046.398,53.79 1044.558,53.91 1040.798,52.95 C1035.799,51.67 1033.44,50.151 1033.44,46.551 C1033.44,42.272 1036.719,39.472 1042.159,39.472 C1047.877,39.472 1051.237,42.152 1051.437,46.711 L1045.917,46.711 C1045.837,44.911 1044.518,43.871 1042.198,43.871 C1040.039,43.871 1038.999,44.511 1038.999,45.831 C1038.999,47.311 1040.758,47.471 1044.797,48.431 C1049.717,49.591 1052.117,50.95 1052.117,54.79 C1052.117,59.589 1048.677,62.188 1042.159,62.188 C1036.239,62.188 1032.799,59.349 1032.799,54.79 C1032.799,54.71 1032.799,54.63 1032.799,54.55 L1038.479,54.55" fill="#000000"/>
      <path d="M1061.882,61.748 C1057.203,61.748 1056.203,60.149 1056.203,55.709 L1056.203,44.231 L1053.404,44.231 L1053.404,40.232 L1056.203,40.232 L1056.203,34.433 L1061.842,34.433 L1061.842,40.232 L1065.122,40.232 L1065.122,44.231 L1061.842,44.231 L1061.842,55.989 C1061.842,57.109 1062.202,57.349 1063.722,57.349 L1065.122,57.349 L1065.122,61.629 C1063.562,61.669 1062.482,61.748 1061.882,61.748" fill="#000000"/>
      <path d="M1068.459,40.232 L1074.138,40.232 L1074.138,61.468 L1068.459,61.468 z M1068.459,32.713 L1074.138,32.713 L1074.138,37.872 L1068.459,37.872 z" fill="#000000"/>
      <path d="M1085.198,61.748 C1080.518,61.748 1079.518,60.149 1079.518,55.709 L1079.518,44.231 L1076.719,44.231 L1076.719,40.232 L1079.518,40.232 L1079.518,34.433 L1085.158,34.433 L1085.158,40.232 L1088.437,40.232 L1088.437,44.231 L1085.158,44.231 L1085.158,55.989 C1085.158,57.109 1085.517,57.349 1087.038,57.349 L1088.437,57.349 L1088.437,61.629 C1086.877,61.669 1085.797,61.748 1085.198,61.748" fill="#000000"/>
      <path d="M1110.335,61.468 L1104.776,61.468 L1104.776,58.949 C1103.176,60.989 1101.017,62.029 1098.337,62.029 C1093.658,62.029 1091.338,59.589 1091.338,54.71 L1091.338,40.232 L1097.018,40.232 L1097.018,53.07 C1097.018,55.949 1097.858,57.269 1100.297,57.269 C1102.937,57.269 1104.657,55.59 1104.657,52.79 L1104.657,40.232 L1110.335,40.232 L1110.335,61.468" fill="#000000"/>
      <path d="M1121.401,61.748 C1116.721,61.748 1115.721,60.149 1115.721,55.709 L1115.721,44.231 L1112.922,44.231 L1112.922,40.232 L1115.721,40.232 L1115.721,34.433 L1121.361,34.433 L1121.361,40.232 L1124.64,40.232 L1124.64,44.231 L1121.361,44.231 L1121.361,55.989 C1121.361,57.109 1121.72,57.349 1123.241,57.349 L1124.64,57.349 L1124.64,61.629 C1123.081,61.669 1122,61.748 1121.401,61.748" fill="#000000"/>
      <path d="M1134.701,61.748 C1130.021,61.748 1129.021,60.149 1129.021,55.709 L1129.021,44.231 L1126.222,44.231 L1126.222,40.232 L1129.021,40.232 L1129.021,34.433 L1134.661,34.433 L1134.661,40.232 L1137.94,40.232 L1137.94,44.231 L1134.661,44.231 L1134.661,55.989 C1134.661,57.109 1135.02,57.349 1136.541,57.349 L1137.94,57.349 L1137.94,61.629 C1136.38,61.669 1135.3,61.748 1134.701,61.748" fill="#000000"/>
      <path d="M752.289,51.168 C752.289,53.145 752.056,54.819 751.59,56.191 C751.121,57.565 750.409,58.676 749.448,59.527 C748.488,60.38 747.288,60.994 745.845,61.379 C744.406,61.762 742.696,61.953 740.722,61.953 C739.045,61.953 737.515,61.771 736.13,61.401 C734.742,61.03 733.555,60.432 732.567,59.609 C731.579,58.786 730.811,57.716 730.263,56.401 C729.713,55.079 729.438,53.459 729.438,51.54 L729.438,34.495 L726.146,33.878 L726.146,32.641 L736.355,32.641 L736.355,33.878 L733.062,34.495 L733.062,52.898 C733.062,55.175 733.775,56.967 735.202,58.273 C736.63,59.574 738.729,60.227 741.502,60.227 C744.412,60.227 746.517,59.552 747.821,58.206 C749.125,56.864 749.777,54.739 749.777,51.828 L749.777,34.495 L746.484,33.878 L746.484,32.641 L755.582,32.641 L755.582,33.878 L752.289,34.495 L752.289,51.168" fill="#000000"/>
      <path d="M764.695,43.756 L764.695,59.609 L767.988,60.227 L767.988,61.462 L758.23,61.462 L758.23,60.227 L761.524,59.609 L761.524,43.346 L758.23,42.112 L758.23,41.411 L764.695,40.381 L764.859,40.466 L764.695,43.756" fill="#000000"/>
      <path d="M792.343,37.129 C790.695,34.961 788.376,33.878 785.385,33.878 C782.337,33.878 779.993,34.926 778.344,37.025 C776.696,39.127 775.875,42.426 775.875,46.928 C775.875,51.484 776.683,54.841 778.303,56.993 C779.923,59.15 782.254,60.227 785.303,60.227 C788.35,60.227 790.695,59.172 792.343,57.056 C793.989,54.943 794.813,51.65 794.813,47.175 C794.813,42.646 793.989,39.297 792.343,37.129 z M795.307,58.129 C792.918,60.679 789.529,61.953 785.138,61.953 C780.938,61.953 777.663,60.714 775.317,58.23 C772.971,55.746 771.798,52.103 771.798,47.299 C771.798,44.801 772.119,42.605 772.766,40.711 C773.41,38.818 774.322,37.239 775.504,35.976 C776.683,34.711 778.118,33.761 779.806,33.116 C781.494,32.471 783.381,32.147 785.466,32.147 C787.554,32.147 789.425,32.464 791.086,33.093 C792.746,33.726 794.154,34.664 795.307,35.915 C796.458,37.165 797.345,38.707 797.963,40.546 C798.58,42.386 798.888,44.515 798.888,46.928 C798.888,51.84 797.695,55.576 795.307,58.129" fill="#000000"/>
      <path d="M761.09,34.325 C761.09,34.927 761.289,35.429 761.687,35.826 C762.084,36.225 762.586,36.423 763.188,36.423 C763.793,36.423 764.302,36.225 764.713,35.826 C765.125,35.429 765.331,34.927 765.331,34.325 C765.331,33.722 765.125,33.212 764.713,32.8 C764.302,32.386 763.793,32.184 763.188,32.184 C762.586,32.184 762.084,32.386 761.687,32.8 C761.289,33.212 761.09,33.722 761.09,34.325" fill="#000000"/>
      <path d="M824.432,37.6 C824.529,38.059 824.585,38.548 824.585,39.037 C824.585,42.699 821.615,45.661 817.961,45.661 C814.303,45.661 811.334,42.699 811.334,39.037 C811.334,35.375 814.303,32.407 817.961,32.407 C821.126,32.407 823.768,34.629 824.432,37.6" fill="#D8232A"/>
      <path d="M824.432,53.815 C824.529,54.276 824.585,54.761 824.585,55.254 C824.585,58.915 821.615,61.886 817.961,61.886 C814.303,61.886 811.334,58.915 811.334,55.254 C811.334,51.593 814.303,48.629 817.961,48.629 C821.126,48.629 823.768,50.848 824.432,53.815" fill="#D8232A"/>
    </g>
    <path d="M345.268,186.023 C345.255,185.832 345.261,185.799 345.255,185.664 C345.247,185.497 345.194,185.434 345.027,185.328 C344.962,185.286 344.888,185.252 344.811,185.217 C344.689,185.162 344.55,185.12 344.395,185.092 C344.111,185.041 343.844,185.044 343.597,185.1 C343.348,185.156 343.125,185.268 342.925,185.436 C342.727,185.603 342.556,185.826 342.414,186.106 C342.272,186.385 342.165,186.719 342.095,187.108 C341.945,187.933 342.004,188.576 342.272,189.037 C342.539,189.498 343.002,189.789 343.661,189.908 C343.854,189.943 344.063,189.957 344.289,189.948 C344.481,189.94 344.703,189.914 344.957,189.883 C345.088,189.866 345.101,189.963 345.101,189.963 L345.115,190.066 C345.115,190.066 345.128,190.186 345.028,190.223 C344.806,190.307 344.553,190.367 344.268,190.406 C343.939,190.451 343.579,190.438 343.187,190.367 C342.813,190.299 342.471,190.184 342.163,190.024 C341.854,189.863 341.6,189.649 341.4,189.382 C341.199,189.115 341.062,188.791 340.987,188.408 C340.913,188.026 340.922,187.58 341.015,187.068 C341.108,186.552 341.266,186.122 341.486,185.776 C341.706,185.431 341.973,185.163 342.284,184.968 C342.596,184.775 342.946,184.653 343.334,184.602 C343.722,184.552 344.133,184.566 344.567,184.645 C344.861,184.699 345.132,184.776 345.379,184.879 C345.551,184.951 345.713,185.023 345.865,185.098 C346.076,185.202 346.021,185.381 346.021,185.381 L345.795,186.128 C345.795,186.128 345.741,186.292 345.596,186.267 C345.468,186.245 345.391,186.229 345.391,186.229 C345.391,186.229 345.28,186.214 345.268,186.023" fill="#FFFFFE"/>
    <path d="M353.935,186.217 C353.877,186.035 353.876,186.001 353.838,185.871 C353.79,185.712 353.724,185.664 353.537,185.599 C353.464,185.574 353.384,185.557 353.301,185.542 C353.169,185.517 353.024,185.51 352.867,185.519 C352.578,185.536 352.32,185.602 352.093,185.717 C351.865,185.83 351.675,185.992 351.521,186.201 C351.366,186.411 351.254,186.668 351.182,186.973 C351.11,187.279 351.086,187.628 351.109,188.022 C351.159,188.859 351.369,189.47 351.738,189.855 C352.106,190.239 352.625,190.412 353.294,190.372 C353.49,190.36 353.696,190.324 353.913,190.262 C354.099,190.21 354.308,190.131 354.546,190.04 C354.67,189.993 354.706,190.084 354.706,190.084 L354.744,190.181 C354.744,190.181 354.785,190.295 354.697,190.355 C354.501,190.489 354.269,190.607 354.001,190.713 C353.692,190.834 353.339,190.906 352.942,190.929 C352.562,190.952 352.203,190.923 351.866,190.84 C351.528,190.757 351.23,190.608 350.972,190.396 C350.714,190.183 350.504,189.901 350.342,189.549 C350.179,189.194 350.082,188.758 350.051,188.239 C350.02,187.716 350.07,187.26 350.203,186.873 C350.335,186.486 350.53,186.161 350.787,185.899 C351.044,185.637 351.355,185.436 351.721,185.296 C352.085,185.154 352.488,185.07 352.928,185.045 C353.227,185.026 353.509,185.039 353.773,185.08 C353.957,185.108 354.132,185.14 354.297,185.176 C354.526,185.228 354.515,185.415 354.515,185.415 L354.472,186.194 C354.472,186.194 354.459,186.367 354.313,186.377 C354.182,186.385 354.104,186.387 354.104,186.387 C354.104,186.387 353.993,186.399 353.935,186.217" fill="#FFFFFE"/>
    <path d="M362.389,184.432 C362.294,184.265 362.285,184.233 362.221,184.115 C362.141,183.968 362.066,183.935 361.87,183.912 C361.793,183.902 361.712,183.903 361.627,183.906 C361.493,183.909 361.35,183.932 361.198,183.974 C360.92,184.051 360.681,184.17 360.483,184.329 C360.284,184.488 360.131,184.685 360.025,184.923 C359.918,185.16 359.862,185.436 359.856,185.749 C359.85,186.062 359.899,186.41 360.005,186.79 C360.229,187.598 360.562,188.151 361.003,188.45 C361.445,188.749 361.988,188.808 362.634,188.629 C362.822,188.577 363.016,188.498 363.216,188.392 C363.386,188.301 363.575,188.18 363.789,188.042 C363.9,187.969 363.954,188.051 363.954,188.051 L364.011,188.139 C364.011,188.139 364.075,188.241 364.002,188.318 C363.839,188.49 363.636,188.655 363.396,188.813 C363.12,188.998 362.79,189.142 362.407,189.249 C362.04,189.35 361.683,189.396 361.335,189.385 C360.988,189.375 360.665,189.294 360.369,189.14 C360.072,188.987 359.808,188.754 359.574,188.443 C359.34,188.132 359.154,187.725 359.016,187.224 C358.875,186.719 358.829,186.263 358.877,185.856 C358.926,185.45 359.048,185.092 359.244,184.782 C359.44,184.472 359.702,184.21 360.03,183.995 C360.357,183.781 360.733,183.615 361.159,183.497 C361.447,183.417 361.725,183.369 361.991,183.354 C362.177,183.343 362.355,183.339 362.524,183.34 C362.759,183.341 362.787,183.526 362.787,183.526 L362.909,184.298 C362.909,184.298 362.932,184.468 362.791,184.509 C362.665,184.545 362.59,184.564 362.59,184.564 C362.59,184.564 362.483,184.598 362.389,184.432" fill="#FFFFFE"/>
    <g>
      <path d="M821.353,158.479 C790.592,158.479 765.651,183.425 765.651,214.189 C765.651,244.953 790.592,269.894 821.353,269.894 C852.123,269.894 877.064,244.953 877.064,214.189 C877.064,183.425 852.123,158.479 821.353,158.479" fill="#D8232A"/>
      <path d="M768.395,214.189 C768.395,228.814 774.323,242.052 783.907,251.636 C793.493,261.221 806.729,267.15 821.353,267.15 C835.981,267.149 849.22,261.221 858.807,251.636 C868.392,242.052 874.318,228.814 874.318,214.189 C874.318,199.565 868.392,186.325 858.807,176.739 C849.22,167.154 835.98,161.224 821.353,161.224 C804.901,161.224 790.205,168.727 780.488,180.5 C772.933,189.658 768.395,201.392 768.395,214.189 z M767.596,214.189 C767.595,201.202 772.203,189.285 779.872,179.992 C789.731,168.042 804.655,160.425 821.353,160.425 C851.048,160.425 875.117,184.5 875.119,214.189 C875.117,243.878 851.048,267.948 821.353,267.949 C791.666,267.948 767.596,243.878 767.596,214.189" fill="#FFFFFE"/>
      <path d="M779.409,235.997 C779.417,235.295 779.992,234.732 780.695,234.742 C781.398,234.75 781.962,235.325 781.952,236.028 C781.945,236.731 781.367,237.293 780.666,237.286 C779.963,237.277 779.401,236.701 779.409,235.997" fill="#FFFFFE"/>
      <path d="M860.322,236.756 C860.33,236.055 860.906,235.491 861.609,235.5 C862.311,235.508 862.874,236.084 862.866,236.787 C862.858,237.489 862.281,238.053 861.58,238.044 C860.876,238.035 860.313,237.46 860.322,236.756" fill="#FFFFFE"/>
      <path d="M857.303,229.368 C855.332,234.011 852.524,238.18 848.94,241.766 C845.358,245.345 841.189,248.159 836.543,250.126 C834.716,250.9 832.845,251.526 830.94,252.007 L830.894,251.23 C830.894,250.763 830.366,250.527 830.075,250.527 L828.399,250.554 C828.399,250.554 827.882,250.428 827.82,250.409 C827.757,250.39 827.772,250.324 827.783,250.311 C827.9,250.169 827.907,249.962 827.792,249.812 L826.513,248.143 L826.553,246.957 C830.315,246.864 833.085,245.436 834.379,244.493 C835.649,243.553 835.73,242.116 835.733,241.69 C835.733,241.628 835.73,241.586 835.73,241.569 L835.692,238.235 C835.703,238.229 835.716,238.227 835.728,238.22 L835.727,238.219 L839.292,236.219 C839.429,236.141 839.509,235.992 839.495,235.833 L837.154,209.755 C837.256,209.718 837.587,209.605 837.961,209.465 C838.416,209.29 838.897,209.104 839.182,208.919 C839.437,208.739 840.511,207.836 840.77,207.567 C840.996,207.327 841.082,207.016 841.08,206.742 C841.075,206.311 840.91,205.929 840.744,205.628 C840.595,205.374 840.393,205.165 840.174,204.985 C840.665,203.89 840.914,202.676 840.914,201.423 C840.914,199.235 840.391,197.514 839.887,195.885 C839.38,194.254 838.896,192.716 838.896,190.823 C838.896,187.307 838.932,185.22 838.932,185.216 C838.933,185.108 838.892,185.006 838.818,184.929 C838.743,184.853 838.639,184.81 838.533,184.81 C837.352,184.805 836.619,185.196 836.217,185.63 C836.029,185.833 835.914,186.035 835.844,186.199 L828.631,186.199 C828.56,186.019 828.443,185.786 828.248,185.548 C827.858,185.066 827.125,184.603 825.983,184.609 C825.875,184.609 825.774,184.651 825.698,184.727 C825.623,184.803 825.581,184.905 825.582,185.011 C825.582,185.017 825.604,187.663 825.603,191.373 C825.606,191.665 825.592,191.953 825.567,192.239 C825.42,192.006 825.26,191.772 825.091,191.551 C824.645,190.98 824.176,190.475 823.597,190.285 C823.074,190.125 822.301,189.885 821.394,189.608 C821.062,189.503 820.924,189.35 820.831,189.183 C820.776,189.084 820.745,188.973 820.729,188.869 L821.17,188.879 L821.192,188.879 C821.59,188.865 821.93,188.812 822.221,188.693 C822.507,188.577 822.769,188.363 822.866,188.043 C822.915,187.879 822.932,187.724 822.932,187.585 C822.93,187.428 822.912,187.291 822.892,187.191 L823.081,186.857 C823.143,186.749 823.15,186.62 823.104,186.51 C823.191,186.428 823.237,186.312 823.23,186.19 L823.202,185.781 C823.221,185.777 823.242,185.774 823.262,185.77 C823.383,185.747 823.509,185.719 823.641,185.659 C823.707,185.628 823.778,185.59 823.852,185.516 C823.925,185.447 824.004,185.313 824.003,185.157 C824.001,185.05 823.979,184.794 823.945,184.393 C823.858,183.408 823.701,181.739 823.653,181.219 C823.816,181 824.096,180.549 824.109,179.963 C824.11,179.586 824,179.141 823.655,178.794 C823.32,178.454 822.8,178.254 822.1,178.247 C821.791,178.164 820.178,177.736 819.711,177.666 C819.363,177.617 818.899,177.536 818.351,177.536 C817.419,177.533 816.239,177.785 814.958,178.776 C813.303,180.08 813.168,182.414 813.156,183.452 C813.156,183.653 813.163,183.808 813.169,183.899 C813.114,184.066 813.03,184.41 813.03,184.959 C813.03,185.259 813.054,185.621 813.123,186.049 C813.284,187.087 813.926,187.712 814.491,188.035 C814.78,188.2 815.05,188.3 815.252,188.358 L815.252,189.118 C814.938,189.277 812.943,190.153 811.026,191.474 C810.986,191.511 810.827,191.601 810.679,191.769 C810.676,191.772 810.671,191.774 810.667,191.778 L789.113,213.571 C789.037,213.648 788.995,213.755 788.999,213.863 C789.001,213.972 789.049,214.076 789.128,214.148 C789.132,214.15 790.614,215.5 792.259,217.004 C792.669,217.379 793.088,217.763 793.497,218.139 L789.546,223.558 C789.214,223.982 789,224.597 789.001,225.414 C789.006,227.068 789.825,229.58 792.335,233.489 C795.199,237.94 797.392,239.993 798.2,240.668 L797.158,241.865 C797.123,241.904 796.788,242.256 796.443,242.713 C796.263,242.95 796.079,243.216 795.936,243.483 C795.901,243.551 795.867,243.615 795.836,243.681 C795.13,243.07 794.443,242.431 793.775,241.765 C790.195,238.18 787.385,234.011 785.424,229.368 C783.384,224.564 782.353,219.454 782.353,214.182 C782.353,208.92 783.384,203.814 785.424,199.008 C787.385,194.354 790.195,190.187 793.775,186.602 C797.364,183.024 801.529,180.211 806.176,178.244 C810.987,176.213 816.09,175.186 821.363,175.184 C826.626,175.186 831.732,176.213 836.543,178.244 C841.189,180.211 845.358,183.024 848.94,186.602 C852.526,190.187 855.332,194.354 857.304,199.007 C859.333,203.813 860.362,208.92 860.362,214.182 C860.362,219.454 859.333,224.564 857.303,229.368 z M821.19,253.186 C823.475,252.793 825.494,252.044 826.97,250.979 L828.227,251.34 C828.272,251.352 828.32,251.358 828.367,251.356 C828.367,251.356 829.536,251.294 829.633,251.287 C829.965,251.266 830.115,251.462 830.118,251.532 C830.121,251.602 830.128,251.687 830.128,251.687 C830.128,251.687 830.142,251.895 830.005,252.031 C829.88,252.156 828.979,252.405 828.651,252.509 C826.265,252.959 823.831,253.189 821.363,253.189 C821.306,253.189 821.247,253.186 821.19,253.186 z M798.218,242.575 C798.361,242.578 798.521,242.581 798.702,242.582 C801.876,242.581 810.33,241.852 816.491,234.59 C821.561,228.572 822.832,217.084 823.031,215.072 L824.619,214.96 C824.563,215.783 824.422,217.731 824.176,220.366 C823.844,223.898 823.325,228.652 822.57,233.54 C821.815,238.429 820.905,243.274 820.184,246.896 C819.652,249.576 819.223,251.58 819.035,252.445 C819.018,252.522 818.92,252.666 818.734,252.666 C818.294,252.666 817.851,252.706 817.401,252.705 C815.942,252.706 814.438,252.569 812.952,252.282 C812.173,252.111 811.4,251.917 810.634,251.698 C805.123,249.961 801.925,247.506 800.1,245.519 C799.186,244.522 798.617,243.636 798.278,243.004 C798.223,242.903 798.174,242.809 798.132,242.722 C798.086,242.627 798.138,242.573 798.218,242.575 z M798.409,241.646 C798.511,241.53 809.285,229.159 809.285,229.159 C809.326,229.113 809.354,229.059 809.369,229.001 C809.369,229.001 812.558,217.235 812.581,217.152 C812.603,217.07 812.686,217.047 812.686,217.047 C812.686,217.047 818.337,215.501 818.554,215.438 C818.773,215.376 819.086,215.35 819.086,215.35 L822.224,215.128 C822.187,215.495 822.123,216.083 822.019,216.84 C821.485,220.816 819.858,229.399 815.88,234.073 C809.96,241.068 801.77,241.782 798.702,241.781 C798.633,241.781 798.568,241.781 798.506,241.78 C798.389,241.78 798.309,241.762 798.409,241.646 z M830.056,188.894 L830.056,192.014 C829.788,192.163 829.581,192.294 829.468,192.36 C829.107,192.591 828.621,193.027 828.527,193.109 L828.525,193.111 C828.665,192.045 828.765,190.701 828.779,188.894 L830.056,188.894 z M831.873,188.894 L831.873,191.28 C831.522,191.354 831.176,191.477 830.856,191.616 L830.856,188.894 L831.873,188.894 z M833.628,188.894 L833.628,191.35 C833.34,191.242 833.018,191.206 832.672,191.201 L832.672,188.894 L833.628,188.894 z M835.154,194.037 C835.108,193.894 835.018,193.681 834.744,193.588 C834.673,193.568 834.598,193.549 834.526,193.532 C834.525,193.28 834.521,192.93 834.521,192.656 C834.526,192.463 834.492,192.279 834.428,192.111 L834.428,188.894 L835.682,188.894 C835.703,192.191 835.991,194.149 836.279,195.567 C836.58,197.047 836.861,197.897 836.861,199.079 C836.861,200.351 836.371,201.563 835.566,202.448 C835.234,202.812 834.85,203.12 834.428,203.358 L834.428,195.581 C834.456,195.577 834.486,195.574 834.51,195.571 C834.55,195.568 834.584,195.563 834.61,195.562 C834.634,195.56 834.644,195.561 834.644,195.56 C834.793,195.56 834.899,195.486 834.952,195.435 C835.122,195.246 835.119,195.135 835.164,194.978 C835.195,194.831 835.212,194.663 835.213,194.494 C835.212,194.342 835.2,194.192 835.154,194.037 z M832.672,203.882 L832.672,195.854 C833.04,195.763 833.361,195.681 833.48,195.652 L833.628,195.652 L833.628,203.704 C833.322,203.799 833.004,203.86 832.672,203.882 z M830.856,203.679 L830.856,196.192 C830.927,196.188 830.996,196.185 831.051,196.185 C831.215,196.182 831.382,196.145 831.636,196.094 C831.71,196.078 831.79,196.059 831.873,196.042 L831.873,203.867 C831.525,203.834 831.185,203.771 830.856,203.679 z M827.515,200.069 C828.449,198.923 829.479,197.516 830.056,196.717 L830.056,203.387 C829.657,203.202 829.286,202.971 828.959,202.693 C828.206,202.048 827.676,201.177 827.515,200.069 z M827.672,214.7 L827.962,214.641 C828.148,214.603 828.281,214.439 828.281,214.25 L828.295,209.064 C829.362,209.494 830.603,209.743 832.016,209.743 C832.02,209.743 832.024,209.743 832.029,209.743 C832.936,209.744 833.779,209.642 834.558,209.462 L834.931,241.589 L834.932,241.611 C834.932,241.611 834.933,241.632 834.933,241.69 C834.935,242.019 834.848,243.171 833.906,243.847 C832.739,244.702 830.121,246.061 826.581,246.156 L827.672,214.7 z M814.305,205.453 C813.674,204.587 811.837,202.013 811.215,197.32 C811.258,197.369 811.302,197.418 811.346,197.465 C812.011,198.162 812.765,198.625 813.215,198.856 C817.22,201.003 823.653,203.534 823.66,203.538 C823.663,203.539 823.668,203.539 823.673,203.54 C823.73,203.809 823.803,204.074 823.889,204.335 L817.854,204.705 C817.854,204.705 817.146,204.735 816.634,204.881 C816.018,205.055 814.607,205.456 814.511,205.487 C814.393,205.526 814.326,205.484 814.305,205.453 z M811.847,215.548 C811.847,215.548 814.448,206.559 814.483,206.438 C814.518,206.317 814.638,206.283 814.638,206.283 C814.638,206.283 816.542,205.75 816.844,205.652 C817.148,205.554 817.646,205.517 817.646,205.517 L824.188,205.116 C824.529,205.883 824.996,206.606 825.601,207.244 C826.131,207.804 826.765,208.293 827.498,208.689 C827.498,208.689 827.484,213.662 827.484,213.757 C827.484,213.852 827.437,213.958 827.228,213.975 C827.018,213.993 820.648,214.439 819.061,214.551 C818.836,214.566 818.566,214.606 818.323,214.672 C818.082,214.739 812.535,216.26 812.535,216.26 C812.535,216.26 812.346,216.289 812.25,216.215 C812.156,216.138 812.107,216.1 811.936,215.964 C811.766,215.829 811.847,215.548 811.847,215.548 z M825.791,248.516 C825.791,248.516 826.828,249.86 826.867,249.92 C826.908,249.981 826.877,250.051 826.848,250.074 C825.279,251.355 822.734,252.251 819.826,252.572 C820.283,250.458 822.051,242.136 823.36,233.662 C824.709,224.925 825.309,216.628 825.425,214.904 C825.425,214.904 826.474,214.836 826.659,214.818 C826.841,214.799 826.865,214.908 826.86,215.019 C826.857,215.132 825.708,248.259 825.708,248.259 C825.705,248.352 825.735,248.443 825.791,248.516 z M838.664,235.529 C838.664,235.529 838.679,235.645 838.584,235.699 C838.491,235.751 835.68,237.329 835.68,237.329 L835.354,209.242 C835.673,209.138 835.98,209.018 836.273,208.885 L838.664,235.529 z M837.49,207.775 C837.275,207.471 837.203,207.265 837.206,207.131 C837.206,207.084 837.213,207.041 837.227,206.992 L837.229,206.992 C837.259,206.917 837.499,206.66 837.713,206.479 C837.929,206.29 838.122,206.144 838.123,206.143 C838.235,206.073 838.308,205.893 838.298,205.786 C838.292,205.627 838.25,205.571 838.226,205.508 C838.198,205.452 838.17,205.403 838.148,205.358 C838.121,205.298 838.103,205.165 838.224,205.046 C838.36,204.908 838.552,204.964 838.592,204.982 C838.738,205.041 838.983,205.152 839.218,205.292 C839.567,205.495 839.917,205.781 840.047,206.021 C840.177,206.247 840.284,206.542 840.279,206.742 C840.278,206.874 840.224,206.975 840.159,207.048 C840.03,207.194 838.856,208.18 838.735,208.256 C838.61,208.345 838.107,208.558 837.681,208.716 C837.556,208.762 837.436,208.807 837.328,208.845 C837.181,208.907 837.158,208.81 837.158,208.81 C837.158,208.81 837.129,208.723 837.187,208.667 C837.254,208.612 837.321,208.55 837.387,208.48 C837.457,208.387 837.56,208.3 837.577,208.05 C837.578,207.965 837.55,207.86 837.49,207.775 z M826.387,185.645 C826.387,185.47 826.447,185.442 826.476,185.446 C827.087,185.543 827.417,185.805 827.631,186.057 C827.763,186.216 827.842,186.376 827.888,186.494 C827.911,186.553 827.925,186.601 827.933,186.632 C827.937,186.648 827.939,186.658 827.94,186.663 L827.941,186.664 C827.974,186.857 828.141,186.998 828.336,186.998 L836.135,186.998 C836.334,186.998 836.501,186.853 836.531,186.657 C836.539,186.618 836.601,186.367 836.851,186.126 C837.06,185.93 837.403,185.716 838.025,185.639 C838.11,185.621 838.125,185.704 838.125,185.778 C838.125,186.604 838.096,188.324 838.096,190.823 C838.096,192.858 838.62,194.498 839.123,196.122 C839.628,197.751 840.114,199.364 840.114,201.423 C840.114,202.523 839.904,203.579 839.498,204.532 C839.14,204.333 838.839,204.211 838.673,204.163 C838.616,204.148 838.56,204.141 838.506,204.141 C838.19,204.155 837.987,204.295 837.785,204.434 C837.589,204.594 837.438,204.706 837.325,204.953 C837.293,205.035 837.28,205.119 837.28,205.196 C837.285,205.416 837.36,205.566 837.417,205.682 C837.334,205.75 837.237,205.83 837.137,205.921 C837.007,206.037 836.872,206.165 836.754,206.298 C836.637,206.435 836.531,206.555 836.464,206.755 C836.426,206.876 836.406,207.002 836.406,207.131 C836.407,207.375 836.475,207.601 836.588,207.825 C835.378,208.528 833.86,208.941 832.029,208.942 C829.361,208.94 827.449,208.025 826.181,206.694 C825.237,205.701 824.652,204.463 824.415,203.184 C824.81,202.851 825.501,202.242 826.377,201.363 C826.525,201.213 826.689,201.036 826.862,200.843 C827.143,201.844 827.706,202.679 828.441,203.301 C829.465,204.17 830.807,204.641 832.197,204.683 C832.222,204.688 832.246,204.691 832.272,204.691 C832.283,204.691 832.293,204.689 832.303,204.688 C832.336,204.689 832.367,204.692 832.4,204.692 C835.405,204.683 837.655,202.026 837.661,199.079 C837.659,197.757 837.35,196.833 837.062,195.408 C836.773,193.977 836.481,191.993 836.481,188.493 C836.481,188.388 836.438,188.286 836.363,188.212 C836.289,188.136 836.185,188.094 836.08,188.094 L828.38,188.094 C828.275,188.094 828.171,188.136 828.098,188.211 C828.023,188.286 827.98,188.388 827.98,188.493 C827.98,190.997 827.819,192.604 827.612,193.805 L825.803,195.178 C825.946,194.659 826.076,194.131 826.178,193.592 C826.183,193.568 826.188,193.546 826.19,193.522 C826.319,192.828 826.401,192.113 826.403,191.373 C826.403,188.745 826.392,186.648 826.387,185.645 z M813.86,191.742 C814.47,191.739 815.016,191.917 815.334,192.24 C815.853,192.758 816.414,193.466 816.84,194.039 C817.265,194.612 817.554,195.049 817.555,195.05 C817.584,195.094 817.621,195.13 817.665,195.161 L822.455,198.386 C822.598,198.483 822.783,198.478 822.921,198.374 L829.021,193.738 L829.047,193.716 C829.047,193.716 829.182,193.594 829.359,193.446 C829.535,193.299 829.758,193.124 829.894,193.037 C830.212,192.828 831.559,192.03 832.414,192.007 C832.49,192.003 832.562,192.001 832.631,192.001 C833.044,191.999 833.349,192.07 833.5,192.17 C833.644,192.274 833.711,192.357 833.721,192.656 C833.721,193.144 833.73,193.864 833.73,193.864 C833.732,194.058 833.871,194.187 834.062,194.22 C834.212,194.22 834.414,194.263 834.414,194.494 C834.414,194.759 834.233,194.799 834.148,194.809 C834.002,194.828 833.865,194.844 833.808,194.852 L833.432,194.851 L833.33,194.864 C833.329,194.864 832.816,194.997 832.264,195.129 C831.987,195.196 831.702,195.263 831.47,195.311 C831.355,195.334 831.253,195.355 831.175,195.368 C831.136,195.374 831.103,195.38 831.08,195.382 C831.057,195.386 831.051,195.385 831.051,195.386 C830.698,195.387 830.151,195.448 830.143,195.449 C830.029,195.462 829.926,195.522 829.86,195.615 C829.858,195.617 829.184,196.576 828.337,197.706 C827.492,198.836 826.467,200.144 825.812,200.799 C825.132,201.481 824.566,201.996 824.172,202.339 C824.05,202.446 823.944,202.535 823.856,202.609 C823.812,202.646 823.702,202.695 823.589,202.648 C823.003,202.408 821.754,201.907 820.249,201.264 C818.151,200.368 815.555,199.203 813.585,198.148 C813.193,197.947 812.499,197.518 811.924,196.914 C811.863,196.848 811.803,196.78 811.744,196.712 C811.725,196.688 811.706,196.666 811.689,196.644 C811.644,196.59 811.601,196.536 811.56,196.481 C811.529,196.438 811.497,196.392 811.468,196.349 C811.442,196.311 811.417,196.274 811.392,196.236 C811.364,196.191 811.336,196.146 811.309,196.099 C811.3,196.08 811.289,196.061 811.279,196.043 C811.225,195.946 811.177,195.846 811.134,195.744 C811.127,195.729 811.121,195.715 811.114,195.702 C811.091,195.641 811.068,195.582 811.048,195.521 C811.048,195.52 811.048,195.52 811.048,195.52 C811.047,195.519 811.047,195.518 811.047,195.517 C811.011,195.41 810.983,195.301 810.959,195.187 C810.949,195.14 810.939,195.092 810.932,195.043 C810.927,195.007 810.921,194.969 810.917,194.932 C810.908,194.838 810.9,194.746 810.9,194.65 C810.9,194.589 810.903,194.524 810.908,194.46 C810.911,194.408 810.917,194.353 810.924,194.299 C810.925,194.291 810.927,194.282 810.928,194.272 C810.945,194.145 810.972,194.013 811.009,193.88 C811.009,193.879 811.009,193.879 811.009,193.879 L811.009,193.878 C811.033,193.797 811.058,193.714 811.088,193.63 C811.09,193.626 811.091,193.622 811.092,193.617 C811.12,193.542 811.153,193.462 811.187,193.383 C811.193,193.372 811.197,193.361 811.202,193.349 C811.235,193.277 811.273,193.201 811.312,193.126 C811.321,193.11 811.328,193.092 811.337,193.076 C811.386,192.985 811.439,192.894 811.497,192.799 C811.859,192.192 812.904,191.731 813.86,191.742 z M817.772,192.506 C817.844,192.562 817.93,192.591 818.019,192.591 C818.028,192.591 818.036,192.591 818.045,192.591 L822.698,192.274 C822.851,192.263 822.984,192.168 823.041,192.025 C823.1,191.884 823.07,191.723 822.97,191.61 L822.132,190.671 C822.619,190.821 823.039,190.95 823.363,191.05 C823.611,191.113 824.068,191.515 824.455,192.036 C824.821,192.514 825.157,193.082 825.378,193.539 C825.214,194.365 824.977,195.178 824.726,195.999 L822.664,197.564 L818.176,194.541 C817.949,194.203 816.904,192.684 815.899,191.674 C815.367,191.148 814.613,190.942 813.86,190.942 C813.721,190.942 813.581,190.95 813.441,190.966 C813.638,190.857 813.835,190.752 814.027,190.65 C814.32,190.496 814.6,190.35 814.85,190.221 L817.772,192.506 z M822.406,185.871 C822.406,185.871 822.413,185.994 822.307,186.054 C822.201,186.113 822.128,186.218 822.109,186.337 C822.089,186.458 822.141,186.571 822.206,186.669 C822.221,186.693 822.224,186.745 822.197,186.793 C822.17,186.841 822.119,186.932 822.119,186.932 C822.062,187.03 822.051,187.146 822.085,187.253 C822.085,187.253 822.085,187.253 822.09,187.269 C822.103,187.316 822.132,187.447 822.132,187.585 C822.132,187.662 822.07,187.885 821.914,187.954 C821.764,188.018 821.512,188.068 821.181,188.079 L820.338,188.063 C820.143,188.058 819.973,188.197 819.938,188.389 C819.934,188.408 819.914,188.516 819.914,188.68 C819.915,188.9 819.947,189.228 820.125,189.561 C820.193,189.69 820.285,189.817 820.403,189.933 C820.404,189.934 820.406,189.936 820.407,189.938 L821.828,191.532 L818.144,191.783 L815.634,189.82 C815.758,189.759 815.829,189.722 815.829,189.722 C815.967,189.655 816.052,189.517 816.052,189.364 L816.052,188.205 L817.663,186.59 C817.762,186.49 817.802,186.343 817.768,186.209 C817.733,186.072 817.628,185.964 817.495,185.924 L817.495,185.923 C817.421,185.873 816.939,185.719 816.923,184.731 C816.928,184.57 816.968,184.548 817.002,184.511 C817.016,184.5 817.03,184.491 817.042,184.485 L818.089,184.476 C818.212,184.475 818.329,184.417 818.404,184.319 C818.404,184.319 820.082,182.102 820.198,181.958 C820.312,181.812 820.489,181.802 820.489,181.802 L822.76,181.554 C822.76,181.554 822.875,181.547 822.894,181.688 C822.913,181.897 822.937,182.152 822.963,182.43 C822.968,182.545 822.891,182.588 822.847,182.589 C822.558,182.599 822.258,182.607 821.937,182.62 C821.601,182.631 821.236,182.786 820.994,182.99 C820.814,183.14 820.808,183.421 820.975,183.582 C821.067,183.67 821.267,183.699 821.485,183.766 C821.761,183.849 822.067,183.954 822.221,183.905 C822.416,183.842 822.489,183.669 822.503,183.48 C822.518,183.269 822.644,183.124 822.858,183.124 C822.948,183.124 823.003,183.199 823.011,183.275 C823.051,183.673 823.124,184.177 823.149,184.463 C823.16,184.603 823.172,184.732 823.18,184.842 C823.184,184.985 823.059,184.996 822.996,185.003 C822.863,185.02 822.758,185.023 822.758,185.024 C822.65,185.029 822.55,185.077 822.479,185.157 C822.406,185.239 822.37,185.343 822.378,185.45 L822.406,185.871 z M816.293,182.816 C816.222,182.612 816.004,182.501 815.8,182.564 C815.974,182.409 816.146,182.258 816.313,182.116 L818.03,181.891 C818.25,181.861 818.403,181.66 818.375,181.442 C818.347,181.223 818.145,181.07 817.926,181.098 L817.665,181.132 C818.201,180.816 818.75,180.561 819.203,180.374 C819.509,180.247 819.772,180.151 819.956,180.088 C820.14,180.025 820.241,179.996 820.241,179.995 C820.452,179.932 820.574,179.709 820.511,179.497 C820.448,179.286 820.225,179.166 820.013,179.228 C820.002,179.232 819.333,179.43 818.47,179.82 C818.595,179.64 818.552,179.391 818.372,179.265 C818.191,179.138 817.942,179.181 817.816,179.362 L816.896,180.668 C816.814,180.722 816.731,180.777 816.651,180.832 C816.533,180.916 816.403,181.014 816.265,181.121 L816.359,180.939 C816.459,180.743 816.382,180.501 816.186,180.401 C815.99,180.299 815.748,180.378 815.648,180.575 L814.641,182.532 C814.392,182.765 814.159,182.983 813.96,183.172 C813.992,182.126 814.273,180.286 815.446,179.41 C816.6,178.526 817.555,178.34 818.351,178.336 C818.82,178.336 819.233,178.406 819.598,178.459 C819.772,178.482 820.387,178.63 820.92,178.766 C821.461,178.903 821.945,179.032 821.945,179.033 L822.049,179.046 C822.64,179.048 822.932,179.2 823.089,179.357 C823.246,179.515 823.309,179.729 823.31,179.963 C823.312,180.165 823.224,180.392 823.126,180.563 C823.091,180.626 823.058,180.676 823.026,180.72 L820.041,181.046 C819.933,181.059 819.834,181.115 819.767,181.202 L817.887,183.678 L816.967,183.685 L816.883,183.696 C816.846,183.704 816.677,183.743 816.491,183.897 C816.303,184.046 816.117,184.346 816.123,184.731 C816.12,185.478 816.376,185.99 816.66,186.287 C816.689,186.32 816.718,186.348 816.747,186.375 L815.523,187.603 C815.333,187.551 815.023,187.444 814.733,187.242 C814.362,186.979 814.023,186.595 813.912,185.923 C813.85,185.534 813.829,185.213 813.829,184.959 C813.829,184.688 813.853,184.493 813.878,184.358 C813.882,184.353 813.888,184.351 813.892,184.346 C813.892,184.345 814.072,184.17 814.354,183.9 L816.045,183.322 C816.253,183.251 816.365,183.024 816.293,182.816 z M795.307,224.696 C795.532,224.741 795.742,224.761 795.938,224.761 C796.643,224.763 797.157,224.494 797.468,224.22 C797.783,223.946 797.914,223.677 797.93,223.646 L797.932,223.642 C797.932,223.641 797.933,223.64 797.933,223.64 C797.935,223.635 797.938,223.628 797.942,223.619 L797.964,223.565 L810.132,195.112 C810.157,195.301 810.213,195.669 810.266,195.847 C810.454,199.043 811.188,201.282 811.958,203.001 C812.404,203.995 812.859,204.755 813.214,205.29 C813.393,205.558 813.546,205.772 813.659,205.926 C813.698,205.979 813.733,206.024 813.761,206.063 L810.923,215.864 C810.878,216.019 810.932,216.187 811.057,216.288 L811.734,216.824 C811.734,216.824 811.819,216.904 811.779,217.051 C811.739,217.198 808.622,228.702 808.622,228.702 L798.727,240.064 C797.995,239.457 795.846,237.469 793.007,233.057 C790.534,229.217 789.795,226.795 789.801,225.414 C789.802,224.727 789.972,224.309 790.175,224.051 C790.178,224.047 790.181,224.045 790.184,224.042 L790.194,224.027 C790.206,224.013 790.219,223.997 790.23,223.983 C790.457,223.731 790.734,223.643 790.945,223.643 C790.97,223.643 790.996,223.645 791.02,223.648 C792.121,223.775 793.676,224.373 795.307,224.696 z M789.976,213.838 L809.763,193.83 L797.9,221.679 C797.724,221.213 797.411,220.706 796.891,220.204 C795.782,219.127 791.21,214.962 789.976,213.838 z M796.334,220.777 C797.148,221.574 797.294,222.266 797.299,222.735 C797.299,222.923 797.272,223.076 797.247,223.177 C797.234,223.227 797.222,223.264 797.214,223.286 C797.211,223.292 797.21,223.297 797.208,223.3 C797.172,223.355 796.853,223.961 795.938,223.961 C795.797,223.961 795.639,223.947 795.461,223.912 C793.913,223.611 792.384,223.011 791.12,222.854 C791.099,222.851 791.074,222.852 791.052,222.85 L794.089,218.684 C795.081,219.597 795.94,220.396 796.334,220.777 z M796.665,244.379 C796.606,244.33 796.503,244.16 796.555,244.033 C796.576,243.979 796.606,243.922 796.638,243.862 C796.811,243.543 797.09,243.17 797.324,242.888 C797.737,243.779 798.735,245.505 800.842,247.364 C799.387,246.463 797.994,245.467 796.665,244.379 z M858.04,198.695 C856.029,193.949 853.162,189.693 849.505,186.036 C845.851,182.386 841.594,179.514 836.854,177.507 C831.946,175.435 826.731,174.386 821.363,174.386 C815.986,174.386 810.774,175.435 805.864,177.507 C801.123,179.514 796.87,182.388 793.21,186.036 C789.558,189.693 786.689,193.949 784.687,198.696 C782.606,203.6 781.553,208.815 781.553,214.182 C781.553,219.559 782.606,224.778 784.687,229.679 C786.689,234.417 789.558,238.675 793.21,242.331 C796.87,245.983 801.123,248.856 805.863,250.861 C807.349,251.49 808.863,252.024 810.4,252.463 C810.414,252.466 810.426,252.471 810.44,252.475 C811.211,252.717 811.995,252.908 812.782,253.062 C815.58,253.678 818.447,253.988 821.363,253.988 C823.139,253.988 824.897,253.871 826.634,253.641 C826.639,253.641 826.643,253.641 826.647,253.641 C827.659,253.584 828.372,253.431 828.841,253.287 C831.582,252.766 834.262,251.958 836.854,250.861 C841.594,248.856 845.851,245.983 849.505,242.331 L849.222,242.048 L849.505,242.331 C853.162,238.675 856.029,234.417 858.04,229.679 C860.11,224.778 861.162,219.559 861.162,214.182 C861.162,208.815 860.11,203.6 858.04,198.695" fill="#FFFFFE"/>
      <path d="M775.857,217.576 C776.316,217.517 776.709,217.521 777.037,217.589 C777.366,217.658 777.643,217.792 777.87,217.992 C778.098,218.192 778.278,218.46 778.411,218.794 C778.544,219.126 778.641,219.528 778.703,219.998 C778.755,220.4 778.76,220.771 778.719,221.111 C778.677,221.451 778.577,221.751 778.414,222.013 C778.254,222.272 778.03,222.487 777.742,222.655 C777.455,222.824 776.77,222.969 776.77,222.969 C776.704,222.983 776.597,223 776.532,223.008 L773.004,223.471 C772.939,223.479 772.882,223.54 772.878,223.607 L772.849,224.127 C772.844,224.193 772.787,224.255 772.722,224.263 L772.565,224.284 C772.5,224.292 772.438,224.246 772.43,224.179 L772.119,221.804 C772.111,221.737 772.158,221.678 772.223,221.669 L772.38,221.647 C772.445,221.639 772.516,221.684 772.537,221.747 L772.698,222.232 C772.719,222.296 772.791,222.341 772.856,222.331 L776.805,221.817 C777.288,221.753 777.65,221.559 777.891,221.234 C778.133,220.907 778.217,220.462 778.142,219.89 C778.065,219.3 777.865,218.892 777.541,218.662 C777.218,218.433 776.235,218.441 776.235,218.441 C776.169,218.441 776.06,218.449 775.995,218.459 L772.411,218.927 C772.345,218.935 772.287,218.997 772.284,219.063 L772.254,219.583 C772.25,219.649 772.193,219.71 772.126,219.719 L771.971,219.739 C771.905,219.748 771.844,219.701 771.836,219.635 L771.558,217.504 C771.549,217.438 771.595,217.378 771.661,217.368 L771.817,217.349 C771.882,217.34 771.954,217.385 771.975,217.447 L772.138,217.943 C772.158,218.006 772.229,218.05 772.294,218.042 L775.857,217.576" fill="#FFFFFE"/>
      <path d="M771.598,212.052 C771.603,211.985 771.655,211.902 771.711,211.87 L776.694,208.901 L772.524,208.594 C772.458,208.59 772.389,208.637 772.371,208.702 L772.237,209.195 C772.22,209.26 772.151,209.307 772.086,209.303 L771.928,209.291 C771.863,209.285 771.812,209.227 771.817,209.162 L771.972,207.113 C771.977,207.047 772.035,206.996 772.102,207.001 L772.259,207.014 C772.325,207.019 772.385,207.077 772.393,207.142 L772.451,207.661 C772.459,207.726 772.519,207.784 772.585,207.79 L778.49,208.238 C778.557,208.243 778.607,208.302 778.602,208.368 L778.558,208.949 C778.552,209.016 778.502,209.097 778.443,209.131 L772.688,212.508 L777.539,212.875 C777.604,212.88 777.673,212.833 777.691,212.768 L777.825,212.275 C777.842,212.21 777.911,212.161 777.977,212.167 L778.134,212.179 C778.201,212.184 778.25,212.242 778.245,212.307 L778.09,214.357 C778.085,214.423 778.027,214.474 777.96,214.469 L777.804,214.456 C777.737,214.451 777.677,214.393 777.67,214.328 L777.611,213.808 C777.604,213.744 777.544,213.685 777.477,213.68 L772.17,213.277 C772.103,213.273 772.034,213.32 772.018,213.386 L771.881,213.889 C771.864,213.952 771.796,214.001 771.729,213.995 L771.573,213.985 C771.507,213.98 771.456,213.92 771.461,213.854 L771.598,212.052" fill="#FFFFFE"/>
      <path d="M773.644,200.994 C773.709,201.01 773.758,201.077 773.755,201.144 L773.727,201.655 C773.723,201.722 773.772,201.789 773.838,201.806 L779.003,203.095 C779.067,203.112 779.143,203.076 779.171,203.015 L779.387,202.551 C779.415,202.491 779.489,202.455 779.555,202.47 L779.708,202.508 C779.772,202.525 779.811,202.591 779.795,202.655 L779.214,204.981 C779.198,205.045 779.132,205.084 779.068,205.067 L778.915,205.03 C778.851,205.013 778.801,204.946 778.805,204.879 L778.833,204.368 C778.836,204.302 778.787,204.235 778.721,204.217 L773.557,202.929 C773.493,202.912 773.417,202.948 773.389,203.008 L773.173,203.472 C773.145,203.533 773.07,203.569 773.005,203.553 L772.852,203.514 C772.788,203.499 772.749,203.434 772.765,203.369 L773.345,201.045 C773.361,200.979 773.428,200.941 773.492,200.957 L773.644,200.994" fill="#FFFFFE"/>
      <path d="M781.737,197.074 C781.784,197.12 781.803,197.209 781.776,197.27 L781.496,197.929 C781.47,197.991 781.394,198.037 781.328,198.033 L775.058,197.608 C774.992,197.604 774.906,197.646 774.867,197.698 L774.636,198.014 C774.597,198.068 774.516,198.09 774.454,198.065 L774.309,198.003 C774.248,197.978 774.219,197.906 774.245,197.845 L775.105,195.824 C775.132,195.762 775.203,195.734 775.264,195.759 L775.409,195.821 C775.471,195.847 775.51,195.922 775.499,195.987 L775.424,196.39 C775.412,196.456 775.455,196.513 775.523,196.519 L780.559,196.909 L776.861,193.371 C776.813,193.325 776.742,193.333 776.704,193.388 L776.427,193.795 C776.39,193.851 776.31,193.874 776.248,193.849 L776.103,193.787 C776.042,193.761 776.013,193.689 776.039,193.628 L776.814,191.808 C776.84,191.746 776.912,191.718 776.973,191.744 L777.117,191.806 C777.178,191.832 777.218,191.906 777.204,191.971 L777.106,192.446 C777.092,192.509 777.12,192.601 777.168,192.646 L781.737,197.074" fill="#FFFFFE"/>
      <path d="M794.333,179.869 C794.485,179.829 794.641,179.769 794.805,179.692 C794.967,179.615 795.099,179.538 795.201,179.464 C795.562,179.196 795.787,178.91 795.876,178.604 C795.965,178.299 795.902,178.001 795.687,177.712 C795.56,177.538 795.412,177.419 795.245,177.352 C795.078,177.287 794.901,177.253 794.714,177.249 C794.527,177.246 794.333,177.263 794.133,177.301 C793.933,177.338 793.733,177.371 793.535,177.401 C793.234,177.441 792.962,177.477 792.718,177.51 C792.472,177.54 792.25,177.543 792.048,177.519 C791.844,177.497 791.659,177.435 791.487,177.337 C791.317,177.24 791.155,177.086 790.999,176.877 C790.83,176.648 790.729,176.41 790.696,176.163 C790.662,175.916 790.69,175.668 790.776,175.419 C790.864,175.169 791.008,174.923 791.208,174.679 C791.41,174.436 791.661,174.204 791.961,173.981 C792.073,173.898 792.201,173.816 792.341,173.736 C792.482,173.655 792.625,173.578 792.772,173.505 C792.919,173.432 793.064,173.366 793.209,173.306 C793.354,173.247 793.488,173.205 793.488,173.205 C793.551,173.186 793.616,173.18 793.633,173.193 C793.65,173.207 793.69,173.267 793.723,173.324 L794.227,174.211 C794.26,174.269 794.243,174.35 794.189,174.39 L793.857,174.635 C793.804,174.673 793.718,174.671 793.668,174.629 L793.049,174.111 C792.939,174.113 792.812,174.142 792.666,174.199 C792.519,174.257 792.359,174.349 792.187,174.476 C791.876,174.706 791.682,174.96 791.608,175.241 C791.532,175.522 791.588,175.789 791.776,176.044 C791.896,176.207 792.027,176.319 792.167,176.381 C792.307,176.443 792.455,176.474 792.614,176.475 C792.772,176.477 792.937,176.459 793.106,176.424 C793.278,176.389 793.453,176.354 793.634,176.323 C793.884,176.289 794.145,176.248 794.417,176.2 C794.688,176.153 794.952,176.135 795.208,176.146 C795.464,176.156 795.706,176.208 795.931,176.302 C796.157,176.395 796.351,176.562 796.515,176.803 C796.722,177.115 796.839,177.413 796.867,177.695 C796.895,177.978 796.857,178.247 796.753,178.505 C796.649,178.763 796.482,179.013 796.254,179.252 C796.027,179.492 795.759,179.724 795.455,179.949 C795.179,180.152 794.892,180.328 794.592,180.476 C794.292,180.623 793.902,180.78 793.902,180.78 C793.84,180.806 793.777,180.814 793.763,180.798 C793.749,180.784 793.71,180.724 793.677,180.667 L793.167,179.783 C793.133,179.725 793.149,179.646 793.203,179.607 L793.536,179.361 C793.588,179.32 793.675,179.324 793.725,179.366 L794.333,179.869" fill="#FFFFFE"/>
      <path d="M799.105,170.053 C799.136,170.113 799.12,170.195 799.069,170.237 L798.672,170.56 C798.62,170.602 798.603,170.684 798.635,170.742 L801.156,175.432 C801.187,175.49 801.264,175.522 801.327,175.502 L801.816,175.349 C801.88,175.329 801.957,175.361 801.989,175.42 L802.064,175.558 C802.095,175.616 802.073,175.69 802.015,175.721 L799.904,176.856 C799.845,176.887 799.771,176.865 799.74,176.807 L799.666,176.668 C799.633,176.61 799.651,176.528 799.702,176.486 L800.099,176.161 C800.152,176.119 800.167,176.039 800.135,175.979 L797.615,171.292 C797.584,171.232 797.507,171.2 797.443,171.221 L796.955,171.372 C796.892,171.392 796.813,171.361 796.782,171.302 L796.707,171.165 C796.676,171.105 796.698,171.031 796.756,171 L798.867,169.865 C798.925,169.835 798.998,169.857 799.031,169.916 L799.105,170.053" fill="#FFFFFE"/>
      <path d="M801.726,168.522 C801.74,168.482 801.803,168.433 801.865,168.411 L806.792,166.619 C806.855,166.596 806.932,166.585 806.964,166.597 C806.995,166.608 807.041,166.667 807.066,166.728 L807.491,167.783 C807.516,167.844 807.485,167.913 807.422,167.936 L807.026,168.081 C806.964,168.103 806.882,168.077 806.844,168.021 L806.498,167.508 C806.461,167.452 806.378,167.422 806.314,167.442 L805.799,167.595 C805.735,167.613 805.632,167.646 805.569,167.67 L805.069,167.851 L806.918,172.943 C806.942,173.004 807.013,173.047 807.079,173.037 L807.585,172.955 C807.65,172.946 807.722,172.988 807.745,173.05 L807.799,173.198 C807.822,173.261 807.789,173.331 807.727,173.352 L805.476,174.171 C805.412,174.195 805.342,174.161 805.32,174.099 L805.267,173.951 C805.243,173.889 805.271,173.809 805.328,173.776 L805.768,173.513 C805.826,173.479 805.854,173.4 805.83,173.337 L803.978,168.246 L803.478,168.43 C803.415,168.453 803.315,168.493 803.253,168.521 L802.76,168.734 C802.7,168.761 802.655,168.837 802.661,168.904 L802.727,169.519 C802.734,169.585 802.688,169.658 802.625,169.681 L802.228,169.825 C802.166,169.847 802.099,169.814 802.078,169.75 L801.739,168.706 C801.718,168.643 801.714,168.56 801.726,168.522" fill="#FFFFFE"/>
      <path d="M812.189,166.319 L811.685,169.12 L813.541,168.769 L812.189,166.319 z M813.79,169.215 L811.588,169.632 L811.249,171.648 C811.238,171.713 811.284,171.768 811.35,171.77 L811.805,171.778 C811.873,171.778 811.937,171.833 811.949,171.9 L811.978,172.054 C811.991,172.118 811.948,172.182 811.882,172.195 L809.956,172.558 C809.891,172.57 809.828,172.527 809.815,172.461 L809.786,172.307 C809.774,172.242 809.814,172.167 809.875,172.141 L810.269,171.973 C810.331,171.949 810.391,171.874 810.404,171.809 L811.619,165.478 C811.631,165.412 811.695,165.349 811.76,165.337 L812.604,165.177 C812.669,165.166 812.75,165.202 812.782,165.261 L815.915,170.765 C815.948,170.824 816.03,170.873 816.096,170.874 L816.514,170.888 C816.581,170.89 816.646,170.945 816.658,171.009 L816.687,171.165 C816.698,171.23 816.655,171.293 816.59,171.305 L814.385,171.722 C814.32,171.733 814.257,171.691 814.244,171.627 L814.215,171.472 C814.203,171.405 814.243,171.331 814.303,171.305 L814.698,171.138 C814.76,171.112 814.783,171.043 814.752,170.985 L813.79,169.215" fill="#FFFFFE"/>
      <path d="M819.885,170.573 C820.03,170.629 820.192,170.674 820.369,170.708 C820.546,170.742 820.699,170.758 820.825,170.757 C821.274,170.757 821.624,170.659 821.876,170.464 C822.128,170.27 822.255,169.993 822.253,169.632 C822.252,169.416 822.203,169.233 822.109,169.082 C822.013,168.929 821.89,168.797 821.741,168.684 C821.591,168.571 821.426,168.472 821.241,168.382 C821.058,168.294 820.876,168.203 820.7,168.109 C820.434,167.965 820.192,167.833 819.977,167.713 C819.761,167.595 819.578,167.466 819.43,167.327 C819.28,167.188 819.166,167.029 819.085,166.848 C819.006,166.668 818.965,166.449 818.964,166.189 C818.963,165.904 819.022,165.653 819.141,165.433 C819.261,165.215 819.429,165.03 819.647,164.88 C819.864,164.73 820.125,164.616 820.432,164.539 C820.738,164.462 821.078,164.424 821.451,164.421 C821.59,164.421 821.741,164.43 821.902,164.447 C822.064,164.466 822.225,164.489 822.386,164.517 C822.549,164.545 822.705,164.578 822.857,164.614 C823.009,164.651 823.142,164.697 823.142,164.697 C823.205,164.719 823.26,164.754 823.265,164.774 C823.27,164.795 823.269,164.866 823.261,164.933 L823.143,165.946 C823.136,166.012 823.075,166.067 823.009,166.067 L822.595,166.068 C822.529,166.07 822.461,166.016 822.446,165.952 L822.252,165.167 C822.163,165.105 822.042,165.054 821.89,165.013 C821.739,164.972 821.555,164.952 821.341,164.954 C820.954,164.955 820.648,165.047 820.421,165.228 C820.194,165.409 820.081,165.658 820.082,165.975 C820.083,166.178 820.122,166.345 820.199,166.479 C820.275,166.61 820.376,166.723 820.504,166.819 C820.631,166.913 820.773,166.996 820.932,167.068 C821.091,167.141 821.252,167.217 821.418,167.3 C821.639,167.418 821.873,167.539 822.121,167.662 C822.368,167.784 822.592,167.925 822.791,168.085 C822.991,168.246 823.156,168.431 823.282,168.64 C823.409,168.848 823.467,169.099 823.456,169.389 C823.439,169.763 823.359,170.072 823.214,170.316 C823.069,170.561 822.879,170.756 822.643,170.903 C822.406,171.049 822.125,171.151 821.799,171.21 C821.474,171.268 821.121,171.298 820.742,171.299 C820.4,171.301 820.065,171.273 819.736,171.214 C819.406,171.155 818.998,171.052 818.998,171.052 C818.934,171.036 818.879,171.006 818.877,170.986 C818.873,170.965 818.878,170.894 818.884,170.827 L818.994,169.813 C819.001,169.747 819.062,169.693 819.129,169.693 L819.542,169.69 C819.608,169.69 819.676,169.743 819.692,169.807 L819.885,170.573" fill="#FFFFFE"/>
      <path d="M837.684,168.482 C837.508,167.927 837.123,167.552 836.527,167.358 C835.925,167.163 835.392,167.234 834.924,167.568 C834.457,167.902 834.07,168.539 833.766,169.479 C833.458,170.43 833.39,171.184 833.563,171.739 C833.735,172.294 834.122,172.669 834.723,172.864 C835.325,173.059 835.86,172.99 836.328,172.655 C836.795,172.32 837.181,171.683 837.485,170.744 C837.794,169.793 837.86,169.039 837.684,168.482 z M837.087,173.266 C836.363,173.654 835.507,173.687 834.521,173.368 C834.045,173.213 833.643,173.006 833.315,172.747 C832.987,172.488 832.737,172.18 832.567,171.826 C832.395,171.47 832.307,171.071 832.302,170.626 C832.296,170.182 832.378,169.697 832.548,169.174 C832.726,168.626 832.955,168.168 833.234,167.798 C833.513,167.431 833.831,167.152 834.188,166.961 C834.546,166.77 834.939,166.666 835.367,166.648 C835.794,166.631 836.243,166.698 836.712,166.85 C837.182,167.002 837.583,167.209 837.913,167.469 C838.245,167.729 838.497,168.038 838.669,168.398 C838.842,168.757 838.932,169.16 838.94,169.609 C838.947,170.057 838.865,170.546 838.694,171.076 C838.347,172.149 837.811,172.878 837.087,173.266" fill="#FFFFFE"/>
      <path d="M840.99,175.219 C841.09,175.339 841.209,175.456 841.349,175.572 C841.488,175.686 841.613,175.773 841.724,175.833 C842.119,176.048 842.473,176.131 842.787,176.082 C843.101,176.033 843.346,175.85 843.518,175.532 C843.621,175.343 843.666,175.16 843.656,174.981 C843.645,174.802 843.601,174.628 843.525,174.455 C843.449,174.285 843.351,174.116 843.232,173.952 C843.113,173.786 842.999,173.62 842.888,173.451 C842.724,173.197 842.576,172.964 842.445,172.757 C842.313,172.549 842.215,172.348 842.151,172.154 C842.087,171.961 842.064,171.767 842.08,171.57 C842.096,171.373 842.168,171.161 842.29,170.933 C842.427,170.684 842.599,170.49 842.81,170.357 C843.018,170.221 843.255,170.14 843.518,170.114 C843.782,170.087 844.065,170.114 844.371,170.193 C844.677,170.273 844.993,170.402 845.321,170.58 C845.444,170.646 845.572,170.726 845.704,170.819 C845.837,170.912 845.968,171.012 846.095,171.113 C846.224,171.216 846.345,171.32 846.461,171.425 C846.576,171.531 846.671,171.634 846.671,171.634 C846.715,171.683 846.748,171.74 846.742,171.762 C846.737,171.782 846.701,171.844 846.663,171.899 L846.071,172.73 C846.032,172.785 845.953,172.802 845.895,172.772 L845.533,172.573 C845.473,172.543 845.439,172.464 845.457,172.399 L845.665,171.62 C845.617,171.522 845.536,171.418 845.423,171.309 C845.309,171.201 845.157,171.096 844.969,170.993 C844.629,170.809 844.316,170.742 844.029,170.792 C843.743,170.842 843.525,171.006 843.375,171.285 C843.278,171.462 843.231,171.628 843.234,171.78 C843.238,171.934 843.272,172.082 843.338,172.226 C843.404,172.369 843.489,172.51 843.593,172.652 C843.698,172.79 843.803,172.935 843.907,173.087 C844.044,173.297 844.192,173.517 844.349,173.742 C844.508,173.968 844.636,174.201 844.733,174.437 C844.831,174.674 844.886,174.915 844.899,175.159 C844.909,175.403 844.841,175.65 844.69,175.9 C844.495,176.219 844.276,176.45 844.032,176.596 C843.788,176.739 843.526,176.82 843.248,176.835 C842.971,176.85 842.675,176.805 842.361,176.698 C842.049,176.593 841.724,176.45 841.391,176.269 C841.09,176.107 840.811,175.92 840.551,175.711 C840.289,175.5 839.981,175.215 839.981,175.215 C839.932,175.168 839.898,175.116 839.907,175.096 C839.915,175.077 839.951,175.015 839.99,174.962 L840.574,174.125 C840.613,174.071 840.692,174.053 840.751,174.084 L841.112,174.281 C841.172,174.313 841.206,174.392 841.188,174.455 L840.99,175.219" fill="#FFFFFE"/>
      <path d="M847.906,179.583 C847.865,179.635 847.874,179.711 847.927,179.753 L848.745,180.394 C848.796,180.435 848.885,180.5 848.939,180.536 L849.374,180.836 C849.429,180.874 849.516,180.871 849.568,180.829 L850.1,180.4 C850.153,180.358 850.238,180.358 850.289,180.399 L850.622,180.66 C850.674,180.7 850.683,180.776 850.639,180.826 L849.932,181.666 C849.889,181.716 849.835,181.776 849.812,181.797 C849.788,181.819 849.725,181.803 849.674,181.762 L846.13,178.984 C846.078,178.943 846.068,178.867 846.11,178.815 L846.206,178.691 C846.247,178.638 846.33,178.621 846.388,178.651 L846.844,178.885 C846.903,178.915 846.985,178.897 847.026,178.845 L850.31,174.656 C850.351,174.603 850.35,174.519 850.306,174.469 L849.969,174.083 C849.926,174.032 849.924,173.948 849.965,173.896 L850.062,173.773 C850.102,173.722 850.18,173.711 850.231,173.752 L852.109,175.225 C852.161,175.266 852.171,175.342 852.13,175.395 L852.033,175.518 C851.992,175.571 851.91,175.588 851.851,175.558 L851.396,175.325 C851.336,175.293 851.253,175.312 851.214,175.364 L847.906,179.583" fill="#FFFFFE"/>
      <path d="M858.718,183.229 C858.851,182.662 858.71,182.142 858.295,181.673 C857.877,181.199 857.381,180.987 856.809,181.036 C856.236,181.086 855.579,181.437 854.839,182.09 C854.089,182.753 853.647,183.366 853.513,183.932 C853.378,184.497 853.519,185.016 853.938,185.492 C854.357,185.966 854.852,186.178 855.425,186.128 C855.997,186.078 856.654,185.728 857.394,185.074 C858.145,184.413 858.586,183.798 858.718,183.229 z M855.767,187.041 C854.946,187.005 854.194,186.599 853.507,185.82 C853.177,185.444 852.937,185.063 852.786,184.672 C852.635,184.282 852.578,183.891 852.611,183.499 C852.646,183.107 852.773,182.718 852.995,182.331 C853.217,181.946 853.534,181.572 853.946,181.209 C854.379,180.826 854.809,180.548 855.236,180.374 C855.664,180.198 856.081,180.121 856.486,180.139 C856.89,180.157 857.281,180.268 857.659,180.471 C858.036,180.674 858.388,180.96 858.714,181.33 C859.041,181.7 859.279,182.082 859.432,182.474 C859.585,182.867 859.643,183.262 859.61,183.659 C859.576,184.055 859.447,184.449 859.226,184.839 C859.004,185.229 858.684,185.607 858.266,185.977 C857.421,186.72 856.588,187.076 855.767,187.041" fill="#FFFFFE"/>
      <path d="M861.44,191.218 C861.489,191.176 861.503,191.093 861.469,191.036 L860.748,189.81 L858.376,191.239 L859.152,192.545 C859.185,192.602 859.244,192.693 859.28,192.748 L859.578,193.184 C859.615,193.24 859.698,193.268 859.761,193.247 L860.409,193.033 C860.472,193.013 860.552,193.042 860.585,193.099 L860.806,193.47 C860.84,193.528 860.82,193.601 860.762,193.633 L859.799,194.16 C859.74,194.193 859.668,194.228 859.639,194.24 C859.608,194.25 859.557,194.213 859.523,194.156 L857.03,189.959 C856.996,189.902 857.015,189.826 857.072,189.794 L857.206,189.713 C857.265,189.678 857.347,189.691 857.392,189.741 L857.731,190.124 C857.775,190.174 857.859,190.187 857.915,190.153 L862.493,187.435 C862.55,187.4 862.578,187.321 862.556,187.258 L862.382,186.777 C862.36,186.714 862.388,186.636 862.445,186.602 L862.58,186.522 C862.637,186.488 862.711,186.507 862.745,186.563 L865.122,190.565 C865.156,190.622 865.182,190.697 865.178,190.734 C865.175,190.769 865.126,190.828 865.07,190.863 L864.114,191.476 C864.058,191.513 863.984,191.495 863.951,191.437 L863.735,191.074 C863.701,191.018 863.712,190.934 863.76,190.888 L864.279,190.399 C864.328,190.354 864.342,190.268 864.311,190.209 L864.066,189.729 C864.036,189.671 863.982,189.577 863.948,189.519 L863.249,188.335 L861.151,189.586 L861.875,190.806 C861.908,190.863 861.987,190.892 862.049,190.867 L862.528,190.688 C862.59,190.664 862.669,190.694 862.702,190.75 L862.884,191.055 C862.917,191.114 862.899,191.187 862.842,191.222 L861.294,192.141 C861.237,192.175 861.163,192.156 861.128,192.099 L860.947,191.793 C860.913,191.736 860.926,191.653 860.978,191.611 L861.44,191.218" fill="#FFFFFE"/>
      <path d="M783,188.381 C782.938,188.356 782.859,188.379 782.823,188.435 L782.041,189.623 L784.372,191.121 L785.201,189.848 C785.237,189.792 785.293,189.699 785.326,189.641 L785.587,189.183 C785.62,189.125 785.608,189.038 785.561,188.992 L785.084,188.504 C785.037,188.457 785.029,188.372 785.065,188.316 L785.301,187.954 C785.337,187.899 785.411,187.884 785.466,187.923 L786.364,188.555 C786.418,188.593 786.482,188.642 786.506,188.663 C786.529,188.685 786.518,188.749 786.482,188.804 L783.816,192.894 C783.78,192.949 783.704,192.965 783.649,192.929 L783.517,192.842 C783.461,192.806 783.437,192.727 783.461,192.665 L783.655,192.191 C783.681,192.129 783.655,192.05 783.599,192.013 L779.14,189.106 C779.084,189.07 779.001,189.08 778.955,189.127 L778.6,189.495 C778.553,189.543 778.469,189.552 778.414,189.516 L778.282,189.431 C778.226,189.393 778.211,189.319 778.247,189.263 L780.788,185.364 C780.825,185.308 780.882,185.252 780.916,185.24 C780.948,185.227 781.022,185.246 781.079,185.28 L782.051,185.867 C782.109,185.901 782.125,185.976 782.089,186.03 L781.859,186.384 C781.821,186.44 781.741,186.466 781.679,186.444 L781.011,186.195 C780.95,186.172 780.867,186.196 780.827,186.25 L780.506,186.681 C780.466,186.734 780.404,186.823 780.367,186.879 L779.613,188.029 L781.664,189.359 L782.439,188.171 C782.475,188.117 782.465,188.033 782.417,187.988 L782.044,187.638 C781.995,187.592 781.986,187.509 782.022,187.454 L782.216,187.156 C782.253,187.1 782.328,187.084 782.384,187.121 L783.892,188.103 C783.948,188.14 783.964,188.216 783.927,188.27 L783.733,188.569 C783.696,188.625 783.617,188.649 783.556,188.622 L783,188.381" fill="#FFFFFE"/>
      <path d="M867.821,196.448 C867.842,196.511 867.828,196.607 867.788,196.66 L864.391,201.367 L868.344,199.989 C868.407,199.967 868.451,199.896 868.442,199.831 L868.368,199.323 C868.359,199.256 868.402,199.186 868.465,199.164 L868.614,199.113 C868.677,199.091 868.747,199.125 868.768,199.189 L869.439,201.129 C869.461,201.192 869.427,201.261 869.364,201.284 L869.216,201.334 C869.153,201.355 869.075,201.327 869.041,201.269 L868.782,200.816 C868.749,200.76 868.671,200.729 868.608,200.752 L863.011,202.687 C862.948,202.709 862.879,202.674 862.857,202.612 L862.667,202.061 C862.646,201.997 862.66,201.903 862.699,201.848 L866.642,196.46 L862.042,198.052 C861.979,198.075 861.936,198.145 861.945,198.212 L862.018,198.719 C862.027,198.785 861.984,198.856 861.921,198.877 L861.772,198.928 C861.709,198.952 861.639,198.917 861.618,198.855 L860.947,196.913 C860.925,196.851 860.959,196.78 861.022,196.759 L861.17,196.708 C861.233,196.685 861.311,196.715 861.344,196.774 L861.604,197.224 C861.637,197.283 861.715,197.312 861.778,197.291 L866.809,195.55 C866.872,195.528 866.915,195.458 866.906,195.392 L866.831,194.877 C866.821,194.81 866.864,194.738 866.927,194.717 L867.076,194.664 C867.138,194.643 867.208,194.677 867.229,194.739 L867.821,196.448" fill="#FFFFFE"/>
      <path d="M864.328,206.629 C864.293,206.78 864.269,206.946 864.26,207.127 C864.252,207.307 864.255,207.46 864.274,207.585 C864.338,208.029 864.483,208.362 864.71,208.586 C864.937,208.809 865.23,208.894 865.587,208.843 C865.801,208.813 865.974,208.74 866.112,208.623 C866.249,208.508 866.363,208.368 866.454,208.206 C866.545,208.042 866.622,207.864 866.684,207.67 C866.746,207.476 866.811,207.282 866.88,207.094 C866.985,206.811 867.083,206.553 867.172,206.324 C867.261,206.094 867.364,205.896 867.479,205.728 C867.597,205.562 867.738,205.426 867.906,205.321 C868.073,205.219 868.286,205.147 868.542,205.11 C868.824,205.07 869.082,205.094 869.315,205.182 C869.549,205.269 869.755,205.411 869.933,205.605 C870.111,205.8 870.259,206.044 870.378,206.337 C870.498,206.63 870.584,206.961 870.636,207.33 C870.656,207.469 870.669,207.618 870.673,207.78 C870.677,207.943 870.677,208.106 870.671,208.269 C870.666,208.433 870.655,208.593 870.64,208.747 C870.624,208.905 870.597,209.041 870.597,209.041 C870.584,209.108 870.557,209.167 870.537,209.176 C870.517,209.184 870.447,209.192 870.381,209.192 L869.359,209.216 C869.293,209.218 869.231,209.165 869.222,209.099 L869.163,208.691 C869.154,208.625 869.196,208.55 869.258,208.525 L870.007,208.225 C870.057,208.13 870.093,208.004 870.111,207.847 C870.131,207.691 870.124,207.506 870.094,207.293 C870.039,206.911 869.906,206.62 869.696,206.421 C869.484,206.22 869.222,206.144 868.908,206.19 C868.708,206.218 868.547,206.28 868.427,206.373 C868.305,206.468 868.207,206.584 868.132,206.723 C868.056,206.861 867.993,207.015 867.942,207.182 C867.893,207.348 867.84,207.519 867.783,207.693 C867.694,207.929 867.607,208.179 867.52,208.44 C867.432,208.702 867.324,208.942 867.192,209.164 C867.061,209.383 866.9,209.57 866.712,209.725 C866.523,209.881 866.284,209.973 865.993,210.002 C865.621,210.037 865.303,210 865.042,209.89 C864.78,209.78 864.561,209.618 864.382,209.406 C864.204,209.191 864.064,208.927 863.961,208.612 C863.858,208.299 863.78,207.953 863.725,207.578 C863.677,207.239 863.659,206.903 863.672,206.569 C863.684,206.234 863.73,205.817 863.73,205.817 C863.737,205.751 863.759,205.691 863.78,205.686 C863.8,205.68 863.87,205.675 863.938,205.673 L864.957,205.641 C865.023,205.639 865.086,205.693 865.094,205.758 L865.154,206.165 C865.163,206.232 865.12,206.308 865.059,206.331 L864.328,206.629" fill="#FFFFFE"/>
      <path d="M870.718,215.598 C870.652,215.598 870.586,215.545 870.573,215.48 L870.474,214.977 C870.461,214.913 870.396,214.859 870.331,214.859 L865.007,214.882 C864.94,214.882 864.875,214.936 864.863,215.001 L864.769,215.504 C864.757,215.57 864.693,215.623 864.625,215.623 L864.469,215.625 C864.402,215.625 864.347,215.571 864.347,215.503 L864.337,213.109 C864.336,213.043 864.391,212.987 864.457,212.987 L864.615,212.987 C864.681,212.985 864.745,213.039 864.758,213.104 L864.857,213.606 C864.87,213.672 864.936,213.725 865.002,213.724 L870.325,213.702 C870.391,213.701 870.457,213.648 870.468,213.583 L870.562,213.079 C870.575,213.013 870.64,212.96 870.705,212.96 L870.863,212.959 C870.929,212.959 870.984,213.013 870.984,213.079 L870.995,215.475 C870.995,215.542 870.941,215.597 870.875,215.597 L870.718,215.598" fill="#FFFFFE"/>
      <path d="M864.626,219.652 C864.548,219.786 864.478,219.937 864.415,220.108 C864.354,220.277 864.314,220.424 864.294,220.55 C864.224,220.994 864.264,221.355 864.416,221.635 C864.568,221.915 864.821,222.083 865.178,222.139 C865.392,222.172 865.58,222.154 865.745,222.083 C865.91,222.014 866.06,221.914 866.195,221.784 C866.331,221.656 866.457,221.507 866.572,221.339 C866.688,221.172 866.807,221.008 866.928,220.848 C867.114,220.607 867.282,220.392 867.435,220.197 C867.586,220.003 867.743,219.844 867.904,219.719 C868.065,219.592 868.24,219.506 868.43,219.455 C868.621,219.405 868.845,219.401 869.1,219.44 C869.383,219.485 869.622,219.584 869.818,219.736 C870.017,219.888 870.171,220.083 870.285,220.322 C870.397,220.561 870.468,220.839 870.495,221.153 C870.523,221.468 870.508,221.81 870.45,222.177 C870.429,222.315 870.395,222.462 870.352,222.619 C870.308,222.776 870.259,222.931 870.207,223.087 C870.153,223.241 870.096,223.389 870.035,223.534 C869.973,223.678 869.908,223.802 869.908,223.802 C869.878,223.861 869.833,223.911 869.812,223.913 C869.791,223.914 869.721,223.9 869.657,223.883 L868.675,223.605 C868.61,223.586 868.567,223.519 868.577,223.452 L868.642,223.044 C868.652,222.979 868.714,222.921 868.782,222.915 L869.586,222.849 C869.661,222.772 869.731,222.661 869.796,222.517 C869.86,222.374 869.908,222.196 869.942,221.982 C870.001,221.602 869.961,221.286 869.817,221.032 C869.675,220.779 869.447,220.627 869.133,220.579 C868.933,220.548 868.762,220.558 868.618,220.613 C868.476,220.668 868.347,220.751 868.234,220.86 C868.121,220.97 868.016,221.098 867.919,221.242 C867.823,221.387 867.721,221.535 867.613,221.685 C867.462,221.886 867.304,222.098 867.144,222.322 C866.984,222.547 866.809,222.746 866.618,222.917 C866.429,223.088 866.221,223.221 865.993,223.313 C865.768,223.407 865.512,223.424 865.226,223.366 C864.86,223.289 864.568,223.16 864.35,222.979 C864.131,222.796 863.969,222.578 863.862,222.321 C863.754,222.064 863.698,221.771 863.693,221.44 C863.687,221.109 863.712,220.756 863.772,220.381 C863.824,220.044 863.907,219.717 864.017,219.402 C864.127,219.087 864.294,218.7 864.294,218.7 C864.319,218.638 864.358,218.589 864.38,218.589 C864.401,218.59 864.471,218.606 864.535,218.622 L865.518,218.894 C865.582,218.91 865.625,218.979 865.616,219.046 L865.552,219.453 C865.541,219.52 865.478,219.577 865.413,219.584 L864.626,219.652" fill="#FFFFFE"/>
      <path d="M792.788,253.932 C792.847,253.96 792.927,253.938 792.964,253.882 L795.705,249.945 L790.601,252.836 C790.544,252.868 790.454,252.861 790.403,252.819 L790.199,252.654 C790.147,252.611 790.118,252.523 790.136,252.46 L791.612,246.949 L788.513,250.323 C788.466,250.371 788.46,250.453 788.499,250.506 L788.81,250.928 C788.849,250.982 788.845,251.065 788.798,251.114 L788.693,251.229 C788.647,251.277 788.57,251.28 788.521,251.233 L787.011,249.827 C786.963,249.781 786.96,249.704 787.005,249.655 L787.113,249.542 C787.157,249.493 787.241,249.483 787.297,249.516 L787.732,249.792 C787.788,249.827 787.874,249.818 787.92,249.771 L791.424,245.883 C791.469,245.833 791.469,245.751 791.425,245.7 L791.094,245.306 C791.052,245.255 791.051,245.17 791.093,245.119 L791.191,244.998 C791.233,244.946 791.31,244.937 791.361,244.981 L792.942,246.264 C792.993,246.307 793.022,246.393 793.005,246.457 L791.749,251.308 L796.073,248.953 C796.131,248.92 796.22,248.928 796.272,248.97 L797.786,250.2 C797.838,250.242 797.846,250.319 797.803,250.371 L797.705,250.492 C797.663,250.544 797.58,250.561 797.523,250.528 L797.069,250.284 C797.011,250.253 796.93,250.272 796.89,250.323 L793.902,254.571 C793.865,254.625 793.872,254.709 793.916,254.76 L794.268,255.137 C794.313,255.186 794.318,255.269 794.278,255.322 L794.186,255.448 C794.147,255.502 794.072,255.514 794.018,255.475 L792.076,254.051 C792.022,254.013 792.009,253.936 792.05,253.882 L792.141,253.757 C792.181,253.702 792.262,253.681 792.322,253.71 L792.788,253.932" fill="#FFFFFE"/>
      <path d="M805.299,256.396 C805.365,256.028 805.356,255.697 805.274,255.398 C805.191,255.1 805.034,254.834 804.804,254.601 C804.574,254.365 804.004,254.023 804.004,254.023 C803.946,253.989 803.852,253.937 803.792,253.908 L803.188,253.595 L800.622,258.615 L801.198,258.911 C801.475,259.053 801.743,259.167 802.002,259.254 C802.261,259.34 802.511,259.38 802.749,259.374 C803.129,259.342 803.502,259.192 803.867,258.926 C804.231,258.657 804.566,258.225 804.872,257.629 C805.09,257.175 805.233,256.763 805.299,256.396 z M804.217,253.592 C804.686,253.832 805.096,254.102 805.446,254.402 C805.797,254.7 806.06,255.036 806.238,255.407 C806.415,255.779 806.493,256.192 806.472,256.645 C806.451,257.098 806.301,257.597 806.022,258.143 C805.76,258.655 805.454,259.062 805.103,259.366 C804.752,259.668 804.37,259.87 803.958,259.971 C803.546,260.073 803.107,260.082 802.641,260.002 C802.178,259.919 801.318,259.549 801.318,259.549 C801.256,259.522 801.158,259.476 801.098,259.446 L798.794,258.267 C798.735,258.238 798.711,258.163 798.742,258.105 L798.813,257.966 C798.842,257.908 798.919,257.873 798.983,257.893 L799.478,258.036 C799.542,258.056 799.619,258.022 799.649,257.963 L802.066,253.235 C802.096,253.176 802.078,253.095 802.026,253.052 L801.619,252.737 C801.568,252.696 801.549,252.613 801.579,252.556 L801.65,252.415 C801.681,252.356 801.754,252.332 801.813,252.363 L804.217,253.592" fill="#FFFFFE"/>
      <path d="M843.767,254.801 L840.837,253.472 C840.776,253.444 840.674,253.437 840.61,253.457 L840.17,253.594 C840.107,253.613 840.028,253.582 839.995,253.526 L839.918,253.388 C839.886,253.331 839.905,253.257 839.964,253.224 L842.072,252.024 C842.129,251.99 842.204,252.011 842.238,252.068 L842.315,252.205 C842.347,252.262 842.333,252.346 842.285,252.39 L842.024,252.631 C841.974,252.675 841.983,252.736 842.044,252.764 L844.132,253.758 L844.389,251.427 C844.396,251.359 844.35,251.322 844.287,251.342 L843.922,251.456 C843.858,251.477 843.779,251.446 843.747,251.389 L843.67,251.252 C843.637,251.195 843.657,251.12 843.714,251.088 L845.384,250.136 C845.442,250.104 845.516,250.125 845.549,250.181 L845.627,250.318 C845.66,250.374 845.646,250.458 845.596,250.503 L845.215,250.838 C845.165,250.882 845.117,250.971 845.111,251.037 L844.787,254.002 L848.034,255.514 C848.094,255.541 848.195,255.548 848.259,255.528 L848.708,255.386 C848.771,255.368 848.85,255.398 848.883,255.456 L848.96,255.592 C848.992,255.649 848.973,255.724 848.915,255.758 L846.798,256.963 C846.74,256.995 846.666,256.976 846.633,256.918 L846.556,256.782 C846.523,256.724 846.536,256.641 846.586,256.597 L846.87,256.34 C846.919,256.297 846.911,256.236 846.852,256.208 L844.413,255.04 L844.117,257.766 C844.109,257.833 844.155,257.87 844.218,257.853 L844.566,257.745 C844.63,257.726 844.709,257.757 844.742,257.814 L844.82,257.951 C844.852,258.008 844.832,258.082 844.775,258.115 L843.097,259.071 C843.038,259.104 842.965,259.083 842.931,259.027 L842.855,258.891 C842.821,258.833 842.835,258.749 842.885,258.705 L843.266,258.37 C843.316,258.327 843.364,258.237 843.371,258.17 L843.767,254.801" fill="#FFFFFE"/>
      <path d="M851.029,245.891 C851.072,245.941 851.076,246.025 851.035,246.077 L850.719,246.484 C850.679,246.536 850.681,246.622 850.726,246.671 L854.238,250.652 C854.281,250.702 854.364,250.715 854.421,250.681 L854.865,250.42 C854.922,250.386 855.005,250.399 855.048,250.449 L855.152,250.566 C855.196,250.615 855.19,250.692 855.141,250.736 L853.336,252.328 C853.285,252.373 853.21,252.368 853.165,252.318 L853.061,252.201 C853.018,252.152 853.016,252.068 853.056,252.015 L853.372,251.608 C853.412,251.556 853.409,251.472 853.365,251.421 L849.854,247.44 C849.809,247.39 849.727,247.376 849.669,247.41 L849.226,247.672 C849.169,247.706 849.086,247.693 849.041,247.643 L848.938,247.526 C848.894,247.476 848.899,247.4 848.949,247.356 L850.755,245.763 C850.805,245.718 850.882,245.724 850.925,245.773 L851.029,245.891" fill="#FFFFFE"/>
      <path d="M787.046,182.823 C786.999,182.872 786.965,182.902 786.965,182.902 L785.049,181.088 L785.392,180.732 C785.438,180.683 785.515,180.606 785.562,180.561 C785.562,180.561 785.771,180.357 785.918,180.247 C786.065,180.139 786.216,180.068 786.369,180.036 C786.523,180.003 786.681,180.013 786.844,180.067 C787.006,180.122 787.174,180.233 787.348,180.397 C787.729,180.76 787.91,181.113 787.889,181.456 C787.869,181.798 787.432,182.395 787.432,182.395 C787.393,182.448 787.324,182.531 787.278,182.579 L787.046,182.823 z M791.143,183.498 C791.207,183.508 791.299,183.48 791.345,183.431 L792.349,182.377 C792.394,182.328 792.393,182.251 792.344,182.205 L792.231,182.097 C792.182,182.05 792.099,182.044 792.044,182.083 L791.661,182.348 C791.608,182.386 791.508,182.409 791.443,182.398 L788.445,181.91 C788.38,181.9 788.35,181.842 788.378,181.782 C788.378,181.782 788.744,180.99 788.729,180.579 C788.715,180.167 788.531,179.794 788.178,179.458 C787.925,179.218 787.672,179.078 787.415,179.039 C787.159,179.001 786.909,179.027 786.665,179.119 C786.422,179.209 786.187,179.346 785.96,179.528 C785.734,179.71 785.414,180.026 785.414,180.026 C785.366,180.073 785.289,180.15 785.244,180.198 L783.481,182.05 C783.436,182.099 783.437,182.176 783.485,182.222 L783.599,182.33 C783.647,182.376 783.731,182.382 783.785,182.343 L784.208,182.04 C784.262,182 784.346,182.006 784.394,182.051 L788.251,185.722 C788.298,185.768 788.308,185.851 788.273,185.907 L787.99,186.344 C787.953,186.4 787.963,186.483 788.011,186.53 L788.126,186.639 C788.174,186.684 788.251,186.682 788.296,186.634 L789.948,184.898 C789.993,184.85 789.992,184.773 789.944,184.727 L789.83,184.618 C789.782,184.573 789.699,184.568 789.644,184.606 L789.228,184.904 C789.174,184.941 789.09,184.937 789.042,184.89 L787.265,183.2 L787.528,182.922 C787.575,182.874 787.665,182.845 787.731,182.858 L791.143,183.498" fill="#FFFFFE"/>
    </g>
    <text transform="matrix(1, 0, 0, 1, 135.068, 148.507)">
      <tspan x="-90.325" y="13.167" font-family="HelveticaNeue-Light" font-size="50" fill="#000000">Temaer i </tspan>
    </text>
    <text transform="matrix(1, 0, 0, 1, 305.255, 221.363)">
      <tspan x="-264.088" y="31.667" font-family="HelveticaNeue-Light" font-size="88" fill="#000000">Generell kjemi</tspan>
    </text>
  </g>
</svg>
