<?xml version="1.0" encoding="UTF-8"?>
<!DOCTYPE svg PUBLIC "-//W3C//DTD SVG 1.1//EN" "http://www.w3.org/Graphics/SVG/1.1/DTD/svg11.dtd">
<svg version="1.1" xmlns="http://www.w3.org/2000/svg" xmlns:xlink="http://www.w3.org/1999/xlink" x="0" y="0" width="647" height="106" viewBox="0, 0, 647, 106">
  <g id="Layer_1">
    <path d="M220.296,38.433 C220.394,38.892 220.45,39.381 220.45,39.871 C220.45,43.533 217.48,46.495 213.826,46.495 C210.167,46.495 207.199,43.533 207.199,39.871 C207.199,36.209 210.167,33.241 213.826,33.241 C216.991,33.241 219.632,35.462 220.296,38.433" fill="#D8262D"/>
    <path d="M220.296,54.648 C220.394,55.109 220.45,55.594 220.45,56.087 C220.45,59.749 217.48,62.719 213.826,62.719 C210.167,62.719 207.199,59.749 207.199,56.087 C207.199,52.426 210.167,49.463 213.826,49.463 C216.991,49.463 219.632,51.681 220.296,54.648" fill="#D8262D"/>
    <path d="M240.559,33.467 L240.559,51.504 C240.559,55.823 242.159,57.902 246.118,57.902 C250.118,57.902 251.717,55.863 251.717,51.504 L251.717,33.467 L257.636,33.467 L257.636,52.144 C257.636,59.262 253.517,63.102 246.158,63.102 C238.72,63.102 234.6,59.262 234.6,52.144 L234.6,33.467 L240.559,33.467" fill="#FFFFFE"/>
    <path d="M262.62,41.065 L268.179,41.065 L268.179,43.585 C269.779,41.546 271.938,40.505 274.618,40.505 C279.297,40.505 281.617,42.945 281.617,47.824 L281.617,62.302 L275.938,62.302 L275.938,49.464 C275.938,46.584 275.098,45.225 272.659,45.225 C270.019,45.225 268.299,46.904 268.299,49.704 L268.299,62.302 L262.62,62.302 L262.62,41.065" fill="#FFFFFE"/>
    <path d="M286.208,41.065 L291.887,41.065 L291.887,62.301 L286.208,62.301 z M286.208,33.546 L291.887,33.546 L291.887,38.705 L286.208,38.705 z" fill="#FFFFFE"/>
    <path d="M294.243,41.065 L300.522,41.065 L304.881,56.303 L309.281,41.065 L315.279,41.065 L307.681,62.302 L301.882,62.302 L294.243,41.065" fill="#FFFFFE"/>
    <path d="M330.073,49.464 C329.993,46.584 328.513,45.065 325.874,45.065 C323.434,45.065 321.954,46.584 321.714,49.464 L330.073,49.464 z M335.672,55.863 C334.512,60.302 330.873,63.021 325.833,63.021 C319.794,63.021 315.835,58.702 315.835,51.544 C315.835,44.585 319.635,40.306 325.753,40.306 C332.232,40.306 335.952,44.385 335.952,51.704 C335.952,52.184 335.952,52.664 335.912,53.183 L321.714,53.183 C321.875,56.503 323.354,58.223 326.114,58.223 C328.033,58.223 329.273,57.503 329.993,55.863 L335.672,55.863" fill="#FFFFFE"/>
    <path d="M339.507,41.065 L344.786,41.065 L344.786,44.705 C346.266,41.785 348.186,40.465 350.905,40.465 C351.185,40.465 351.465,40.465 351.745,40.505 L351.745,46.265 L349.865,46.265 C346.786,46.265 345.186,47.864 345.186,51.064 L345.186,62.302 L339.507,62.302 L339.507,41.065" fill="#FFFFFE"/>
    <path d="M359.105,55.383 C359.186,57.543 360.625,58.583 363.544,58.583 C365.824,58.583 367.024,57.783 367.024,56.463 C367.024,54.623 365.184,54.743 361.425,53.783 C356.426,52.503 354.066,50.984 354.066,47.384 C354.066,43.105 357.346,40.306 362.785,40.306 C368.504,40.306 371.863,42.985 372.063,47.545 L366.544,47.545 C366.464,45.745 365.145,44.705 362.825,44.705 C360.665,44.705 359.625,45.345 359.625,46.665 C359.625,48.144 361.385,48.304 365.424,49.264 C370.343,50.424 372.743,51.784 372.743,55.623 C372.743,60.422 369.304,63.021 362.785,63.021 C356.866,63.021 353.426,60.182 353.426,55.623 C353.426,55.543 353.426,55.463 353.426,55.383 L359.105,55.383" fill="#FFFFFE"/>
    <path d="M376.314,41.065 L381.993,41.065 L381.993,62.301 L376.314,62.301 z M376.314,33.546 L381.993,33.546 L381.993,38.705 L376.314,38.705 z" fill="#FFFFFE"/>
    <path d="M393.053,62.582 C388.373,62.582 387.373,60.982 387.373,56.543 L387.373,45.065 L384.574,45.065 L384.574,41.065 L387.373,41.065 L387.373,35.266 L393.013,35.266 L393.013,41.065 L396.292,41.065 L396.292,45.065 L393.013,45.065 L393.013,56.823 C393.013,57.942 393.372,58.183 394.893,58.183 L396.292,58.183 L396.292,62.462 C394.732,62.502 393.652,62.582 393.053,62.582" fill="#FFFFFE"/>
    <path d="M412.147,49.464 C412.067,46.584 410.588,45.065 407.948,45.065 C405.508,45.065 404.028,46.584 403.788,49.464 L412.147,49.464 z M417.746,55.863 C416.586,60.302 412.947,63.021 407.908,63.021 C401.869,63.021 397.909,58.702 397.909,51.544 C397.909,44.585 401.709,40.306 407.828,40.306 C414.307,40.306 418.026,44.385 418.026,51.704 C418.026,52.184 418.026,52.664 417.986,53.183 L403.788,53.183 C403.948,56.503 405.429,58.223 408.188,58.223 C410.107,58.223 411.348,57.503 412.067,55.863 L417.746,55.863" fill="#FFFFFE"/>
    <path d="M427.729,62.582 C423.049,62.582 422.049,60.982 422.049,56.543 L422.049,45.065 L419.25,45.065 L419.25,41.065 L422.049,41.065 L422.049,35.266 L427.688,35.266 L427.688,41.065 L430.968,41.065 L430.968,45.065 L427.688,45.065 L427.688,56.823 C427.688,57.942 428.048,58.183 429.568,58.183 L430.968,58.183 L430.968,62.462 C429.408,62.502 428.328,62.582 427.729,62.582" fill="#FFFFFE"/>
    <path d="M438.637,55.383 C438.717,57.543 440.156,58.583 443.076,58.583 C445.355,58.583 446.556,57.783 446.556,56.463 C446.556,54.623 444.716,54.743 440.956,53.783 C435.957,52.503 433.598,50.984 433.598,47.384 C433.598,43.105 436.877,40.306 442.316,40.306 C448.035,40.306 451.395,42.985 451.595,47.545 L446.075,47.545 C445.995,45.745 444.676,44.705 442.355,44.705 C440.196,44.705 439.156,45.345 439.156,46.665 C439.156,48.144 440.916,48.304 444.955,49.264 C449.875,50.424 452.274,51.784 452.274,55.623 C452.274,60.422 448.835,63.021 442.316,63.021 C436.396,63.021 432.957,60.182 432.957,55.623 C432.957,55.543 432.957,55.463 432.957,55.383 L438.637,55.383" fill="#FFFFFE"/>
    <path d="M466.079,45.265 C463.079,45.265 461.319,47.504 461.319,51.544 C461.319,55.903 462.96,58.143 465.959,58.143 C468.998,58.143 470.679,55.863 470.679,51.544 C470.679,47.585 468.879,45.265 466.079,45.265 z M461.319,33.546 L461.319,43.705 C462.72,41.505 464.879,40.345 467.599,40.345 C472.558,40.345 476.317,44.785 476.317,51.784 C476.317,58.583 472.678,63.021 467.519,63.021 C464.759,63.021 462.84,61.902 461.2,59.422 L461.2,62.302 L455.801,62.302 L455.801,33.546 L461.319,33.546" fill="#FFFFFE"/>
    <path d="M479.984,41.065 L485.663,41.065 L485.663,62.301 L479.984,62.301 z M479.984,33.546 L485.663,33.546 L485.663,38.705 L479.984,38.705 z" fill="#FFFFFE"/>
    <path d="M500.599,45.265 C497.599,45.265 495.839,47.504 495.839,51.544 C495.839,55.903 497.479,58.143 500.479,58.143 C503.518,58.143 505.198,55.863 505.198,51.544 C505.198,47.585 503.398,45.265 500.599,45.265 z M495.839,33.546 L495.839,43.705 C497.239,41.505 499.398,40.345 502.118,40.345 C507.077,40.345 510.837,44.785 510.837,51.784 C510.837,58.583 507.197,63.021 502.038,63.021 C499.278,63.021 497.359,61.902 495.72,59.422 L495.72,62.302 L490.32,62.302 L490.32,33.546 L495.839,33.546" fill="#FFFFFE"/>
    <path d="M514.544,33.546 L520.223,33.546 L520.223,62.301 L514.544,62.301 z" fill="#FFFFFE"/>
    <path d="M524.9,41.065 L530.579,41.065 L530.579,62.301 L524.9,62.301 z M524.9,33.546 L530.579,33.546 L530.579,38.705 L524.9,38.705 z" fill="#FFFFFE"/>
    <path d="M544.942,58.262 C548.102,58.262 549.901,55.903 549.901,51.664 C549.901,47.424 548.102,45.105 544.942,45.105 C541.782,45.105 539.943,47.424 539.943,51.664 C539.943,55.903 541.782,58.262 544.942,58.262 z M544.942,40.306 C551.621,40.306 555.7,44.585 555.7,51.664 C555.7,58.742 551.621,63.021 544.942,63.021 C538.264,63.021 534.184,58.742 534.184,51.664 C534.184,44.585 538.264,40.306 544.942,40.306" fill="#FFFFFE"/>
    <path d="M565.398,62.582 C560.719,62.582 559.719,60.982 559.719,56.543 L559.719,45.065 L556.92,45.065 L556.92,41.065 L559.719,41.065 L559.719,35.266 L565.358,35.266 L565.358,41.065 L568.638,41.065 L568.638,45.065 L565.358,45.065 L565.358,56.823 C565.358,57.942 565.718,58.183 567.238,58.183 L568.638,58.183 L568.638,62.462 C567.078,62.502 565.998,62.582 565.398,62.582" fill="#FFFFFE"/>
    <path d="M584.493,49.464 C584.413,46.584 582.934,45.065 580.294,45.065 C577.854,45.065 576.374,46.584 576.134,49.464 L584.493,49.464 z M590.092,55.863 C588.932,60.302 585.293,63.021 580.254,63.021 C574.215,63.021 570.255,58.702 570.255,51.544 C570.255,44.585 574.055,40.306 580.174,40.306 C586.652,40.306 590.372,44.385 590.372,51.704 C590.372,52.184 590.372,52.664 590.332,53.183 L576.134,53.183 C576.294,56.503 577.774,58.223 580.533,58.223 C582.453,58.223 583.693,57.503 584.413,55.863 L590.092,55.863" fill="#FFFFFE"/>
    <path d="M593.982,33.546 L599.501,33.546 L599.501,48.624 L606.261,41.065 L613.1,41.065 L605.7,48.944 L613.539,62.302 L606.74,62.302 L601.661,53.263 L599.501,55.583 L599.501,62.302 L593.982,62.302 L593.982,33.546" fill="#FFFFFE"/>
    <path d="M628.112,49.464 C628.032,46.584 626.553,45.065 623.913,45.065 C621.473,45.065 619.993,46.584 619.753,49.464 L628.112,49.464 z M633.711,55.863 C632.551,60.302 628.912,63.021 623.873,63.021 C617.834,63.021 613.874,58.702 613.874,51.544 C613.874,44.585 617.674,40.306 623.793,40.306 C630.271,40.306 633.991,44.385 633.991,51.704 C633.991,52.184 633.991,52.664 633.951,53.183 L619.753,53.183 C619.913,56.503 621.394,58.223 624.152,58.223 C626.072,58.223 627.313,57.503 628.032,55.863 L633.711,55.863" fill="#FFFFFE"/>
    <path d="M643.692,62.582 C639.013,62.582 638.013,60.982 638.013,56.543 L638.013,45.065 L635.214,45.065 L635.214,41.065 L638.013,41.065 L638.013,35.266 L643.652,35.266 L643.652,41.065 L646.932,41.065 L646.932,45.065 L643.652,45.065 L643.652,56.823 C643.652,57.942 644.012,58.183 645.532,58.183 L646.932,58.183 L646.932,62.462 C645.372,62.502 644.292,62.582 643.692,62.582" fill="#FFFFFE"/>
    <path d="M148.154,52.001 C148.154,53.978 147.92,55.652 147.455,57.024 C146.986,58.398 146.274,59.509 145.313,60.36 C144.353,61.213 143.153,61.828 141.709,62.213 C140.271,62.595 138.561,62.787 136.586,62.787 C134.91,62.787 133.379,62.604 131.995,62.234 C130.607,61.863 129.419,61.265 128.432,60.442 C127.444,59.62 126.675,58.549 126.127,57.234 C125.578,55.913 125.303,54.293 125.303,52.374 L125.303,35.329 L122.01,34.712 L122.01,33.474 L132.219,33.474 L132.219,34.712 L128.926,35.329 L128.926,53.731 C128.926,56.008 129.64,57.8 131.067,59.106 C132.495,60.408 134.593,61.06 137.367,61.06 C140.277,61.06 142.381,60.385 143.686,59.04 C144.99,57.698 145.642,55.572 145.642,52.662 L145.642,35.329 L142.349,34.712 L142.349,33.474 L151.447,33.474 L151.447,34.712 L148.154,35.329 L148.154,52.001" fill="#FFFFFE"/>
    <path d="M160.56,44.589 L160.56,60.442 L163.853,61.06 L163.853,62.296 L154.095,62.296 L154.095,61.06 L157.389,60.442 L157.389,44.179 L154.095,42.945 L154.095,42.245 L160.56,41.214 L160.724,41.299 L160.56,44.589" fill="#FFFFFE"/>
    <path d="M188.208,37.963 C186.56,35.795 184.241,34.712 181.25,34.712 C178.202,34.712 175.858,35.759 174.208,37.858 C172.561,39.961 171.74,43.259 171.74,47.761 C171.74,52.317 172.547,55.674 174.167,57.827 C175.788,59.983 178.119,61.06 181.167,61.06 C184.214,61.06 186.56,60.005 188.208,57.889 C189.854,55.776 190.677,52.483 190.677,48.008 C190.677,43.479 189.854,40.13 188.208,37.963 z M191.171,58.963 C188.783,61.512 185.394,62.787 181.002,62.787 C176.803,62.787 173.528,61.547 171.182,59.063 C168.835,56.58 167.663,52.936 167.663,48.132 C167.663,45.634 167.984,43.438 168.63,41.545 C169.275,39.651 170.187,38.072 171.369,36.809 C172.547,35.545 173.983,34.594 175.67,33.95 C177.359,33.304 179.246,32.98 181.331,32.98 C183.418,32.98 185.29,33.297 186.951,33.926 C188.611,34.559 190.019,35.498 191.171,36.749 C192.323,37.999 193.209,39.541 193.828,41.379 C194.445,43.219 194.752,45.348 194.752,47.761 C194.752,52.673 193.56,56.41 191.171,58.963" fill="#FFFFFE"/>
    <path d="M156.955,35.159 C156.955,35.76 157.154,36.262 157.551,36.66 C157.949,37.058 158.451,37.256 159.053,37.256 C159.658,37.256 160.167,37.058 160.578,36.66 C160.99,36.262 161.196,35.76 161.196,35.159 C161.196,34.555 160.99,34.046 160.578,33.633 C160.167,33.219 159.658,33.017 159.053,33.017 C158.451,33.017 157.949,33.219 157.551,33.633 C157.154,34.046 156.955,34.555 156.955,35.159" fill="#FFFFFE"/>
    <path d="M246.891,82.134 C246.661,81.644 246.341,81.259 245.931,80.979 C245.521,80.7 245.031,80.509 244.461,80.41 C243.891,80.309 243.266,80.259 242.586,80.259 L240.636,80.259 L240.636,88.599 L242.466,88.599 C243.986,88.599 245.161,88.25 245.991,87.549 C246.821,86.849 247.236,85.67 247.236,84.009 C247.236,83.25 247.121,82.625 246.891,82.134 z M242.226,89.92 L240.636,89.92 L240.636,98.049 L242.976,98.5 L242.976,99.759 L234.636,99.759 L234.636,98.5 L237.006,98.049 L237.006,80.469 L234.636,80.019 L234.636,78.759 L243.486,78.759 C244.386,78.759 245.291,78.819 246.201,78.939 C247.111,79.059 247.936,79.299 248.676,79.66 C249.416,80.019 250.021,80.535 250.491,81.205 C250.961,81.875 251.196,82.759 251.196,83.859 C251.196,85.4 250.741,86.634 249.831,87.564 C248.921,88.495 247.626,89.139 245.946,89.5 L251.796,98.049 L253.986,98.5 L253.986,99.759 L248.616,99.759 L242.226,89.92" fill="#FFFFFE"/>
    <path d="M262.146,90.49 L265.505,90.279 C265.485,89.639 265.416,89.045 265.295,88.495 C265.175,87.945 264.99,87.469 264.741,87.069 C264.49,86.67 264.17,86.36 263.78,86.139 C263.391,85.92 262.925,85.809 262.386,85.809 C261.285,85.809 260.41,86.214 259.761,87.024 C259.11,87.834 258.765,88.99 258.726,90.49 L262.146,90.49 z M268.835,98.41 C268.575,98.57 268.24,98.75 267.831,98.95 C267.42,99.15 266.956,99.334 266.436,99.504 C265.915,99.674 265.34,99.819 264.71,99.939 C264.081,100.059 263.416,100.12 262.715,100.12 C261.576,100.12 260.541,99.959 259.61,99.639 C258.681,99.32 257.886,98.834 257.226,98.184 C256.565,97.535 256.056,96.714 255.695,95.724 C255.335,94.734 255.155,93.58 255.155,92.259 C255.155,89.62 255.831,87.629 257.181,86.29 C258.53,84.95 260.365,84.279 262.686,84.279 C263.686,84.279 264.57,84.424 265.34,84.714 C266.11,85.004 266.75,85.404 267.261,85.915 C267.771,86.424 268.155,87.024 268.416,87.714 C268.675,88.404 268.806,89.15 268.806,89.95 C268.806,90.629 268.735,91.31 268.596,91.99 L258.726,91.99 C258.726,93.629 259.035,94.995 259.655,96.084 C260.275,97.174 261.246,97.839 262.565,98.08 C263.585,98.259 264.63,98.214 265.701,97.944 C266.77,97.674 267.815,97.339 268.835,96.939 L268.835,98.41" fill="#FFFFFE"/>
    <path d="M280.085,92.74 C279.925,92.719 279.765,92.709 279.605,92.709 C279.465,92.709 279.315,92.709 279.155,92.709 C278.495,92.709 277.86,92.759 277.25,92.859 C276.64,92.959 276.11,93.125 275.66,93.354 C275.21,93.584 274.851,93.884 274.581,94.254 C274.311,94.625 274.175,95.07 274.175,95.589 C274.175,96.469 274.416,97.115 274.896,97.524 C275.375,97.934 276.045,98.139 276.905,98.139 C277.425,98.139 277.97,98.045 278.541,97.854 C279.11,97.665 279.625,97.439 280.085,97.179 L280.085,92.74 z M276.005,86.109 C275.665,86.189 275.355,86.29 275.075,86.41 L274.416,89.229 L272.315,89.229 L271.865,85.269 L271.925,85 C272.805,84.759 273.67,84.58 274.521,84.459 C275.37,84.339 276.186,84.279 276.965,84.279 C278.125,84.279 279.11,84.395 279.92,84.625 C280.73,84.854 281.395,85.184 281.916,85.615 C282.435,86.045 282.815,86.575 283.055,87.205 C283.295,87.834 283.416,88.549 283.416,89.349 L283.416,97.719 L285.755,98.589 L285.755,99.309 L280.715,100.12 L279.995,100.059 L280.025,98.859 C279.365,99.259 278.665,99.57 277.925,99.79 C277.185,100.009 276.365,100.12 275.465,100.12 C273.965,100.12 272.775,99.75 271.896,99.009 C271.015,98.27 270.575,97.25 270.575,95.95 C270.575,94.929 270.825,94.115 271.325,93.504 C271.825,92.894 272.485,92.42 273.305,92.08 C274.125,91.74 275.055,91.514 276.095,91.404 C277.135,91.295 278.195,91.24 279.275,91.24 L280.085,91.24 L280.085,89.469 C280.085,88.75 279.975,88.16 279.755,87.7 C279.535,87.24 279.265,86.884 278.945,86.634 C278.625,86.384 278.285,86.214 277.925,86.125 C277.565,86.035 277.245,85.99 276.965,85.99 C276.666,85.99 276.345,86.03 276.005,86.109" fill="#FFFFFE"/>
    <path d="M292.505,80.17 L292.505,98.049 L294.845,98.5 L294.845,99.759 L286.835,99.759 L286.835,98.5 L289.175,98.049 L289.175,79.929 L286.835,79.059 L286.835,78.309 L291.875,77.529 L292.625,77.589 L292.505,80.17" fill="#FFFFFE"/>
    <path d="M298.205,84.67 L298.205,81.79 C298.205,81.089 298.334,80.474 298.594,79.944 C298.854,79.415 299.209,78.974 299.66,78.625 C300.109,78.275 300.645,78.014 301.265,77.844 C301.884,77.674 302.555,77.589 303.274,77.589 C303.734,77.589 304.259,77.625 304.85,77.694 C305.439,77.764 306.035,77.9 306.634,78.099 L306.634,79.24 L303.725,79.24 C303.024,79.24 302.489,79.4 302.12,79.719 C301.749,80.04 301.564,80.549 301.564,81.25 L301.564,84.639 L305.015,84.639 L305.015,86.259 L301.535,86.259 L301.535,98.049 L304.745,98.469 L304.745,99.759 L295.864,99.759 L295.864,98.5 L298.205,98.049 L298.205,86.259 L295.564,86.259 L295.564,85.059 L298.205,84.67" fill="#FFFFFE"/>
    <path d="M316.354,92.74 C316.194,92.719 316.034,92.709 315.875,92.709 C315.734,92.709 315.584,92.709 315.424,92.709 C314.764,92.709 314.129,92.759 313.52,92.859 C312.909,92.959 312.379,93.125 311.929,93.354 C311.479,93.584 311.12,93.884 310.85,94.254 C310.58,94.625 310.444,95.07 310.444,95.589 C310.444,96.469 310.685,97.115 311.165,97.524 C311.645,97.934 312.314,98.139 313.174,98.139 C313.694,98.139 314.239,98.045 314.81,97.854 C315.379,97.665 315.894,97.439 316.354,97.179 L316.354,92.74 z M312.274,86.109 C311.934,86.189 311.624,86.29 311.344,86.41 L310.685,89.229 L308.584,89.229 L308.134,85.269 L308.194,85 C309.074,84.759 309.939,84.58 310.79,84.459 C311.639,84.339 312.455,84.279 313.234,84.279 C314.394,84.279 315.379,84.395 316.189,84.625 C317,84.854 317.664,85.184 318.185,85.615 C318.704,86.045 319.084,86.575 319.324,87.205 C319.564,87.834 319.685,88.549 319.685,89.349 L319.685,97.719 L322.024,98.589 L322.024,99.309 L316.984,100.12 L316.264,100.059 L316.294,98.859 C315.634,99.259 314.934,99.57 314.194,99.79 C313.454,100.009 312.634,100.12 311.734,100.12 C310.234,100.12 309.044,99.75 308.165,99.009 C307.284,98.27 306.844,97.25 306.844,95.95 C306.844,94.929 307.094,94.115 307.594,93.504 C308.094,92.894 308.754,92.42 309.574,92.08 C310.394,91.74 311.324,91.514 312.364,91.404 C313.404,91.295 314.464,91.24 315.544,91.24 L316.354,91.24 L316.354,89.469 C316.354,88.75 316.244,88.16 316.024,87.7 C315.804,87.24 315.534,86.884 315.214,86.634 C314.894,86.384 314.554,86.214 314.194,86.125 C313.834,86.035 313.514,85.99 313.234,85.99 C312.935,85.99 312.614,86.03 312.274,86.109" fill="#FFFFFE"/>
    <path d="M328.384,92.334 C328.824,92.884 329.484,93.16 330.364,93.16 C331.204,93.16 331.849,92.884 332.299,92.334 C332.749,91.785 332.974,90.839 332.974,89.5 C332.974,88.12 332.754,87.144 332.314,86.575 C331.874,86.004 331.214,85.719 330.334,85.719 C329.434,85.719 328.769,86.004 328.339,86.575 C327.909,87.144 327.694,88.099 327.694,89.439 C327.714,90.819 327.944,91.785 328.384,92.334 z M328.144,99.399 C327.904,99.399 327.674,99.379 327.454,99.339 C327.074,99.819 326.854,100.295 326.794,100.764 C326.734,101.234 326.704,101.549 326.704,101.71 C326.704,102.589 327.024,103.269 327.664,103.75 C328.304,104.229 329.264,104.469 330.544,104.469 C332.044,104.469 333.199,104.2 334.009,103.66 C334.819,103.12 335.224,102.359 335.224,101.379 C335.224,100.759 335.014,100.274 334.594,99.924 C334.174,99.575 333.584,99.399 332.824,99.399 L328.744,99.399 C328.604,99.399 328.404,99.399 328.144,99.399 z M339.034,86.529 L335.704,86.379 C336.004,86.839 336.234,87.344 336.394,87.894 C336.554,88.445 336.634,88.979 336.634,89.5 C336.634,91.139 336.074,92.4 334.954,93.279 C333.833,94.16 332.274,94.599 330.274,94.599 C330.094,94.599 329.879,94.589 329.629,94.569 C329.379,94.549 329.144,94.52 328.924,94.479 C328.704,94.679 328.499,94.905 328.309,95.154 C328.119,95.405 328.014,95.649 327.994,95.889 C327.994,96.25 328.174,96.509 328.534,96.67 C328.894,96.83 329.364,96.929 329.944,96.969 C330.224,96.99 330.474,97 330.694,97 C330.914,97 331.154,97 331.414,97 C332.234,97 333.069,97.019 333.919,97.059 C334.769,97.099 335.543,97.229 336.244,97.45 C336.944,97.67 337.514,98.019 337.954,98.5 C338.394,98.979 338.614,99.66 338.614,100.54 C338.614,102.339 337.849,103.699 336.319,104.62 C334.789,105.539 332.684,106 330.004,106 C327.824,106 326.179,105.694 325.069,105.085 C323.959,104.474 323.404,103.559 323.404,102.339 C323.404,101.819 323.579,101.274 323.929,100.705 C324.279,100.134 324.924,99.479 325.864,98.74 C325.544,98.48 325.289,98.209 325.099,97.929 C324.909,97.65 324.814,97.33 324.814,96.969 C324.814,95.969 325.564,94.95 327.064,93.91 C326.144,93.429 325.394,92.804 324.814,92.035 C324.234,91.264 323.944,90.44 323.944,89.559 C323.944,87.879 324.509,86.58 325.639,85.66 C326.769,84.74 328.334,84.279 330.334,84.279 C330.914,84.279 331.499,84.334 332.089,84.444 C332.679,84.554 333.194,84.689 333.634,84.849 L338.404,83.979 L339.124,84.04 L339.034,86.529" fill="#FFFFFE"/>
    <path d="M343.924,97.689 C344.144,97.849 344.498,98.009 344.989,98.17 C345.479,98.33 345.983,98.41 346.503,98.41 C347.204,98.41 347.764,98.205 348.184,97.795 C348.604,97.384 348.813,96.839 348.813,96.16 C348.813,95.74 348.713,95.375 348.514,95.064 C348.313,94.754 348.059,94.485 347.749,94.254 C347.438,94.025 347.088,93.819 346.699,93.639 C346.309,93.459 345.934,93.29 345.574,93.129 C344.993,92.849 344.428,92.564 343.878,92.274 C343.328,91.985 342.838,91.66 342.409,91.299 C341.979,90.939 341.633,90.53 341.374,90.069 C341.113,89.61 340.983,89.08 340.983,88.479 C340.983,87.759 341.138,87.134 341.449,86.604 C341.758,86.075 342.184,85.634 342.724,85.285 C343.264,84.935 343.909,84.679 344.659,84.519 C345.409,84.36 346.213,84.279 347.074,84.279 C347.434,84.279 347.828,84.299 348.259,84.339 C348.688,84.379 349.114,84.434 349.534,84.504 C349.954,84.575 350.344,84.654 350.704,84.745 C351.063,84.834 351.364,84.929 351.604,85.029 L351.664,85.269 L351.184,89.229 L349.114,89.229 L348.424,86.379 C348.304,86.28 348.043,86.165 347.644,86.035 C347.243,85.905 346.854,85.839 346.474,85.839 C345.773,85.839 345.213,86.009 344.793,86.349 C344.374,86.69 344.164,87.2 344.164,87.879 C344.164,88.259 344.278,88.61 344.509,88.929 C344.738,89.25 345.028,89.545 345.378,89.814 C345.729,90.084 346.118,90.32 346.549,90.519 C346.979,90.719 347.383,90.889 347.764,91.029 C348.383,91.25 348.958,91.504 349.489,91.795 C350.018,92.084 350.479,92.41 350.869,92.769 C351.259,93.129 351.568,93.535 351.799,93.984 C352.028,94.434 352.144,94.929 352.144,95.469 C352.144,96.25 351.979,96.929 351.648,97.509 C351.318,98.089 350.869,98.575 350.299,98.964 C349.729,99.354 349.073,99.644 348.333,99.834 C347.593,100.024 346.804,100.12 345.963,100.12 C345.523,100.12 345.053,100.079 344.554,100 C344.053,99.92 343.563,99.824 343.083,99.714 C342.604,99.605 342.154,99.485 341.733,99.354 C341.313,99.224 340.983,99.11 340.744,99.009 L340.684,98.799 L341.164,94.839 L343.204,94.839 L343.924,97.689" fill="#FFFFFE"/>
    <path d="M358.923,97.899 C359.723,98.24 360.533,98.41 361.354,98.41 C362.833,98.41 363.988,97.91 364.818,96.91 C365.648,95.91 366.063,94.229 366.063,91.87 C366.063,90.77 365.963,89.855 365.764,89.125 C365.563,88.394 365.278,87.809 364.909,87.37 C364.538,86.929 364.083,86.62 363.543,86.439 C363.003,86.259 362.383,86.17 361.684,86.17 C361.343,86.17 360.923,86.189 360.423,86.229 C359.923,86.27 359.423,86.339 358.923,86.439 L358.923,97.899 z M363.363,84.279 C364.303,84.279 365.158,84.429 365.929,84.729 C366.698,85.029 367.363,85.485 367.923,86.094 C368.483,86.705 368.914,87.474 369.213,88.404 C369.514,89.334 369.664,90.429 369.664,91.689 C369.664,93.089 369.483,94.314 369.124,95.365 C368.764,96.415 368.253,97.295 367.593,98.004 C366.934,98.714 366.139,99.245 365.208,99.594 C364.278,99.944 363.253,100.12 362.133,100.12 C361.573,100.12 360.998,100.084 360.409,100.014 C359.818,99.944 359.249,99.859 358.698,99.759 C358.148,99.66 357.619,99.545 357.108,99.415 C356.599,99.285 356.144,99.16 355.744,99.04 L355.593,98.679 L355.593,79.929 L353.253,79.059 L353.253,78.309 L358.293,77.529 L359.043,77.589 L358.923,80.17 L358.923,85 C359.523,84.799 360.203,84.629 360.963,84.49 C361.723,84.349 362.523,84.279 363.363,84.279" fill="#FFFFFE"/>
    <path d="M373.534,79.42 C373.534,79.979 373.729,80.435 374.119,80.785 C374.509,81.134 374.993,81.309 375.574,81.309 C376.153,81.309 376.639,81.134 377.029,80.785 C377.418,80.435 377.614,79.979 377.614,79.42 C377.614,78.86 377.418,78.395 377.029,78.024 C376.639,77.655 376.153,77.469 375.574,77.469 C374.993,77.469 374.509,77.655 374.119,78.024 C373.729,78.395 373.534,78.86 373.534,79.42 z M377.164,86.92 L377.164,98.049 L379.503,98.5 L379.503,99.759 L371.494,99.759 L371.494,98.5 L373.833,98.049 L373.833,86.679 L371.494,85.809 L371.494,85.059 L376.534,84.279 L377.284,84.339 L377.164,86.92" fill="#FFFFFE"/>
    <path d="M385.503,97.899 C386.303,98.24 387.113,98.41 387.934,98.41 C389.414,98.41 390.568,97.91 391.398,96.91 C392.228,95.91 392.644,94.229 392.644,91.87 C392.644,90.77 392.543,89.855 392.344,89.125 C392.144,88.394 391.858,87.809 391.489,87.37 C391.118,86.929 390.664,86.62 390.124,86.439 C389.583,86.259 388.963,86.17 388.264,86.17 C387.923,86.17 387.503,86.189 387.003,86.229 C386.503,86.27 386.003,86.339 385.503,86.439 L385.503,97.899 z M389.943,84.279 C390.883,84.279 391.738,84.429 392.509,84.729 C393.278,85.029 393.943,85.485 394.503,86.094 C395.063,86.705 395.494,87.474 395.793,88.404 C396.094,89.334 396.244,90.429 396.244,91.689 C396.244,93.089 396.063,94.314 395.704,95.365 C395.344,96.415 394.833,97.295 394.173,98.004 C393.514,98.714 392.719,99.245 391.789,99.594 C390.858,99.944 389.833,100.12 388.713,100.12 C388.153,100.12 387.578,100.084 386.989,100.014 C386.398,99.944 385.829,99.859 385.278,99.759 C384.728,99.66 384.199,99.545 383.688,99.415 C383.179,99.285 382.724,99.16 382.324,99.04 L382.173,98.679 L382.173,79.929 L379.833,79.059 L379.833,78.309 L384.874,77.529 L385.624,77.589 L385.503,80.17 L385.503,85 C386.104,84.799 386.783,84.629 387.543,84.49 C388.303,84.349 389.104,84.279 389.943,84.279" fill="#FFFFFE"/>
    <path d="M403.743,80.17 L403.743,98.049 L406.083,98.5 L406.083,99.759 L398.073,99.759 L398.073,98.5 L400.413,98.049 L400.413,79.929 L398.073,79.059 L398.073,78.309 L403.113,77.529 L403.863,77.589 L403.743,80.17" fill="#FFFFFE"/>
    <path d="M409.113,79.42 C409.113,79.979 409.308,80.435 409.698,80.785 C410.088,81.134 410.573,81.309 411.153,81.309 C411.733,81.309 412.218,81.134 412.608,80.785 C412.998,80.435 413.193,79.979 413.193,79.42 C413.193,78.86 412.998,78.395 412.608,78.024 C412.218,77.655 411.733,77.469 411.153,77.469 C410.573,77.469 410.088,77.655 409.698,78.024 C409.308,78.395 409.113,78.86 409.113,79.42 z M412.743,86.92 L412.743,98.049 L415.083,98.5 L415.083,99.759 L407.073,99.759 L407.073,98.5 L409.413,98.049 L409.413,86.679 L407.073,85.809 L407.073,85.059 L412.113,84.279 L412.863,84.339 L412.743,86.92" fill="#FFFFFE"/>
    <path d="M426.828,87.279 C426.218,86.299 425.313,85.809 424.113,85.809 C422.913,85.809 422.003,86.299 421.383,87.279 C420.763,88.259 420.453,89.879 420.453,92.139 C420.453,94.4 420.758,96.03 421.368,97.029 C421.978,98.03 422.873,98.529 424.053,98.529 C425.253,98.529 426.168,98.03 426.798,97.029 C427.428,96.03 427.743,94.4 427.743,92.139 C427.743,89.879 427.438,88.259 426.828,87.279 z M429.528,98.125 C428.258,99.455 426.413,100.12 423.993,100.12 C421.633,100.12 419.838,99.44 418.608,98.08 C417.378,96.719 416.763,94.74 416.763,92.139 C416.763,89.519 417.403,87.554 418.683,86.245 C419.963,84.935 421.813,84.279 424.233,84.279 C426.593,84.279 428.383,84.95 429.603,86.29 C430.823,87.629 431.433,89.58 431.433,92.139 C431.433,94.799 430.798,96.795 429.528,98.125" fill="#FFFFFE"/>
    <path d="M438.723,95.62 C438.723,96.459 438.833,97.115 439.053,97.584 C439.272,98.054 439.803,98.29 440.643,98.29 C440.902,98.29 441.252,98.25 441.693,98.17 C442.132,98.089 442.573,98 443.013,97.899 L443.013,98.979 C442.492,99.32 441.888,99.594 441.198,99.804 C440.508,100.014 439.803,100.12 439.083,100.12 C438.303,100.12 437.673,100.014 437.193,99.804 C436.713,99.594 436.338,99.304 436.068,98.934 C435.798,98.564 435.612,98.125 435.513,97.615 C435.413,97.104 435.363,96.549 435.363,95.95 L435.363,86.259 L433.292,86.259 L433.292,85.179 C433.913,85.04 434.417,84.839 434.808,84.58 C435.198,84.32 435.513,84.009 435.753,83.649 C435.993,83.29 436.183,82.87 436.323,82.389 C436.462,81.91 436.593,81.379 436.713,80.799 L438.723,80.799 L438.723,84.639 L442.983,84.639 L442.983,86.259 L438.723,86.259 L438.723,95.62" fill="#FFFFFE"/>
    <path d="M451.683,90.49 L455.042,90.279 C455.022,89.639 454.953,89.045 454.833,88.495 C454.712,87.945 454.527,87.469 454.278,87.069 C454.027,86.67 453.708,86.36 453.317,86.139 C452.928,85.92 452.462,85.809 451.923,85.809 C450.822,85.809 449.947,86.214 449.298,87.024 C448.647,87.834 448.302,88.99 448.263,90.49 L451.683,90.49 z M458.373,98.41 C458.112,98.57 457.777,98.75 457.368,98.95 C456.958,99.15 456.493,99.334 455.973,99.504 C455.452,99.674 454.877,99.819 454.248,99.939 C453.618,100.059 452.953,100.12 452.252,100.12 C451.113,100.12 450.078,99.959 449.147,99.639 C448.218,99.32 447.423,98.834 446.763,98.184 C446.103,97.535 445.593,96.714 445.232,95.724 C444.873,94.734 444.692,93.58 444.692,92.259 C444.692,89.62 445.368,87.629 446.718,86.29 C448.067,84.95 449.902,84.279 452.223,84.279 C453.223,84.279 454.107,84.424 454.877,84.714 C455.647,85.004 456.288,85.404 456.798,85.915 C457.308,86.424 457.692,87.024 457.953,87.714 C458.212,88.404 458.343,89.15 458.343,89.95 C458.343,90.629 458.272,91.31 458.133,91.99 L448.263,91.99 C448.263,93.629 448.572,94.995 449.192,96.084 C449.813,97.174 450.783,97.839 452.103,98.08 C453.123,98.259 454.167,98.214 455.238,97.944 C456.307,97.674 457.353,97.339 458.373,96.939 L458.373,98.41" fill="#FFFFFE"/>
    <path d="M465.782,80.17 L465.782,91 L470.732,86.29 L468.422,85.899 L468.422,84.639 L476.132,84.639 L476.132,85.899 L473.462,86.349 L468.632,90.939 L474.992,98.019 L477.212,98.5 L477.212,99.759 L472.412,99.759 L465.782,92.2 L465.782,98.019 L468.422,98.5 L468.422,99.759 L460.142,99.759 L460.142,98.5 L462.482,98.049 L462.482,79.929 L460.142,79.059 L460.142,78.309 L465.182,77.529 L465.902,77.589 L465.782,80.17" fill="#FFFFFE"/>
    <path d="M485.522,90.49 L488.882,90.279 C488.862,89.639 488.792,89.045 488.672,88.495 C488.552,87.945 488.367,87.469 488.117,87.069 C487.867,86.67 487.547,86.36 487.157,86.139 C486.767,85.92 486.302,85.809 485.762,85.809 C484.662,85.809 483.787,86.214 483.137,87.024 C482.487,87.834 482.142,88.99 482.102,90.49 L485.522,90.49 z M492.212,98.41 C491.952,98.57 491.617,98.75 491.207,98.95 C490.797,99.15 490.332,99.334 489.812,99.504 C489.292,99.674 488.717,99.819 488.087,99.939 C487.457,100.059 486.792,100.12 486.092,100.12 C484.952,100.12 483.917,99.959 482.987,99.639 C482.057,99.32 481.262,98.834 480.602,98.184 C479.942,97.535 479.432,96.714 479.072,95.724 C478.712,94.734 478.532,93.58 478.532,92.259 C478.532,89.62 479.207,87.629 480.557,86.29 C481.907,84.95 483.742,84.279 486.062,84.279 C487.062,84.279 487.947,84.424 488.717,84.714 C489.487,85.004 490.127,85.404 490.637,85.915 C491.147,86.424 491.532,87.024 491.792,87.714 C492.052,88.404 492.182,89.15 492.182,89.95 C492.182,90.629 492.112,91.31 491.972,91.99 L482.102,91.99 C482.102,93.629 482.412,94.995 483.032,96.084 C483.652,97.174 484.622,97.839 485.942,98.08 C486.962,98.259 488.007,98.214 489.077,97.944 C490.146,97.674 491.192,97.339 492.212,96.939 L492.212,98.41" fill="#FFFFFE"/>
    <path d="M499.322,95.62 C499.322,96.459 499.432,97.115 499.652,97.584 C499.872,98.054 500.402,98.29 501.242,98.29 C501.501,98.29 501.852,98.25 502.292,98.17 C502.731,98.089 503.172,98 503.612,97.899 L503.612,98.979 C503.091,99.32 502.487,99.594 501.797,99.804 C501.107,100.014 500.402,100.12 499.682,100.12 C498.902,100.12 498.272,100.014 497.792,99.804 C497.312,99.594 496.937,99.304 496.667,98.934 C496.397,98.564 496.211,98.125 496.112,97.615 C496.012,97.104 495.962,96.549 495.962,95.95 L495.962,86.259 L493.892,86.259 L493.892,85.179 C494.512,85.04 495.017,84.839 495.407,84.58 C495.797,84.32 496.112,84.009 496.352,83.649 C496.592,83.29 496.782,82.87 496.922,82.389 C497.062,81.91 497.192,81.379 497.312,80.799 L499.322,80.799 L499.322,84.639 L503.582,84.639 L503.582,86.259 L499.322,86.259 L499.322,95.62" fill="#FFFFFE"/>
    <path d="M48.222,1.169 C21.868,1.169 0.5,22.541 0.5,48.897 C0.5,75.253 21.868,96.622 48.222,96.622 C74.583,96.622 95.951,75.253 95.951,48.897 C95.951,22.541 74.583,1.169 48.222,1.169" fill="#D8232A"/>
    <path d="M48.222,1.169 C21.868,1.169 0.5,22.541 0.5,48.897 C0.5,75.253 21.868,96.622 48.222,96.622 C74.583,96.622 95.951,75.253 95.951,48.897 C95.951,22.541 74.583,1.169 48.222,1.169 z" fill-opacity="0" stroke="#D8262D" stroke-width="1"/>
    <path d="M2.851,48.897 C2.851,61.427 7.93,72.768 16.141,80.979 C24.353,89.192 35.693,94.27 48.222,94.27 C60.754,94.268 72.096,89.192 80.309,80.979 C88.521,72.768 93.598,61.427 93.598,48.897 C93.598,36.368 88.521,25.025 80.309,16.813 C72.096,8.601 60.753,3.521 48.222,3.521 C34.127,3.521 21.536,9.949 13.212,20.035 C6.739,27.881 2.851,37.934 2.851,48.897 z M2.167,48.897 C2.166,37.771 6.114,27.561 12.684,19.6 C21.13,9.362 33.917,2.836 48.222,2.836 C73.662,2.836 94.283,23.462 94.284,48.897 C94.283,74.333 73.662,94.954 48.222,94.956 C22.788,94.954 2.167,74.333 2.167,48.897" fill="#FFFFFE"/>
    <path d="M12.287,67.581 C12.294,66.979 12.787,66.497 13.389,66.504 C13.991,66.512 14.474,67.004 14.466,67.608 C14.46,68.209 13.965,68.692 13.364,68.684 C12.762,68.676 12.28,68.184 12.287,67.581" fill="#FFFFFE"/>
    <path d="M81.607,68.231 C81.614,67.629 82.108,67.147 82.71,67.155 C83.312,67.163 83.794,67.655 83.787,68.256 C83.78,68.86 83.286,69.342 82.685,69.334 C82.083,69.327 81.6,68.834 81.607,68.231" fill="#FFFFFE"/>
    <path d="M79.098,61.941 C77.409,65.918 75.004,69.491 71.933,72.563 C68.864,75.629 65.293,78.04 61.312,79.725 C59.747,80.387 58.144,80.924 56.512,81.337 L56.473,80.67 C56.473,80.27 56.02,80.069 55.772,80.069 L54.335,80.092 C54.335,80.092 53.892,79.985 53.839,79.967 C53.785,79.952 53.798,79.895 53.807,79.883 C53.908,79.762 53.914,79.584 53.815,79.456 L52.719,78.026 L52.754,77.01 C55.977,76.93 58.35,75.708 59.458,74.899 C60.546,74.094 60.616,72.864 60.618,72.499 C60.618,72.446 60.616,72.409 60.616,72.393 L60.583,69.538 C60.593,69.534 60.603,69.532 60.614,69.526 L60.613,69.524 L63.668,67.811 C63.785,67.745 63.852,67.616 63.841,67.481 L61.836,45.138 C61.923,45.107 62.207,45.01 62.527,44.89 C62.918,44.74 63.329,44.581 63.573,44.422 C63.792,44.268 64.712,43.494 64.934,43.264 C65.127,43.058 65.201,42.792 65.199,42.557 C65.195,42.188 65.054,41.861 64.911,41.603 C64.784,41.385 64.611,41.206 64.423,41.052 C64.844,40.114 65.057,39.074 65.057,38 C65.057,36.126 64.609,34.651 64.177,33.256 C63.743,31.859 63.328,30.541 63.328,28.919 C63.328,25.907 63.359,24.119 63.359,24.115 C63.36,24.023 63.325,23.935 63.261,23.869 C63.197,23.804 63.108,23.767 63.017,23.767 C62.005,23.763 61.377,24.098 61.033,24.47 C60.872,24.644 60.773,24.817 60.713,24.957 L54.534,24.957 C54.473,24.803 54.373,24.604 54.206,24.4 C53.872,23.987 53.244,23.59 52.265,23.595 C52.173,23.595 52.086,23.631 52.022,23.696 C51.957,23.761 51.921,23.849 51.922,23.94 C51.922,23.945 51.941,26.212 51.94,29.39 C51.942,29.64 51.93,29.887 51.909,30.132 C51.783,29.932 51.646,29.732 51.502,29.543 C51.119,29.053 50.717,28.621 50.221,28.458 C49.773,28.321 49.111,28.115 48.334,27.878 C48.049,27.788 47.931,27.657 47.851,27.514 C47.804,27.429 47.778,27.334 47.764,27.245 L48.142,27.253 L48.161,27.253 C48.502,27.241 48.794,27.196 49.042,27.094 C49.287,26.995 49.512,26.811 49.595,26.537 C49.637,26.397 49.651,26.264 49.651,26.145 C49.65,26.01 49.634,25.893 49.617,25.807 L49.779,25.521 C49.832,25.429 49.838,25.318 49.799,25.224 C49.873,25.154 49.913,25.054 49.907,24.95 L49.883,24.599 C49.899,24.596 49.917,24.593 49.934,24.59 C50.038,24.57 50.147,24.546 50.259,24.495 C50.315,24.468 50.376,24.436 50.44,24.372 C50.502,24.313 50.57,24.198 50.569,24.065 C50.567,23.973 50.548,23.754 50.519,23.41 C50.445,22.566 50.311,21.136 50.269,20.691 C50.409,20.503 50.649,20.117 50.66,19.615 C50.661,19.292 50.566,18.911 50.272,18.613 C49.984,18.322 49.538,18.151 48.939,18.145 C48.674,18.074 47.292,17.707 46.892,17.647 C46.594,17.605 46.196,17.536 45.727,17.536 C44.928,17.533 43.917,17.749 42.82,18.598 C41.402,19.715 41.286,21.715 41.276,22.604 C41.276,22.776 41.282,22.909 41.287,22.987 C41.24,23.13 41.168,23.425 41.168,23.895 C41.168,24.152 41.19,24.462 41.248,24.829 C41.386,25.718 41.935,26.254 42.42,26.53 C42.667,26.672 42.899,26.757 43.072,26.807 L43.072,27.458 C42.803,27.594 41.094,28.345 39.451,29.477 C39.417,29.508 39.281,29.585 39.154,29.729 C39.151,29.732 39.146,29.734 39.144,29.737 L20.678,48.408 C20.613,48.474 20.577,48.566 20.58,48.658 C20.582,48.751 20.623,48.84 20.691,48.902 C20.694,48.904 21.964,50.06 23.373,51.349 C23.724,51.67 24.083,51.999 24.434,52.321 L21.049,56.964 C20.764,57.327 20.581,57.854 20.582,58.554 C20.586,59.971 21.288,62.123 23.438,65.471 C25.892,69.286 27.771,71.043 28.463,71.622 L27.57,72.649 C27.54,72.68 27.253,72.983 26.958,73.374 C26.803,73.577 26.646,73.805 26.522,74.034 C26.493,74.092 26.464,74.147 26.438,74.204 C25.833,73.68 25.244,73.133 24.672,72.561 C21.605,69.491 19.197,65.918 17.517,61.941 C15.77,57.826 14.886,53.448 14.886,48.931 C14.886,44.423 15.77,40.049 17.517,35.931 C19.197,31.944 21.605,28.374 24.672,25.303 C27.747,22.237 31.315,19.827 35.296,18.142 C39.419,16.402 43.79,15.523 48.307,15.521 C52.816,15.523 57.191,16.402 61.312,18.142 C65.293,19.827 68.864,22.237 71.933,25.303 C75.005,28.374 77.409,31.944 79.099,35.93 C80.837,40.048 81.719,44.423 81.719,48.931 C81.719,53.448 80.837,57.826 79.098,61.941 z M48.159,82.346 C50.117,82.01 51.846,81.368 53.111,80.456 L54.188,80.764 C54.226,80.776 54.267,80.782 54.308,80.78 C54.308,80.78 55.309,80.725 55.392,80.719 C55.677,80.702 55.805,80.87 55.808,80.93 C55.81,80.991 55.816,81.063 55.816,81.063 C55.816,81.063 55.828,81.241 55.711,81.358 C55.605,81.463 54.832,81.678 54.551,81.766 C52.507,82.153 50.422,82.348 48.307,82.348 C48.258,82.348 48.208,82.346 48.159,82.346 z M28.478,73.256 C28.601,73.258 28.738,73.26 28.893,73.262 C31.612,73.26 38.855,72.637 44.133,66.415 C48.477,61.259 49.566,51.417 49.736,49.694 L51.097,49.598 C51.049,50.303 50.928,51.972 50.717,54.229 C50.433,57.255 49.988,61.328 49.341,65.516 C48.694,69.704 47.915,73.856 47.297,76.958 C46.841,79.254 46.474,80.971 46.313,81.712 C46.298,81.778 46.214,81.901 46.055,81.901 C45.678,81.901 45.298,81.936 44.913,81.934 C43.663,81.936 42.374,81.819 41.101,81.573 C40.434,81.426 39.772,81.26 39.115,81.073 C34.394,79.584 31.654,77.481 30.091,75.778 C29.308,74.924 28.82,74.165 28.53,73.624 C28.483,73.538 28.441,73.458 28.405,73.381 C28.365,73.301 28.41,73.254 28.478,73.256 z M28.642,72.459 C28.728,72.362 37.96,61.762 37.96,61.762 C37.995,61.723 38.019,61.677 38.032,61.627 C38.032,61.627 40.764,51.547 40.783,51.476 C40.802,51.405 40.873,51.386 40.873,51.386 C40.873,51.386 45.715,50.061 45.901,50.007 C46.088,49.954 46.356,49.932 46.356,49.932 L49.045,49.742 C49.013,50.056 48.958,50.56 48.869,51.208 C48.412,54.615 47.018,61.968 43.61,65.971 C38.538,71.965 31.521,72.577 28.893,72.577 C28.834,72.577 28.778,72.577 28.725,72.575 C28.625,72.575 28.556,72.559 28.642,72.459 z M55.755,27.266 L55.755,29.939 C55.525,30.067 55.348,30.179 55.252,30.236 C54.942,30.434 54.525,30.807 54.445,30.877 L54.443,30.879 C54.564,29.966 54.649,28.814 54.661,27.266 L55.755,27.266 z M57.311,27.266 L57.311,29.31 C57.011,29.374 56.714,29.479 56.44,29.598 L56.44,27.266 L57.311,27.266 z M58.815,27.266 L58.815,29.37 C58.568,29.278 58.292,29.247 57.996,29.243 L57.996,27.266 L58.815,27.266 z M60.122,31.672 C60.083,31.55 60.006,31.367 59.771,31.288 C59.71,31.271 59.646,31.254 59.584,31.24 C59.582,31.024 59.58,30.724 59.58,30.489 C59.584,30.324 59.555,30.166 59.5,30.022 L59.5,27.266 L60.575,27.266 C60.593,30.091 60.839,31.768 61.086,32.983 C61.344,34.251 61.585,34.98 61.585,35.992 C61.585,37.082 61.165,38.12 60.475,38.878 C60.191,39.19 59.862,39.454 59.5,39.658 L59.5,32.995 C59.524,32.992 59.55,32.989 59.571,32.987 C59.605,32.984 59.634,32.98 59.656,32.979 C59.677,32.977 59.686,32.978 59.686,32.977 C59.814,32.977 59.904,32.914 59.949,32.87 C60.095,32.708 60.092,32.613 60.131,32.479 C60.157,32.353 60.172,32.209 60.173,32.064 C60.172,31.934 60.162,31.805 60.122,31.672 z M57.996,40.107 L57.996,33.229 C58.312,33.151 58.586,33.081 58.688,33.056 L58.815,33.056 L58.815,39.954 C58.553,40.036 58.28,40.088 57.996,40.107 z M56.44,39.933 L56.44,33.519 C56.501,33.515 56.56,33.513 56.607,33.513 C56.748,33.51 56.891,33.478 57.108,33.435 C57.172,33.421 57.24,33.405 57.311,33.39 L57.311,40.094 C57.013,40.066 56.722,40.012 56.44,39.933 z M53.578,36.84 C54.378,35.859 55.26,34.653 55.755,33.968 L55.755,39.683 C55.413,39.524 55.095,39.326 54.815,39.088 C54.17,38.536 53.716,37.789 53.578,36.84 z M53.712,49.375 L53.961,49.324 C54.12,49.292 54.234,49.151 54.234,48.989 L54.246,44.546 C55.16,44.915 56.223,45.128 57.434,45.128 C57.438,45.128 57.441,45.128 57.445,45.128 C58.222,45.129 58.944,45.042 59.612,44.887 L59.931,72.411 L59.932,72.43 C59.932,72.43 59.933,72.448 59.933,72.499 C59.935,72.78 59.86,73.766 59.053,74.346 C58.053,75.079 55.81,76.243 52.778,76.325 L53.712,49.375 z M42.26,41.453 C41.72,40.711 40.146,38.506 39.613,34.485 C39.65,34.527 39.688,34.569 39.725,34.609 C40.295,35.206 40.941,35.603 41.327,35.801 C44.758,37.64 50.269,39.809 50.275,39.812 C50.278,39.813 50.282,39.813 50.286,39.814 C50.335,40.044 50.398,40.271 50.471,40.495 L45.301,40.812 C45.301,40.812 44.694,40.838 44.256,40.963 C43.728,41.112 42.519,41.455 42.438,41.482 C42.336,41.515 42.278,41.479 42.26,41.453 z M40.155,50.101 C40.155,50.101 42.383,42.4 42.413,42.297 C42.443,42.193 42.546,42.164 42.546,42.164 C42.546,42.164 44.177,41.707 44.437,41.623 C44.696,41.539 45.123,41.508 45.123,41.508 L50.727,41.164 C51.02,41.821 51.42,42.442 51.938,42.987 C52.392,43.467 52.935,43.886 53.563,44.225 C53.563,44.225 53.551,48.486 53.551,48.567 C53.551,48.649 53.511,48.739 53.332,48.754 C53.152,48.769 47.695,49.151 46.335,49.247 C46.142,49.26 45.911,49.294 45.703,49.351 C45.496,49.408 40.744,50.711 40.744,50.711 C40.744,50.711 40.582,50.736 40.501,50.673 C40.419,50.608 40.377,50.574 40.231,50.458 C40.085,50.342 40.155,50.101 40.155,50.101 z M52.101,78.346 C52.101,78.346 52.989,79.497 53.023,79.549 C53.058,79.6 53.031,79.661 53.006,79.68 C51.662,80.778 49.482,81.546 46.99,81.821 C47.382,80.01 48.896,72.879 50.018,65.62 C51.174,58.135 51.688,51.027 51.787,49.55 C51.787,49.55 52.687,49.491 52.844,49.476 C53.001,49.46 53.021,49.553 53.017,49.648 C53.014,49.745 52.03,78.125 52.03,78.125 C52.027,78.206 52.053,78.284 52.101,78.346 z M63.129,67.219 C63.129,67.219 63.142,67.319 63.061,67.366 C62.981,67.411 60.573,68.762 60.573,68.762 L60.294,44.699 C60.567,44.61 60.83,44.507 61.081,44.393 L63.129,67.219 z M62.124,43.442 C61.939,43.182 61.878,43.005 61.88,42.89 C61.88,42.85 61.886,42.814 61.898,42.771 L61.9,42.771 C61.926,42.707 62.131,42.487 62.315,42.332 C62.5,42.17 62.665,42.045 62.665,42.044 C62.762,41.984 62.824,41.83 62.816,41.738 C62.811,41.602 62.775,41.554 62.754,41.5 C62.73,41.452 62.706,41.41 62.687,41.371 C62.664,41.32 62.649,41.206 62.752,41.104 C62.869,40.986 63.033,41.034 63.068,41.049 C63.193,41.1 63.403,41.195 63.605,41.315 C63.903,41.489 64.203,41.734 64.314,41.939 C64.426,42.133 64.517,42.386 64.513,42.557 C64.512,42.67 64.466,42.757 64.41,42.819 C64.3,42.944 63.294,43.789 63.19,43.854 C63.083,43.93 62.652,44.113 62.287,44.248 C62.18,44.288 62.077,44.326 61.985,44.359 C61.859,44.412 61.839,44.329 61.839,44.329 C61.839,44.329 61.814,44.254 61.864,44.206 C61.921,44.159 61.98,44.107 62.035,44.046 C62.095,43.966 62.184,43.892 62.198,43.678 C62.199,43.606 62.175,43.515 62.124,43.442 z M52.611,24.484 C52.611,24.333 52.663,24.309 52.689,24.312 C53.211,24.395 53.494,24.62 53.677,24.836 C53.79,24.972 53.858,25.109 53.897,25.21 C53.917,25.261 53.929,25.302 53.936,25.328 C53.94,25.342 53.941,25.351 53.942,25.355 L53.943,25.356 C53.971,25.521 54.114,25.642 54.281,25.642 L60.963,25.642 C61.133,25.642 61.276,25.518 61.302,25.35 C61.309,25.316 61.362,25.101 61.576,24.895 C61.755,24.727 62.049,24.544 62.582,24.478 C62.655,24.462 62.667,24.533 62.667,24.597 C62.667,25.304 62.643,26.778 62.643,28.919 C62.643,30.662 63.092,32.067 63.523,33.459 C63.955,34.854 64.372,36.236 64.372,38 C64.372,38.943 64.192,39.847 63.844,40.664 C63.537,40.493 63.279,40.389 63.137,40.348 C63.088,40.335 63.04,40.329 62.994,40.329 C62.723,40.341 62.549,40.461 62.377,40.58 C62.208,40.717 62.079,40.813 61.982,41.024 C61.955,41.095 61.944,41.167 61.944,41.233 C61.948,41.421 62.012,41.55 62.061,41.649 C61.99,41.707 61.907,41.776 61.821,41.854 C61.71,41.953 61.594,42.063 61.493,42.177 C61.393,42.294 61.302,42.397 61.245,42.568 C61.212,42.672 61.195,42.78 61.195,42.89 C61.196,43.099 61.254,43.293 61.351,43.485 C60.315,44.087 59.014,44.442 57.445,44.442 C55.159,44.44 53.522,43.656 52.435,42.516 C51.626,41.665 51.125,40.605 50.922,39.509 C51.26,39.224 51.852,38.702 52.603,37.949 C52.731,37.82 52.87,37.669 53.018,37.503 C53.259,38.361 53.741,39.076 54.371,39.609 C55.248,40.354 56.398,40.757 57.589,40.793 C57.61,40.797 57.631,40.8 57.653,40.8 C57.663,40.8 57.671,40.798 57.68,40.797 C57.708,40.798 57.735,40.801 57.763,40.801 C60.337,40.793 62.265,38.517 62.27,35.992 C62.268,34.859 62.004,34.068 61.757,32.847 C61.509,31.621 61.259,29.921 61.259,26.923 C61.259,26.833 61.222,26.745 61.158,26.682 C61.095,26.617 61.006,26.581 60.916,26.581 L54.319,26.581 C54.228,26.581 54.14,26.617 54.077,26.681 C54.013,26.745 53.976,26.833 53.976,26.923 C53.976,29.068 53.838,30.445 53.661,31.474 L52.111,32.65 C52.234,32.205 52.345,31.753 52.432,31.291 C52.438,31.271 52.441,31.252 52.443,31.231 C52.553,30.637 52.623,30.024 52.626,29.39 C52.626,27.139 52.616,25.342 52.611,24.484 z M41.879,29.706 C42.402,29.704 42.87,29.856 43.142,30.133 C43.587,30.577 44.067,31.183 44.432,31.674 C44.796,32.165 45.044,32.539 45.045,32.54 C45.07,32.578 45.101,32.609 45.139,32.635 L49.243,35.398 C49.365,35.481 49.524,35.477 49.642,35.388 L54.868,31.416 L54.89,31.397 C54.89,31.397 55.006,31.293 55.158,31.166 C55.308,31.04 55.499,30.89 55.616,30.816 C55.888,30.637 57.042,29.953 57.775,29.933 C57.84,29.93 57.902,29.928 57.961,29.928 C58.315,29.926 58.576,29.987 58.705,30.073 C58.829,30.162 58.886,30.233 58.895,30.489 C58.895,30.907 58.902,31.524 58.902,31.524 C58.904,31.69 59.023,31.801 59.186,31.829 C59.315,31.829 59.488,31.866 59.488,32.064 C59.488,32.291 59.333,32.325 59.26,32.334 C59.135,32.35 59.018,32.364 58.969,32.371 L58.646,32.37 L58.56,32.381 C58.559,32.381 58.119,32.495 57.646,32.609 C57.409,32.665 57.165,32.723 56.966,32.764 C56.868,32.784 56.78,32.802 56.713,32.813 C56.68,32.818 56.652,32.823 56.632,32.825 C56.612,32.828 56.607,32.827 56.607,32.828 C56.305,32.829 55.836,32.881 55.829,32.882 C55.732,32.893 55.643,32.945 55.587,33.024 C55.585,33.026 55.008,33.848 54.282,34.816 C53.558,35.784 52.68,36.904 52.119,37.466 C51.536,38.05 51.051,38.491 50.714,38.785 C50.609,38.877 50.518,38.953 50.443,39.016 C50.405,39.048 50.311,39.09 50.214,39.05 C49.712,38.844 48.642,38.415 47.354,37.864 C45.555,37.096 43.331,36.098 41.644,35.194 C41.308,35.022 40.713,34.655 40.221,34.137 C40.168,34.081 40.117,34.023 40.066,33.964 C40.05,33.944 40.034,33.925 40.019,33.906 C39.981,33.86 39.944,33.813 39.909,33.766 C39.882,33.729 39.855,33.69 39.83,33.653 C39.808,33.621 39.786,33.589 39.765,33.556 C39.741,33.518 39.717,33.479 39.694,33.439 C39.685,33.423 39.677,33.406 39.668,33.391 C39.622,33.308 39.581,33.222 39.543,33.135 C39.538,33.122 39.533,33.11 39.527,33.099 C39.507,33.047 39.487,32.996 39.47,32.944 C39.47,32.943 39.47,32.943 39.47,32.943 C39.469,32.942 39.469,32.941 39.469,32.94 C39.438,32.849 39.414,32.755 39.394,32.658 C39.385,32.617 39.377,32.576 39.371,32.534 C39.366,32.503 39.361,32.471 39.358,32.439 C39.35,32.359 39.343,32.28 39.343,32.198 C39.343,32.145 39.346,32.09 39.35,32.035 C39.353,31.99 39.358,31.943 39.364,31.897 C39.365,31.89 39.366,31.882 39.367,31.874 C39.382,31.765 39.405,31.652 39.437,31.538 C39.437,31.537 39.437,31.537 39.437,31.537 L39.437,31.536 C39.457,31.467 39.479,31.396 39.504,31.324 C39.506,31.32 39.507,31.317 39.508,31.313 C39.532,31.248 39.56,31.18 39.589,31.112 C39.594,31.103 39.598,31.093 39.602,31.083 C39.63,31.021 39.663,30.956 39.696,30.892 C39.704,30.878 39.71,30.863 39.718,30.849 C39.76,30.771 39.805,30.693 39.855,30.612 C40.165,30.092 41.06,29.697 41.879,29.706 z M45.231,30.361 C45.292,30.409 45.366,30.434 45.442,30.434 C45.45,30.434 45.458,30.434 45.465,30.434 L49.451,30.162 C49.582,30.153 49.696,30.071 49.745,29.949 C49.795,29.828 49.771,29.69 49.684,29.593 L48.966,28.789 C49.383,28.917 49.743,29.028 50.021,29.113 C50.233,29.167 50.625,29.512 50.957,29.958 C51.271,30.368 51.558,30.854 51.747,31.246 C51.606,31.953 51.403,32.65 51.189,33.353 L49.422,34.694 L45.577,32.104 C45.382,31.816 44.487,30.513 43.627,29.648 C43.17,29.197 42.524,29.021 41.879,29.021 C41.76,29.021 41.64,29.028 41.521,29.041 C41.689,28.948 41.858,28.858 42.023,28.771 C42.273,28.639 42.513,28.514 42.727,28.403 L45.231,30.361 z M49.201,24.676 C49.201,24.676 49.207,24.782 49.116,24.833 C49.025,24.884 48.963,24.974 48.946,25.076 C48.929,25.179 48.974,25.276 49.029,25.36 C49.042,25.381 49.045,25.425 49.022,25.466 C48.999,25.507 48.955,25.585 48.955,25.585 C48.906,25.669 48.896,25.769 48.926,25.86 C48.926,25.86 48.926,25.86 48.93,25.874 C48.941,25.914 48.966,26.027 48.966,26.145 C48.966,26.211 48.913,26.402 48.779,26.461 C48.651,26.516 48.435,26.559 48.151,26.568 L47.429,26.554 C47.262,26.55 47.116,26.669 47.086,26.834 C47.083,26.85 47.066,26.942 47.066,27.083 C47.067,27.271 47.094,27.552 47.247,27.838 C47.305,27.948 47.384,28.057 47.485,28.156 C47.486,28.157 47.487,28.159 47.488,28.161 L48.707,29.526 L45.549,29.741 L43.399,28.06 C43.505,28.007 43.566,27.976 43.566,27.976 C43.684,27.918 43.757,27.8 43.757,27.669 L43.757,26.676 L45.137,25.292 C45.222,25.207 45.256,25.081 45.227,24.966 C45.197,24.849 45.107,24.756 44.993,24.722 L44.993,24.721 C44.93,24.678 44.517,24.546 44.503,23.7 C44.508,23.562 44.542,23.543 44.571,23.511 C44.582,23.502 44.595,23.494 44.605,23.489 L45.502,23.481 C45.608,23.48 45.708,23.431 45.773,23.347 C45.773,23.347 47.21,21.447 47.309,21.324 C47.407,21.199 47.558,21.191 47.558,21.191 L49.504,20.978 C49.504,20.978 49.604,20.972 49.619,21.093 C49.635,21.272 49.656,21.49 49.678,21.728 C49.682,21.827 49.616,21.864 49.579,21.865 C49.331,21.873 49.074,21.88 48.799,21.891 C48.511,21.901 48.198,22.033 47.991,22.208 C47.837,22.337 47.832,22.577 47.975,22.715 C48.054,22.791 48.225,22.816 48.412,22.873 C48.648,22.944 48.91,23.034 49.042,22.992 C49.209,22.938 49.273,22.79 49.284,22.628 C49.297,22.447 49.405,22.323 49.588,22.323 C49.665,22.323 49.712,22.387 49.719,22.452 C49.753,22.793 49.816,23.225 49.837,23.47 C49.847,23.59 49.857,23.701 49.864,23.795 C49.867,23.917 49.76,23.927 49.706,23.933 C49.592,23.947 49.502,23.95 49.502,23.951 C49.41,23.955 49.324,23.996 49.263,24.065 C49.201,24.135 49.17,24.224 49.177,24.316 L49.201,24.676 z M43.964,22.059 C43.903,21.884 43.716,21.789 43.541,21.843 C43.69,21.71 43.838,21.581 43.981,21.459 L45.452,21.267 C45.64,21.241 45.772,21.069 45.747,20.882 C45.723,20.694 45.55,20.563 45.363,20.587 L45.139,20.616 C45.598,20.346 46.069,20.127 46.457,19.967 C46.719,19.859 46.944,19.776 47.102,19.722 C47.259,19.668 47.346,19.643 47.346,19.642 C47.527,19.588 47.631,19.398 47.577,19.216 C47.523,19.035 47.333,18.932 47.151,18.985 C47.141,18.989 46.568,19.158 45.829,19.492 C45.936,19.338 45.899,19.125 45.745,19.017 C45.59,18.908 45.376,18.945 45.268,19.1 L44.481,20.219 C44.41,20.265 44.339,20.312 44.27,20.359 C44.169,20.431 44.058,20.515 43.94,20.607 L44.02,20.451 C44.106,20.283 44.04,20.076 43.872,19.99 C43.704,19.903 43.497,19.97 43.411,20.139 L42.548,21.816 C42.335,22.015 42.135,22.202 41.965,22.364 C41.992,21.468 42.233,19.892 43.238,19.141 C44.227,18.384 45.045,18.224 45.727,18.221 C46.129,18.221 46.482,18.281 46.795,18.326 C46.944,18.346 47.471,18.473 47.928,18.589 C48.391,18.707 48.806,18.817 48.806,18.818 L48.895,18.829 C49.401,18.831 49.651,18.961 49.786,19.096 C49.92,19.232 49.974,19.414 49.975,19.615 C49.977,19.788 49.902,19.982 49.818,20.129 C49.788,20.183 49.759,20.226 49.732,20.263 L47.175,20.543 C47.082,20.554 46.997,20.602 46.94,20.676 L45.329,22.798 L44.541,22.804 L44.469,22.813 C44.437,22.82 44.294,22.853 44.133,22.985 C43.972,23.113 43.813,23.37 43.818,23.7 C43.815,24.34 44.035,24.778 44.278,25.033 C44.303,25.061 44.328,25.085 44.353,25.109 L43.304,26.16 C43.141,26.116 42.876,26.024 42.627,25.851 C42.309,25.626 42.019,25.297 41.924,24.721 C41.871,24.388 41.853,24.113 41.853,23.895 C41.853,23.663 41.873,23.496 41.895,23.38 C41.898,23.376 41.903,23.374 41.907,23.37 C41.907,23.369 42.061,23.219 42.302,22.988 L43.75,22.493 C43.929,22.432 44.025,22.237 43.964,22.059 z M25.984,57.94 C26.177,57.977 26.357,57.994 26.525,57.994 C27.129,57.996 27.569,57.766 27.836,57.531 C28.106,57.296 28.218,57.066 28.232,57.039 L28.233,57.036 C28.233,57.035 28.234,57.034 28.234,57.034 C28.236,57.03 28.238,57.025 28.242,57.016 L28.261,56.97 L38.685,32.593 C38.707,32.755 38.755,33.071 38.8,33.223 C38.961,35.961 39.59,37.879 40.251,39.352 C40.632,40.204 41.021,40.855 41.326,41.313 C41.478,41.543 41.61,41.726 41.708,41.858 C41.74,41.903 41.77,41.942 41.793,41.975 L39.363,50.372 C39.324,50.505 39.371,50.65 39.479,50.735 L40.058,51.195 C40.058,51.195 40.131,51.263 40.096,51.389 C40.063,51.515 37.392,61.371 37.392,61.371 L28.914,71.106 C28.287,70.584 26.446,68.881 24.014,65.102 C21.895,61.812 21.262,59.737 21.267,58.554 C21.268,57.965 21.414,57.608 21.588,57.386 C21.59,57.383 21.593,57.381 21.595,57.378 L21.603,57.366 C21.614,57.354 21.625,57.34 21.635,57.328 C21.829,57.112 22.067,57.037 22.247,57.037 C22.269,57.037 22.291,57.038 22.312,57.041 C23.255,57.15 24.587,57.662 25.984,57.94 z M21.417,48.636 L38.369,31.495 L28.206,55.354 C28.055,54.955 27.787,54.52 27.341,54.09 C26.391,53.168 22.474,49.599 21.417,48.636 z M26.864,54.581 C27.562,55.264 27.688,55.858 27.691,56.259 C27.691,56.42 27.668,56.551 27.646,56.637 C27.635,56.68 27.625,56.712 27.618,56.731 C27.616,56.736 27.615,56.74 27.613,56.743 C27.582,56.79 27.309,57.309 26.525,57.309 C26.404,57.309 26.269,57.297 26.116,57.267 C24.79,57.009 23.48,56.495 22.397,56.361 C22.379,56.358 22.358,56.359 22.339,56.357 L24.941,52.788 C25.791,53.57 26.527,54.255 26.864,54.581 z M27.148,74.801 C27.097,74.76 27.009,74.614 27.054,74.504 C27.072,74.459 27.097,74.411 27.125,74.36 C27.272,74.084 27.512,73.766 27.712,73.524 C28.066,74.288 28.921,75.766 30.726,77.36 C29.481,76.587 28.286,75.735 27.148,74.801 z M79.73,35.663 C78.006,31.597 75.55,27.951 72.417,24.818 C69.287,21.691 65.64,19.23 61.579,17.511 C57.374,15.736 52.906,14.837 48.307,14.837 C43.701,14.837 39.235,15.736 35.029,17.511 C30.967,19.23 27.323,21.692 24.189,24.818 C21.059,27.951 18.601,31.597 16.886,35.664 C15.104,39.865 14.201,44.333 14.201,48.931 C14.201,53.538 15.104,58.009 16.886,62.208 C18.601,66.266 21.059,69.915 24.188,73.047 C27.323,76.176 30.967,78.637 35.028,80.356 C36.301,80.893 37.598,81.35 38.915,81.727 C38.927,81.731 38.938,81.735 38.949,81.739 C39.61,81.946 40.281,82.11 40.956,82.241 C43.353,82.768 45.809,83.034 48.307,83.034 C49.829,83.034 51.335,82.934 52.823,82.737 C52.827,82.737 52.831,82.737 52.834,82.737 C53.701,82.688 54.311,82.557 54.714,82.432 C57.062,81.987 59.358,81.296 61.579,80.356 C65.64,78.637 69.287,76.176 72.417,73.047 L72.175,72.805 L72.417,73.047 C75.55,69.915 78.006,66.266 79.729,62.208 C81.503,58.009 82.404,53.538 82.404,48.931 C82.404,44.333 81.503,39.865 79.73,35.663" fill="#FFFFFE"/>
    <path d="M9.244,51.799 C9.637,51.748 9.974,51.752 10.255,51.81 C10.537,51.869 10.774,51.984 10.969,52.155 C11.164,52.327 11.318,52.556 11.432,52.842 C11.546,53.127 11.629,53.471 11.682,53.874 C11.727,54.218 11.731,54.536 11.696,54.827 C11.66,55.119 11.574,55.376 11.436,55.6 C11.298,55.822 11.106,56.006 10.859,56.15 C10.613,56.295 10.026,56.419 10.026,56.419 C9.97,56.431 9.878,56.446 9.822,56.453 L6.8,56.849 C6.744,56.857 6.695,56.908 6.692,56.966 L6.667,57.411 C6.663,57.468 6.614,57.521 6.558,57.528 L6.424,57.546 C6.368,57.553 6.315,57.513 6.308,57.456 L6.042,55.421 C6.035,55.364 6.075,55.313 6.131,55.305 L6.265,55.287 C6.321,55.28 6.382,55.318 6.4,55.372 L6.538,55.788 C6.556,55.843 6.617,55.881 6.673,55.873 L10.056,55.432 C10.47,55.377 10.78,55.211 10.987,54.933 C11.194,54.653 11.266,54.271 11.202,53.781 C11.136,53.276 10.964,52.926 10.687,52.73 C10.41,52.533 9.568,52.54 9.568,52.54 C9.511,52.54 9.418,52.547 9.362,52.555 L6.292,52.956 C6.235,52.963 6.186,53.016 6.183,53.073 L6.157,53.518 C6.154,53.575 6.105,53.627 6.048,53.635 L5.915,53.652 C5.858,53.66 5.806,53.619 5.799,53.563 L5.561,51.737 C5.553,51.681 5.593,51.629 5.649,51.621 L5.783,51.605 C5.839,51.597 5.9,51.635 5.918,51.688 L6.058,52.113 C6.075,52.167 6.136,52.205 6.192,52.198 L9.244,51.799" fill="#FFFFFE"/>
    <path d="M5.595,47.067 C5.6,47.009 5.644,46.939 5.692,46.91 L9.961,44.367 L6.389,44.104 C6.332,44.1 6.273,44.141 6.258,44.196 L6.143,44.619 C6.128,44.674 6.069,44.715 6.013,44.711 L5.878,44.701 C5.822,44.696 5.779,44.646 5.783,44.59 L5.916,42.835 C5.92,42.778 5.97,42.735 6.027,42.739 L6.162,42.75 C6.218,42.754 6.27,42.804 6.276,42.86 L6.326,43.304 C6.333,43.36 6.384,43.41 6.441,43.415 L11.5,43.799 C11.557,43.803 11.6,43.854 11.596,43.91 L11.558,44.408 C11.553,44.465 11.51,44.535 11.46,44.564 L6.529,47.457 L10.685,47.771 C10.741,47.776 10.8,47.735 10.815,47.68 L10.93,47.257 C10.945,47.202 11.004,47.16 11.061,47.165 L11.195,47.175 C11.251,47.179 11.294,47.229 11.29,47.285 L11.157,49.041 C11.153,49.098 11.103,49.141 11.046,49.137 L10.912,49.126 C10.855,49.122 10.803,49.072 10.797,49.016 L10.747,48.571 C10.741,48.516 10.689,48.465 10.632,48.461 L6.085,48.116 C6.028,48.112 5.969,48.153 5.955,48.209 L5.838,48.64 C5.823,48.694 5.765,48.736 5.708,48.731 L5.574,48.722 C5.517,48.718 5.474,48.667 5.478,48.61 L5.595,47.067" fill="#FFFFFE"/>
    <path d="M7.348,37.593 C7.404,37.607 7.446,37.664 7.443,37.721 L7.419,38.159 C7.416,38.216 7.458,38.274 7.514,38.288 L11.939,39.393 C11.994,39.407 12.059,39.376 12.083,39.324 L12.268,38.927 C12.292,38.875 12.356,38.844 12.412,38.857 L12.543,38.89 C12.598,38.904 12.632,38.961 12.618,39.016 L12.12,41.008 C12.106,41.063 12.05,41.097 11.995,41.082 L11.864,41.05 C11.809,41.036 11.766,40.978 11.77,40.921 L11.793,40.483 C11.796,40.427 11.754,40.369 11.698,40.354 L7.274,39.25 C7.219,39.236 7.154,39.267 7.13,39.318 L6.945,39.716 C6.921,39.768 6.856,39.799 6.801,39.785 L6.67,39.752 C6.615,39.739 6.581,39.683 6.595,39.627 L7.092,37.636 C7.106,37.58 7.163,37.547 7.218,37.561 L7.348,37.593" fill="#FFFFFE"/>
    <path d="M14.282,34.234 C14.322,34.274 14.338,34.35 14.315,34.402 L14.075,34.967 C14.053,35.02 13.988,35.059 13.931,35.056 L8.56,34.692 C8.503,34.688 8.429,34.724 8.396,34.769 L8.198,35.04 C8.165,35.086 8.095,35.105 8.042,35.083 L7.918,35.03 C7.866,35.009 7.841,34.947 7.863,34.895 L8.6,33.163 C8.623,33.11 8.684,33.086 8.736,33.108 L8.86,33.161 C8.913,33.183 8.947,33.247 8.937,33.303 L8.873,33.648 C8.863,33.705 8.9,33.754 8.958,33.759 L13.271,34.093 L10.104,31.062 C10.063,31.022 10.002,31.029 9.97,31.076 L9.732,31.425 C9.701,31.473 9.632,31.493 9.579,31.471 L9.455,31.418 C9.403,31.396 9.378,31.334 9.4,31.282 L10.064,29.723 C10.086,29.67 10.148,29.646 10.2,29.668 L10.324,29.721 C10.377,29.743 10.41,29.807 10.398,29.862 L10.314,30.269 C10.302,30.323 10.326,30.402 10.367,30.441 L14.282,34.234" fill="#FFFFFE"/>
    <path d="M25.073,19.494 C25.203,19.46 25.337,19.409 25.477,19.343 C25.616,19.277 25.73,19.211 25.817,19.147 C26.126,18.918 26.319,18.673 26.395,18.411 C26.471,18.15 26.417,17.894 26.233,17.646 C26.124,17.497 25.997,17.395 25.854,17.338 C25.711,17.282 25.56,17.253 25.399,17.25 C25.239,17.247 25.073,17.262 24.902,17.294 C24.73,17.326 24.559,17.355 24.389,17.38 C24.131,17.414 23.898,17.445 23.689,17.473 C23.48,17.499 23.288,17.502 23.115,17.481 C22.941,17.462 22.782,17.409 22.635,17.325 C22.489,17.242 22.35,17.11 22.217,16.931 C22.072,16.735 21.985,16.531 21.957,16.319 C21.928,16.108 21.952,15.895 22.026,15.682 C22.101,15.468 22.224,15.257 22.397,15.048 C22.569,14.84 22.784,14.641 23.042,14.45 C23.137,14.379 23.246,14.309 23.366,14.24 C23.487,14.171 23.61,14.105 23.736,14.042 C23.862,13.98 23.986,13.923 24.11,13.872 C24.234,13.821 24.349,13.785 24.349,13.785 C24.403,13.769 24.459,13.764 24.473,13.775 C24.488,13.787 24.523,13.838 24.55,13.887 L24.982,14.647 C25.01,14.697 24.996,14.766 24.95,14.8 L24.666,15.01 C24.62,15.043 24.546,15.041 24.503,15.005 L23.973,14.561 C23.879,14.563 23.77,14.588 23.645,14.637 C23.519,14.686 23.382,14.765 23.234,14.874 C22.968,15.071 22.802,15.289 22.738,15.529 C22.673,15.77 22.721,15.999 22.882,16.217 C22.985,16.357 23.097,16.453 23.217,16.506 C23.337,16.559 23.464,16.586 23.6,16.587 C23.736,16.588 23.877,16.573 24.023,16.543 C24.168,16.513 24.319,16.483 24.474,16.456 C24.688,16.427 24.912,16.392 25.145,16.351 C25.377,16.311 25.604,16.295 25.823,16.305 C26.042,16.313 26.249,16.359 26.442,16.438 C26.636,16.518 26.802,16.661 26.942,16.868 C27.12,17.135 27.22,17.39 27.244,17.632 C27.268,17.874 27.235,18.105 27.146,18.326 C27.057,18.547 26.914,18.761 26.719,18.966 C26.524,19.171 26.295,19.37 26.034,19.563 C25.798,19.737 25.552,19.888 25.295,20.014 C25.038,20.14 24.704,20.275 24.704,20.275 C24.651,20.297 24.597,20.304 24.585,20.29 C24.573,20.278 24.539,20.227 24.511,20.178 L24.074,19.421 C24.045,19.371 24.059,19.303 24.105,19.27 L24.39,19.059 C24.435,19.025 24.509,19.027 24.552,19.064 L25.073,19.494" fill="#FFFFFE"/>
    <path d="M29.161,11.085 C29.188,11.136 29.174,11.206 29.13,11.242 L28.79,11.519 C28.746,11.555 28.731,11.625 28.759,11.675 L30.918,15.693 C30.945,15.743 31.011,15.77 31.065,15.753 L31.484,15.622 C31.539,15.605 31.605,15.632 31.632,15.683 L31.696,15.801 C31.723,15.851 31.704,15.914 31.654,15.941 L29.846,16.913 C29.795,16.941 29.732,16.921 29.705,16.871 L29.642,16.752 C29.614,16.702 29.629,16.632 29.673,16.596 L30.013,16.318 C30.058,16.282 30.071,16.213 30.044,16.162 L27.885,12.146 C27.858,12.095 27.792,12.067 27.737,12.085 L27.319,12.215 C27.265,12.232 27.198,12.205 27.171,12.155 L27.107,12.037 C27.08,11.986 27.099,11.923 27.149,11.896 L28.957,10.924 C29.007,10.897 29.07,10.917 29.098,10.967 L29.161,11.085" fill="#FFFFFE"/>
    <path d="M31.407,9.773 C31.419,9.739 31.473,9.697 31.526,9.678 L35.747,8.143 C35.801,8.123 35.867,8.114 35.894,8.124 C35.921,8.133 35.96,8.184 35.982,8.236 L36.346,9.14 C36.367,9.192 36.341,9.251 36.287,9.271 L35.947,9.395 C35.894,9.414 35.824,9.392 35.792,9.344 L35.495,8.904 C35.463,8.856 35.392,8.831 35.337,8.848 L34.896,8.979 C34.841,8.994 34.753,9.023 34.699,9.043 L34.271,9.198 L35.855,13.561 C35.875,13.613 35.936,13.65 35.993,13.641 L36.426,13.571 C36.482,13.563 36.544,13.599 36.564,13.652 L36.61,13.779 C36.629,13.833 36.601,13.893 36.548,13.911 L34.619,14.613 C34.565,14.633 34.505,14.604 34.486,14.551 L34.44,14.424 C34.42,14.371 34.444,14.303 34.493,14.274 L34.87,14.049 C34.919,14.02 34.943,13.952 34.923,13.898 L33.336,9.537 L32.908,9.694 C32.855,9.714 32.768,9.748 32.715,9.772 L32.293,9.955 C32.241,9.978 32.203,10.043 32.208,10.1 L32.264,10.627 C32.27,10.684 32.231,10.746 32.177,10.766 L31.837,10.889 C31.784,10.908 31.726,10.88 31.708,10.825 L31.418,9.931 C31.4,9.877 31.396,9.806 31.407,9.773" fill="#FFFFFE"/>
    <path d="M40.371,7.886 L39.939,10.285 L41.529,9.985 L40.371,7.886 z M41.742,10.367 L39.856,10.724 L39.565,12.451 C39.556,12.507 39.595,12.554 39.652,12.556 L40.043,12.563 C40.1,12.563 40.155,12.61 40.165,12.667 L40.19,12.799 C40.201,12.855 40.164,12.909 40.108,12.92 L38.458,13.232 C38.402,13.241 38.348,13.204 38.337,13.148 L38.312,13.016 C38.302,12.96 38.336,12.896 38.388,12.874 L38.726,12.73 C38.779,12.709 38.83,12.645 38.841,12.589 L39.882,7.165 C39.893,7.109 39.947,7.055 40.003,7.044 L40.726,6.907 C40.782,6.898 40.851,6.929 40.879,6.979 L43.563,11.695 C43.591,11.745 43.661,11.787 43.718,11.788 L44.076,11.8 C44.133,11.802 44.189,11.849 44.199,11.904 L44.224,12.037 C44.234,12.093 44.197,12.148 44.141,12.157 L42.252,12.515 C42.196,12.525 42.142,12.488 42.131,12.433 L42.106,12.3 C42.096,12.243 42.13,12.18 42.182,12.157 L42.52,12.014 C42.573,11.992 42.593,11.933 42.566,11.883 L41.742,10.367" fill="#FFFFFE"/>
    <path d="M46.964,11.53 C47.088,11.578 47.227,11.617 47.379,11.646 C47.53,11.675 47.661,11.689 47.769,11.688 C48.154,11.688 48.454,11.604 48.67,11.437 C48.886,11.271 48.994,11.033 48.993,10.724 C48.992,10.539 48.95,10.382 48.869,10.253 C48.787,10.122 48.682,10.009 48.554,9.912 C48.426,9.815 48.284,9.73 48.126,9.653 C47.969,9.578 47.814,9.5 47.662,9.419 C47.434,9.296 47.227,9.183 47.043,9.08 C46.858,8.979 46.701,8.868 46.574,8.749 C46.446,8.63 46.348,8.494 46.279,8.339 C46.211,8.185 46.176,7.997 46.175,7.774 C46.174,7.53 46.225,7.315 46.327,7.127 C46.429,6.94 46.573,6.781 46.76,6.653 C46.946,6.524 47.17,6.427 47.433,6.361 C47.695,6.295 47.986,6.262 48.306,6.26 C48.425,6.26 48.554,6.267 48.692,6.282 C48.831,6.298 48.969,6.318 49.107,6.342 C49.246,6.366 49.38,6.394 49.51,6.425 C49.64,6.457 49.754,6.496 49.754,6.496 C49.808,6.515 49.855,6.545 49.86,6.562 C49.864,6.58 49.863,6.641 49.856,6.698 L49.755,7.566 C49.749,7.623 49.697,7.67 49.64,7.67 L49.286,7.671 C49.229,7.672 49.171,7.626 49.158,7.571 L48.992,6.899 C48.916,6.846 48.812,6.802 48.682,6.767 C48.552,6.732 48.395,6.715 48.211,6.716 C47.88,6.717 47.618,6.796 47.423,6.951 C47.229,7.107 47.132,7.319 47.133,7.591 C47.134,7.765 47.167,7.908 47.233,8.023 C47.298,8.135 47.385,8.232 47.494,8.314 C47.603,8.395 47.725,8.466 47.861,8.527 C47.997,8.59 48.135,8.655 48.277,8.726 C48.467,8.827 48.668,8.931 48.88,9.036 C49.091,9.141 49.283,9.262 49.454,9.399 C49.625,9.537 49.766,9.695 49.875,9.874 C49.983,10.052 50.033,10.267 50.023,10.516 C50.009,10.836 49.94,11.101 49.816,11.31 C49.692,11.52 49.529,11.687 49.327,11.813 C49.124,11.938 48.883,12.025 48.604,12.076 C48.325,12.126 48.023,12.151 47.698,12.152 C47.405,12.154 47.118,12.13 46.836,12.079 C46.554,12.029 46.204,11.941 46.204,11.941 C46.149,11.927 46.102,11.901 46.1,11.884 C46.097,11.866 46.101,11.805 46.106,11.748 L46.201,10.879 C46.208,10.823 46.259,10.776 46.316,10.776 L46.67,10.775 C46.727,10.775 46.785,10.819 46.799,10.874 L46.964,11.53" fill="#FFFFFE"/>
    <path d="M62.213,9.739 C62.062,9.263 61.732,8.942 61.222,8.776 C60.706,8.609 60.249,8.67 59.848,8.956 C59.448,9.242 59.117,9.788 58.856,10.593 C58.592,11.408 58.534,12.054 58.682,12.529 C58.83,13.005 59.161,13.326 59.676,13.493 C60.192,13.66 60.65,13.601 61.051,13.314 C61.451,13.027 61.782,12.482 62.043,11.677 C62.307,10.862 62.364,10.216 62.213,9.739 z M61.701,13.837 C61.081,14.17 60.348,14.198 59.503,13.925 C59.095,13.792 58.751,13.615 58.47,13.393 C58.189,13.171 57.975,12.907 57.829,12.604 C57.682,12.299 57.606,11.957 57.602,11.576 C57.597,11.195 57.668,10.78 57.813,10.332 C57.965,9.862 58.161,9.47 58.4,9.153 C58.639,8.838 58.912,8.599 59.218,8.436 C59.524,8.272 59.861,8.183 60.228,8.168 C60.594,8.153 60.978,8.21 61.38,8.341 C61.783,8.471 62.125,8.648 62.409,8.871 C62.693,9.094 62.909,9.358 63.057,9.667 C63.205,9.974 63.282,10.32 63.289,10.704 C63.295,11.088 63.225,11.507 63.078,11.961 C62.781,12.88 62.322,13.505 61.701,13.837" fill="#FFFFFE"/>
    <path d="M65.045,15.511 C65.131,15.613 65.233,15.714 65.352,15.813 C65.472,15.911 65.579,15.985 65.674,16.037 C66.012,16.221 66.316,16.292 66.585,16.25 C66.855,16.208 67.064,16.051 67.211,15.779 C67.299,15.617 67.338,15.46 67.329,15.307 C67.32,15.153 67.282,15.004 67.217,14.856 C67.152,14.71 67.068,14.566 66.966,14.425 C66.864,14.283 66.766,14.141 66.671,13.996 C66.531,13.778 66.404,13.579 66.292,13.401 C66.179,13.223 66.095,13.051 66.04,12.885 C65.985,12.719 65.965,12.553 65.979,12.384 C65.993,12.216 66.054,12.034 66.159,11.839 C66.276,11.625 66.424,11.459 66.604,11.345 C66.783,11.229 66.986,11.159 67.211,11.137 C67.436,11.114 67.68,11.137 67.942,11.205 C68.204,11.273 68.475,11.384 68.756,11.536 C68.861,11.593 68.971,11.661 69.084,11.741 C69.198,11.821 69.31,11.906 69.419,11.993 C69.529,12.081 69.633,12.17 69.732,12.26 C69.831,12.351 69.912,12.439 69.912,12.439 C69.95,12.482 69.978,12.53 69.973,12.549 C69.969,12.566 69.938,12.619 69.905,12.666 L69.398,13.378 C69.365,13.425 69.297,13.441 69.247,13.414 L68.936,13.244 C68.886,13.218 68.857,13.15 68.872,13.095 L69.05,12.427 C69.009,12.343 68.94,12.254 68.843,12.161 C68.745,12.068 68.615,11.978 68.454,11.89 C68.163,11.732 67.895,11.675 67.649,11.718 C67.404,11.761 67.217,11.901 67.088,12.14 C67.005,12.292 66.965,12.434 66.968,12.564 C66.971,12.696 67,12.823 67.057,12.946 C67.113,13.069 67.186,13.191 67.275,13.311 C67.365,13.43 67.455,13.554 67.544,13.684 C67.662,13.864 67.788,14.052 67.923,14.245 C68.059,14.439 68.169,14.638 68.252,14.841 C68.336,15.044 68.383,15.25 68.394,15.459 C68.403,15.668 68.344,15.88 68.215,16.094 C68.048,16.367 67.86,16.566 67.651,16.691 C67.442,16.814 67.218,16.882 66.98,16.895 C66.742,16.908 66.489,16.869 66.22,16.778 C65.952,16.689 65.674,16.566 65.389,16.41 C65.131,16.271 64.892,16.111 64.669,15.932 C64.445,15.751 64.181,15.507 64.181,15.507 C64.139,15.467 64.11,15.422 64.117,15.405 C64.123,15.389 64.155,15.336 64.188,15.29 L64.689,14.573 C64.722,14.527 64.79,14.512 64.84,14.538 L65.15,14.707 C65.201,14.734 65.23,14.802 65.215,14.856 L65.045,15.511" fill="#FFFFFE"/>
    <path d="M70.97,19.249 C70.935,19.294 70.943,19.359 70.988,19.395 L71.688,19.944 C71.733,19.98 71.809,20.035 71.856,20.066 L72.228,20.323 C72.275,20.355 72.35,20.353 72.394,20.317 L72.85,19.949 C72.895,19.913 72.968,19.913 73.012,19.948 L73.297,20.172 C73.342,20.206 73.349,20.271 73.312,20.314 L72.706,21.034 C72.669,21.077 72.623,21.128 72.603,21.146 C72.582,21.165 72.529,21.151 72.485,21.116 L69.449,18.736 C69.404,18.701 69.396,18.636 69.432,18.591 L69.514,18.485 C69.549,18.441 69.62,18.425 69.67,18.451 L70.06,18.651 C70.111,18.677 70.181,18.662 70.216,18.617 L73.03,15.028 C73.065,14.983 73.064,14.911 73.026,14.868 L72.738,14.537 C72.701,14.494 72.699,14.422 72.734,14.377 L72.817,14.272 C72.852,14.228 72.917,14.219 72.962,14.254 L74.571,15.516 C74.616,15.551 74.624,15.616 74.589,15.661 L74.506,15.767 C74.471,15.812 74.401,15.827 74.35,15.801 L73.96,15.601 C73.909,15.574 73.838,15.59 73.804,15.635 L70.97,19.249" fill="#FFFFFE"/>
    <path d="M80.233,22.373 C80.347,21.887 80.226,21.442 79.871,21.04 C79.513,20.634 79.088,20.452 78.598,20.494 C78.107,20.537 77.544,20.838 76.91,21.397 C76.267,21.965 75.889,22.49 75.774,22.975 C75.658,23.459 75.779,23.904 76.138,24.312 C76.497,24.718 76.921,24.899 77.412,24.857 C77.902,24.814 78.465,24.514 79.099,23.954 C79.742,23.387 80.12,22.86 80.233,22.373 z M77.705,25.639 C77.002,25.609 76.357,25.26 75.769,24.593 C75.486,24.271 75.28,23.944 75.151,23.609 C75.023,23.275 74.973,22.94 75.002,22.604 C75.031,22.268 75.14,21.935 75.33,21.604 C75.52,21.275 75.791,20.953 76.145,20.642 C76.516,20.314 76.884,20.076 77.251,19.927 C77.617,19.776 77.974,19.71 78.321,19.726 C78.668,19.741 79.002,19.836 79.326,20.01 C79.649,20.184 79.95,20.429 80.23,20.746 C80.51,21.063 80.714,21.39 80.845,21.726 C80.976,22.063 81.026,22.401 80.997,22.741 C80.968,23.081 80.858,23.418 80.668,23.752 C80.478,24.086 80.204,24.41 79.846,24.727 C79.122,25.364 78.408,25.669 77.705,25.639" fill="#FFFFFE"/>
    <path d="M82.565,29.217 C82.607,29.181 82.619,29.11 82.59,29.061 L81.972,28.011 L79.94,29.235 L80.605,30.354 C80.633,30.403 80.684,30.481 80.715,30.528 L80.97,30.902 C81.002,30.95 81.073,30.974 81.127,30.956 L81.682,30.772 C81.736,30.755 81.804,30.78 81.833,30.829 L82.023,31.147 C82.051,31.196 82.034,31.259 81.984,31.286 L81.159,31.738 C81.109,31.766 81.047,31.796 81.022,31.806 C80.996,31.816 80.952,31.783 80.923,31.734 L78.787,28.139 C78.758,28.09 78.774,28.025 78.823,27.997 L78.939,27.928 C78.988,27.898 79.059,27.909 79.097,27.952 L79.388,28.28 C79.425,28.323 79.497,28.334 79.545,28.305 L83.467,25.976 C83.516,25.946 83.54,25.879 83.521,25.825 L83.372,25.413 C83.353,25.359 83.377,25.292 83.426,25.263 L83.542,25.194 C83.591,25.165 83.654,25.181 83.683,25.229 L85.72,28.658 C85.749,28.707 85.771,28.771 85.768,28.803 C85.765,28.833 85.723,28.883 85.675,28.913 L84.856,29.438 C84.808,29.47 84.745,29.455 84.716,29.405 L84.531,29.094 C84.502,29.046 84.512,28.974 84.553,28.935 L84.997,28.516 C85.039,28.477 85.051,28.403 85.025,28.353 L84.815,27.942 C84.789,27.892 84.743,27.811 84.714,27.762 L84.115,26.747 L82.318,27.819 L82.937,28.864 C82.966,28.913 83.034,28.938 83.087,28.917 L83.497,28.763 C83.55,28.743 83.618,28.768 83.647,28.816 L83.802,29.078 C83.831,29.128 83.815,29.191 83.766,29.221 L82.44,30.008 C82.391,30.037 82.328,30.021 82.298,29.972 L82.143,29.71 C82.114,29.661 82.126,29.59 82.169,29.554 L82.565,29.217" fill="#FFFFFE"/>
    <path d="M15.364,26.787 C15.311,26.765 15.243,26.785 15.212,26.833 L14.543,27.851 L16.539,29.134 L17.249,28.044 C17.28,27.996 17.328,27.916 17.356,27.866 L17.58,27.474 C17.608,27.424 17.598,27.35 17.558,27.31 L17.149,26.892 C17.109,26.852 17.102,26.779 17.133,26.731 L17.335,26.421 C17.366,26.374 17.429,26.361 17.476,26.394 L18.246,26.936 C18.293,26.968 18.347,27.01 18.367,27.028 C18.387,27.047 18.378,27.102 18.347,27.149 L16.063,30.653 C16.032,30.7 15.967,30.714 15.92,30.683 L15.807,30.609 C15.759,30.578 15.738,30.51 15.759,30.457 L15.925,30.051 C15.947,29.998 15.925,29.93 15.877,29.898 L12.057,27.408 C12.009,27.377 11.938,27.386 11.898,27.426 L11.594,27.741 C11.554,27.782 11.482,27.79 11.435,27.759 L11.322,27.686 C11.274,27.654 11.261,27.59 11.292,27.542 L13.469,24.202 C13.5,24.154 13.549,24.107 13.578,24.096 C13.606,24.085 13.669,24.101 13.718,24.13 L14.551,24.633 C14.6,24.662 14.614,24.726 14.583,24.773 L14.386,25.076 C14.355,25.124 14.285,25.146 14.232,25.127 L13.66,24.914 C13.607,24.894 13.536,24.915 13.501,24.961 L13.227,25.33 C13.193,25.376 13.14,25.452 13.108,25.5 L12.462,26.485 L14.219,27.625 L14.883,26.607 C14.914,26.561 14.905,26.489 14.864,26.45 L14.545,26.15 C14.503,26.111 14.495,26.04 14.526,25.993 L14.692,25.737 C14.724,25.689 14.788,25.676 14.836,25.707 L16.128,26.549 C16.176,26.58 16.19,26.645 16.158,26.692 L15.992,26.948 C15.96,26.996 15.892,27.016 15.84,26.993 L15.364,26.787" fill="#FFFFFE"/>
    <path d="M88.032,33.698 C88.05,33.752 88.038,33.834 88.004,33.88 L85.093,37.912 L88.48,36.732 C88.534,36.713 88.572,36.652 88.563,36.596 L88.501,36.161 C88.493,36.105 88.53,36.044 88.584,36.025 L88.711,35.981 C88.765,35.962 88.825,35.991 88.843,36.046 L89.418,37.708 C89.437,37.762 89.408,37.821 89.354,37.841 L89.227,37.884 C89.173,37.902 89.106,37.878 89.077,37.828 L88.855,37.44 C88.827,37.392 88.76,37.366 88.706,37.385 L83.911,39.043 C83.857,39.062 83.798,39.032 83.779,38.979 L83.616,38.507 C83.598,38.452 83.61,38.371 83.644,38.324 L87.022,33.708 L83.081,35.072 C83.027,35.092 82.99,35.152 82.998,35.209 L83.06,35.644 C83.068,35.7 83.031,35.761 82.977,35.779 L82.85,35.823 C82.796,35.843 82.736,35.813 82.718,35.76 L82.143,34.096 C82.124,34.043 82.153,33.982 82.207,33.964 L82.334,33.921 C82.388,33.901 82.455,33.927 82.483,33.977 L82.706,34.363 C82.734,34.413 82.801,34.439 82.855,34.42 L87.165,32.929 C87.219,32.91 87.256,32.85 87.248,32.793 L87.184,32.352 C87.175,32.295 87.212,32.234 87.266,32.215 L87.394,32.17 C87.447,32.152 87.507,32.181 87.525,32.234 L88.032,33.698" fill="#FFFFFE"/>
    <path d="M85.039,42.42 C85.009,42.55 84.989,42.692 84.981,42.847 C84.974,43.001 84.977,43.132 84.993,43.239 C85.048,43.62 85.172,43.905 85.367,44.097 C85.562,44.288 85.812,44.361 86.118,44.317 C86.301,44.291 86.45,44.229 86.568,44.129 C86.685,44.03 86.783,43.91 86.861,43.771 C86.94,43.631 87.005,43.478 87.058,43.312 C87.111,43.146 87.167,42.98 87.226,42.819 C87.316,42.576 87.4,42.355 87.476,42.159 C87.552,41.962 87.64,41.792 87.739,41.648 C87.84,41.506 87.961,41.39 88.105,41.3 C88.248,41.212 88.43,41.151 88.65,41.119 C88.891,41.085 89.112,41.105 89.312,41.181 C89.512,41.255 89.688,41.377 89.841,41.543 C89.994,41.71 90.121,41.919 90.223,42.17 C90.325,42.421 90.399,42.705 90.444,43.022 C90.461,43.14 90.472,43.268 90.475,43.406 C90.479,43.546 90.479,43.686 90.474,43.825 C90.469,43.966 90.46,44.103 90.447,44.235 C90.433,44.37 90.41,44.487 90.41,44.487 C90.399,44.544 90.377,44.595 90.359,44.602 C90.342,44.609 90.282,44.616 90.225,44.616 L89.35,44.637 C89.293,44.638 89.24,44.593 89.232,44.536 L89.182,44.187 C89.174,44.13 89.21,44.067 89.263,44.045 L89.905,43.788 C89.948,43.706 89.978,43.598 89.994,43.464 C90.011,43.33 90.005,43.172 89.979,42.989 C89.932,42.662 89.818,42.413 89.638,42.242 C89.456,42.07 89.232,42.005 88.963,42.044 C88.792,42.068 88.654,42.121 88.551,42.201 C88.447,42.282 88.363,42.382 88.298,42.501 C88.233,42.619 88.179,42.751 88.136,42.894 C88.094,43.036 88.048,43.183 87.999,43.332 C87.923,43.534 87.849,43.748 87.774,43.972 C87.699,44.196 87.606,44.402 87.493,44.592 C87.381,44.78 87.243,44.94 87.082,45.073 C86.92,45.206 86.715,45.285 86.466,45.31 C86.148,45.34 85.876,45.308 85.651,45.214 C85.427,45.12 85.239,44.981 85.086,44.799 C84.933,44.615 84.813,44.389 84.725,44.119 C84.637,43.851 84.57,43.555 84.523,43.233 C84.482,42.943 84.466,42.655 84.477,42.369 C84.488,42.082 84.527,41.725 84.527,41.725 C84.533,41.668 84.552,41.617 84.57,41.612 C84.587,41.607 84.648,41.603 84.705,41.601 L85.578,41.574 C85.635,41.572 85.689,41.618 85.696,41.674 L85.747,42.023 C85.755,42.08 85.718,42.145 85.666,42.165 L85.039,42.42" fill="#FFFFFE"/>
    <path d="M90.514,50.105 C90.457,50.105 90.401,50.059 90.39,50.003 L90.305,49.572 C90.294,49.517 90.238,49.471 90.182,49.471 L85.621,49.491 C85.563,49.491 85.508,49.537 85.498,49.593 L85.417,50.024 C85.407,50.08 85.352,50.126 85.294,50.126 L85.16,50.127 C85.103,50.127 85.056,50.081 85.056,50.023 L85.047,47.972 C85.046,47.915 85.093,47.867 85.15,47.867 L85.285,47.867 C85.342,47.866 85.397,47.912 85.408,47.968 L85.493,48.399 C85.504,48.454 85.56,48.5 85.617,48.499 L90.177,48.481 C90.234,48.48 90.29,48.434 90.3,48.378 L90.38,47.946 C90.391,47.89 90.447,47.844 90.503,47.844 L90.638,47.843 C90.695,47.843 90.742,47.89 90.742,47.946 L90.752,49.999 C90.752,50.056 90.705,50.103 90.648,50.103 L90.514,50.105" fill="#FFFFFE"/>
    <path d="M85.295,53.577 C85.228,53.692 85.168,53.822 85.114,53.968 C85.062,54.113 85.027,54.239 85.01,54.347 C84.95,54.727 84.985,55.036 85.115,55.276 C85.245,55.516 85.462,55.66 85.768,55.708 C85.951,55.736 86.112,55.721 86.253,55.66 C86.395,55.601 86.523,55.515 86.639,55.404 C86.755,55.294 86.863,55.167 86.962,55.024 C87.062,54.88 87.163,54.739 87.267,54.602 C87.426,54.397 87.57,54.211 87.701,54.044 C87.831,53.878 87.965,53.742 88.103,53.635 C88.241,53.526 88.391,53.452 88.554,53.409 C88.717,53.366 88.909,53.362 89.128,53.396 C89.37,53.434 89.575,53.519 89.743,53.65 C89.913,53.78 90.045,53.947 90.143,54.151 C90.239,54.356 90.3,54.594 90.323,54.863 C90.347,55.133 90.334,55.426 90.284,55.741 C90.266,55.859 90.237,55.985 90.2,56.119 C90.163,56.254 90.121,56.387 90.076,56.52 C90.03,56.652 89.981,56.779 89.929,56.903 C89.877,57.027 89.82,57.133 89.82,57.133 C89.794,57.183 89.756,57.226 89.738,57.228 C89.72,57.229 89.66,57.217 89.605,57.202 L88.764,56.964 C88.709,56.948 88.671,56.89 88.68,56.833 L88.735,56.484 C88.744,56.428 88.797,56.378 88.855,56.373 L89.544,56.317 C89.608,56.25 89.669,56.155 89.724,56.032 C89.779,55.909 89.82,55.757 89.849,55.574 C89.9,55.248 89.865,54.977 89.742,54.76 C89.62,54.543 89.425,54.413 89.156,54.372 C88.985,54.345 88.838,54.354 88.715,54.401 C88.593,54.448 88.483,54.519 88.386,54.612 C88.289,54.707 88.199,54.817 88.116,54.941 C88.034,55.064 87.946,55.192 87.855,55.319 C87.724,55.491 87.589,55.673 87.452,55.865 C87.315,56.058 87.165,56.228 87.002,56.375 C86.839,56.522 86.661,56.635 86.466,56.714 C86.273,56.794 86.054,56.809 85.809,56.759 C85.495,56.693 85.245,56.583 85.058,56.428 C84.871,56.272 84.732,56.084 84.64,55.864 C84.548,55.644 84.499,55.393 84.495,55.109 C84.49,54.826 84.512,54.523 84.563,54.202 C84.608,53.913 84.679,53.633 84.773,53.363 C84.867,53.093 85.01,52.762 85.01,52.762 C85.032,52.709 85.065,52.667 85.084,52.667 C85.102,52.668 85.162,52.681 85.217,52.695 L86.059,52.928 C86.114,52.942 86.151,53.001 86.143,53.058 L86.088,53.407 C86.079,53.464 86.025,53.513 85.969,53.519 L85.295,53.577" fill="#FFFFFE"/>
    <path d="M23.749,82.946 C23.8,82.969 23.868,82.952 23.9,82.903 L26.248,79.53 L21.877,82.006 C21.827,82.034 21.75,82.028 21.706,81.993 L21.531,81.85 C21.487,81.815 21.462,81.739 21.477,81.684 L22.742,76.963 L20.087,79.854 C20.047,79.895 20.041,79.965 20.075,80.01 L20.341,80.372 C20.375,80.418 20.371,80.491 20.332,80.532 L20.241,80.629 C20.202,80.67 20.136,80.674 20.094,80.633 L18.8,79.428 C18.759,79.389 18.756,79.325 18.795,79.282 L18.887,79.184 C18.925,79.143 18.997,79.133 19.045,79.163 L19.418,79.399 C19.466,79.428 19.539,79.421 19.579,79.381 L22.581,76.049 C22.619,76.006 22.619,75.936 22.583,75.893 L22.298,75.555 C22.262,75.512 22.261,75.44 22.297,75.395 L22.381,75.292 C22.417,75.247 22.483,75.241 22.527,75.278 L23.881,76.378 C23.925,76.413 23.95,76.487 23.935,76.542 L22.859,80.698 L26.564,78.68 C26.613,78.653 26.69,78.659 26.734,78.696 L28.031,79.749 C28.076,79.786 28.082,79.85 28.046,79.895 L27.962,79.999 C27.926,80.043 27.855,80.057 27.806,80.03 L27.417,79.821 C27.367,79.793 27.298,79.809 27.264,79.854 L24.704,83.493 C24.672,83.54 24.678,83.612 24.716,83.655 L25.017,83.977 C25.056,84.02 25.06,84.09 25.026,84.137 L24.947,84.245 C24.914,84.292 24.849,84.301 24.803,84.268 L23.139,83.047 C23.093,83.014 23.083,82.95 23.117,82.903 L23.195,82.796 C23.229,82.749 23.299,82.731 23.35,82.756 L23.749,82.946" fill="#FFFFFE"/>
    <path d="M34.468,85.057 C34.524,84.743 34.517,84.458 34.446,84.202 C34.375,83.948 34.241,83.719 34.044,83.518 C33.847,83.317 33.358,83.024 33.358,83.024 C33.309,82.995 33.228,82.95 33.177,82.924 L32.659,82.657 L30.461,86.958 L30.954,87.212 C31.192,87.333 31.421,87.43 31.643,87.504 C31.865,87.579 32.079,87.614 32.283,87.608 C32.609,87.581 32.928,87.452 33.241,87.223 C33.553,86.995 33.84,86.624 34.102,86.114 C34.289,85.723 34.411,85.372 34.468,85.057 z M33.541,82.655 C33.943,82.86 34.294,83.092 34.594,83.348 C34.894,83.604 35.12,83.891 35.272,84.209 C35.424,84.528 35.491,84.881 35.473,85.27 C35.455,85.659 35.326,86.087 35.087,86.553 C34.863,86.993 34.601,87.34 34.3,87.6 C33.999,87.86 33.672,88.034 33.319,88.12 C32.966,88.208 32.59,88.215 32.191,88.145 C31.794,88.075 31.057,87.758 31.057,87.758 C31.004,87.735 30.92,87.696 30.869,87.671 L28.895,86.661 C28.844,86.635 28.824,86.571 28.85,86.52 L28.911,86.403 C28.936,86.352 29.002,86.323 29.057,86.338 L29.481,86.462 C29.536,86.479 29.602,86.45 29.627,86.399 L31.698,82.348 C31.724,82.297 31.709,82.229 31.664,82.192 L31.315,81.922 C31.271,81.887 31.255,81.817 31.281,81.766 L31.342,81.647 C31.368,81.596 31.431,81.575 31.481,81.602 L33.541,82.655" fill="#FFFFFE"/>
    <path d="M43.268,86.661 C43.255,86.469 43.261,86.436 43.255,86.301 C43.247,86.133 43.194,86.071 43.027,85.965 C42.962,85.922 42.888,85.889 42.811,85.854 C42.689,85.799 42.55,85.756 42.395,85.729 C42.111,85.678 41.844,85.68 41.597,85.737 C41.348,85.793 41.125,85.905 40.925,86.073 C40.727,86.241 40.556,86.463 40.414,86.743 C40.272,87.022 40.165,87.356 40.095,87.745 C39.945,88.571 40.004,89.213 40.271,89.674 C40.539,90.135 41.002,90.426 41.661,90.546 C41.854,90.581 42.063,90.594 42.289,90.584 C42.481,90.577 42.703,90.551 42.956,90.52 C43.088,90.503 43.101,90.6 43.101,90.6 L43.115,90.704 C43.115,90.704 43.128,90.823 43.028,90.86 C42.806,90.944 42.553,91.004 42.268,91.043 C41.939,91.088 41.579,91.075 41.188,91.004 C40.813,90.936 40.471,90.821 40.163,90.661 C39.855,90.5 39.6,90.286 39.4,90.018 C39.199,89.753 39.062,89.428 38.987,89.046 C38.913,88.663 38.922,88.217 39.015,87.706 C39.108,87.19 39.266,86.758 39.486,86.413 C39.707,86.069 39.973,85.799 40.284,85.606 C40.596,85.413 40.946,85.29 41.334,85.239 C41.722,85.19 42.133,85.204 42.567,85.282 C42.861,85.337 43.132,85.413 43.379,85.516 C43.551,85.588 43.713,85.661 43.865,85.735 C44.076,85.838 44.021,86.018 44.021,86.018 L43.795,86.764 C43.795,86.764 43.741,86.928 43.596,86.905 C43.468,86.881 43.391,86.866 43.391,86.866 C43.391,86.866 43.28,86.85 43.268,86.661" fill="#FFFFFE"/>
    <path d="M51.935,86.854 C51.877,86.672 51.876,86.637 51.838,86.508 C51.79,86.348 51.724,86.301 51.537,86.237 C51.464,86.212 51.384,86.194 51.301,86.178 C51.169,86.155 51.024,86.147 50.867,86.157 C50.578,86.172 50.32,86.239 50.093,86.354 C49.865,86.467 49.675,86.629 49.521,86.838 C49.366,87.047 49.254,87.305 49.182,87.61 C49.11,87.917 49.086,88.264 49.109,88.659 C49.159,89.497 49.369,90.108 49.738,90.493 C50.106,90.875 50.626,91.049 51.294,91.008 C51.49,90.997 51.696,90.962 51.913,90.899 C52.099,90.846 52.308,90.768 52.546,90.676 C52.67,90.629 52.706,90.721 52.706,90.721 L52.744,90.819 C52.744,90.819 52.785,90.932 52.697,90.993 C52.501,91.125 52.269,91.245 52.001,91.35 C51.692,91.471 51.339,91.543 50.942,91.567 C50.562,91.588 50.203,91.559 49.866,91.477 C49.528,91.393 49.23,91.245 48.972,91.034 C48.714,90.821 48.504,90.538 48.342,90.186 C48.179,89.831 48.082,89.395 48.051,88.875 C48.02,88.352 48.07,87.897 48.203,87.51 C48.335,87.124 48.53,86.797 48.787,86.536 C49.044,86.274 49.356,86.073 49.721,85.932 C50.085,85.792 50.488,85.708 50.928,85.682 C51.227,85.663 51.509,85.676 51.773,85.717 C51.957,85.745 52.132,85.778 52.297,85.813 C52.526,85.866 52.515,86.051 52.515,86.051 L52.472,86.831 C52.472,86.831 52.459,87.004 52.313,87.014 C52.182,87.022 52.104,87.024 52.104,87.024 C52.104,87.024 51.993,87.036 51.935,86.854" fill="#FFFFFE"/>
    <path d="M60.389,85.069 C60.294,84.903 60.285,84.87 60.221,84.753 C60.141,84.604 60.066,84.573 59.87,84.549 C59.793,84.54 59.712,84.54 59.627,84.543 C59.493,84.546 59.35,84.569 59.198,84.612 C58.92,84.688 58.681,84.807 58.483,84.965 C58.284,85.125 58.131,85.323 58.025,85.559 C57.918,85.797 57.862,86.073 57.856,86.385 C57.85,86.7 57.899,87.047 58.005,87.426 C58.229,88.235 58.562,88.788 59.003,89.087 C59.445,89.385 59.988,89.446 60.634,89.266 C60.822,89.213 61.016,89.135 61.216,89.03 C61.386,88.938 61.575,88.817 61.789,88.678 C61.9,88.606 61.954,88.688 61.954,88.688 L62.011,88.776 C62.011,88.776 62.075,88.878 62.002,88.956 C61.839,89.128 61.636,89.292 61.397,89.45 C61.12,89.635 60.79,89.78 60.407,89.885 C60.04,89.987 59.683,90.034 59.335,90.022 C58.988,90.012 58.665,89.93 58.369,89.778 C58.072,89.624 57.808,89.391 57.574,89.081 C57.34,88.768 57.154,88.362 57.016,87.862 C56.875,87.356 56.829,86.901 56.877,86.493 C56.926,86.087 57.048,85.729 57.244,85.418 C57.44,85.11 57.702,84.846 58.03,84.631 C58.357,84.418 58.733,84.253 59.159,84.133 C59.447,84.053 59.725,84.006 59.991,83.991 C60.177,83.981 60.355,83.975 60.524,83.977 C60.759,83.977 60.787,84.163 60.787,84.163 L60.909,84.934 C60.909,84.934 60.932,85.106 60.791,85.147 C60.666,85.182 60.59,85.202 60.59,85.202 C60.59,85.202 60.483,85.235 60.389,85.069" fill="#FFFFFE"/>
    <path d="M67.424,83.69 L64.914,82.551 C64.862,82.528 64.774,82.522 64.72,82.54 L64.343,82.657 C64.289,82.672 64.221,82.647 64.193,82.598 L64.127,82.481 C64.099,82.43 64.116,82.368 64.165,82.338 L65.972,81.311 C66.022,81.282 66.085,81.299 66.114,81.348 L66.18,81.465 C66.208,81.514 66.196,81.587 66.155,81.625 L65.931,81.831 C65.888,81.87 65.897,81.921 65.948,81.946 L67.737,82.797 L67.957,80.799 C67.963,80.743 67.924,80.709 67.87,80.727 L67.557,80.825 C67.502,80.842 67.435,80.817 67.407,80.766 L67.341,80.651 C67.313,80.6 67.33,80.538 67.379,80.508 L68.81,79.694 C68.859,79.667 68.923,79.684 68.951,79.733 L69.018,79.85 C69.046,79.899 69.034,79.969 68.991,80.008 L68.665,80.295 C68.622,80.333 68.581,80.409 68.576,80.465 L68.298,83.006 L71.08,84.301 C71.131,84.325 71.218,84.331 71.273,84.313 L71.657,84.192 C71.711,84.176 71.779,84.202 71.807,84.253 L71.873,84.368 C71.901,84.417 71.884,84.481 71.835,84.51 L70.021,85.543 C69.971,85.571 69.908,85.553 69.88,85.504 L69.813,85.387 C69.785,85.338 69.797,85.266 69.839,85.229 L70.083,85.008 C70.126,84.971 70.118,84.921 70.067,84.895 L67.977,83.895 L67.724,86.231 C67.717,86.288 67.757,86.321 67.811,86.305 L68.109,86.213 C68.164,86.196 68.231,86.223 68.26,86.272 L68.326,86.389 C68.354,86.438 68.337,86.5 68.288,86.53 L66.85,87.348 C66.8,87.378 66.737,87.36 66.709,87.311 L66.643,87.194 C66.614,87.145 66.626,87.073 66.669,87.036 L66.995,86.749 C67.038,86.712 67.079,86.633 67.085,86.577 L67.424,83.69" fill="#FFFFFE"/>
    <path d="M73.645,76.057 C73.683,76.1 73.686,76.172 73.651,76.215 L73.38,76.565 C73.346,76.61 73.348,76.682 73.386,76.725 L76.395,80.135 C76.432,80.178 76.503,80.19 76.552,80.161 L76.932,79.936 C76.981,79.909 77.052,79.919 77.089,79.962 L77.178,80.061 C77.216,80.104 77.211,80.171 77.169,80.208 L75.622,81.573 C75.579,81.61 75.514,81.606 75.476,81.563 L75.387,81.463 C75.35,81.42 75.348,81.348 75.382,81.303 L75.653,80.956 C75.687,80.911 75.685,80.838 75.648,80.796 L72.639,77.383 C72.601,77.34 72.53,77.329 72.481,77.358 L72.101,77.583 C72.052,77.612 71.981,77.6 71.943,77.557 L71.855,77.458 C71.817,77.415 71.821,77.35 71.864,77.311 L73.411,75.948 C73.454,75.909 73.52,75.915 73.557,75.956 L73.645,76.057" fill="#FFFFFE"/>
    <path d="M18.83,22.025 C18.79,22.067 18.761,22.093 18.761,22.093 L17.119,20.539 L17.413,20.234 C17.452,20.192 17.518,20.126 17.559,20.087 C17.559,20.087 17.738,19.912 17.864,19.818 C17.99,19.726 18.119,19.665 18.25,19.637 C18.382,19.609 18.517,19.618 18.657,19.664 C18.796,19.711 18.94,19.806 19.089,19.947 C19.416,20.258 19.57,20.56 19.552,20.854 C19.535,21.148 19.161,21.658 19.161,21.658 C19.127,21.704 19.068,21.775 19.029,21.816 L18.83,22.025 z M22.34,22.603 C22.396,22.612 22.474,22.588 22.513,22.546 L23.373,21.643 C23.412,21.601 23.411,21.535 23.369,21.496 L23.272,21.403 C23.23,21.363 23.159,21.359 23.112,21.391 L22.784,21.618 C22.738,21.651 22.653,21.67 22.597,21.661 L20.029,21.243 C19.973,21.234 19.947,21.185 19.971,21.133 C19.971,21.133 20.285,20.455 20.273,20.103 C20.26,19.75 20.102,19.43 19.8,19.142 C19.583,18.937 19.366,18.817 19.147,18.783 C18.927,18.751 18.713,18.773 18.504,18.852 C18.295,18.929 18.094,19.046 17.9,19.202 C17.706,19.359 17.432,19.629 17.432,19.629 C17.391,19.669 17.325,19.735 17.286,19.776 L15.776,21.363 C15.737,21.405 15.738,21.471 15.779,21.51 L15.877,21.603 C15.918,21.642 15.99,21.647 16.036,21.614 L16.399,21.354 C16.445,21.32 16.517,21.325 16.558,21.364 L19.862,24.509 C19.903,24.548 19.911,24.619 19.881,24.667 L19.639,25.042 C19.607,25.09 19.616,25.161 19.657,25.201 L19.755,25.294 C19.796,25.333 19.862,25.331 19.901,25.29 L21.316,23.803 C21.355,23.762 21.354,23.696 21.313,23.656 L21.215,23.564 C21.174,23.525 21.103,23.52 21.056,23.553 L20.699,23.808 C20.653,23.84 20.581,23.836 20.54,23.796 L19.018,22.348 L19.243,22.11 C19.283,22.069 19.36,22.044 19.417,22.055 L22.34,22.603" fill="#FFFFFE"/>
  </g>
</svg>
